<?xml version="1.0" standalone="no"?>
<!DOCTYPE svg PUBLIC "-//W3C//DTD SVG 1.1//EN" "http://www.w3.org/Graphics/SVG/1.1/DTD/svg11.dtd" >
<svg>
<metadata>
Created by FontForge 20090622 at Thu Mar 15 13:59:21 2018
 By deploy user
KoleSoft Co'93, Kiev
</metadata>
<defs>
<font id="UkrPresidentPSMT" horiz-adv-x="500" >
  <font-face 
    font-family="President Cyr"
    font-weight="400"
    font-stretch="normal"
    units-per-em="1000"
    panose-1="0 0 0 0 0 0 0 0 0 0"
    ascent="800"
    descent="-200"
    x-height="303"
    cap-height="621"
    bbox="-68 -287 1194 862"
    underline-thickness="50"
    underline-position="-75"
    unicode-range="U+0020-U+F002"
  />
<missing-glyph horiz-adv-x="862" 
d="M53 0v862h756v-862h-756zM756 53v756h-650v-756h650z" />
    <glyph glyph-name=".notdef" horiz-adv-x="862" 
d="M53 0v862h756v-862h-756zM756 53v756h-650v-756h650z" />
    <glyph glyph-name=".null" horiz-adv-x="0" 
 />
    <glyph glyph-name="nonmarkingreturn" horiz-adv-x="277" 
 />
    <glyph glyph-name="space" unicode=" " horiz-adv-x="277" 
 />
    <glyph glyph-name="exclam" unicode="!" horiz-adv-x="277" 
d="M191 545l-14 -107q-3 -34 -5 -59.5t-2 -49.5l-4 -171q0 -6 -10 -10q-10 0 -25 15q-12 14 -12 30l2 192v38v30v24v19v15v13q0 45 -4 60q-3 23 20 23q17 0 38 -18q16 -16 16 -44zM172 16q0 -21 -10 -22q-48 0 -51 27l-2 69q0 21 12 19q46 -6 49 -15l2 -61v-17z" />
    <glyph glyph-name="quotedbl" unicode="&#x22;" horiz-adv-x="332" 
d="M266 584q0 -39 -9 -105l-9 -84q-3 -23 -14 -26q-7 0 -13 24v33q-3 15 -4 21l-7 50l-5 46l-2 41q0 41 31 41q11 0 21.5 -12t10.5 -29zM131 584q0 -39 -9 -105l-9 -84q-3 -23 -13 -26q-8 0 -14 24l-11 95l-7 96q0 41 32 41q11 0 21 -11.5t10 -29.5z" />
    <glyph glyph-name="numbersign" unicode="#" horiz-adv-x="557" 
d="M525 350h-109l-23 -127h105v-35h-111l-32 -188h-50l33 188h-141l-33 -188h-49l31 188h-115v35h121l24 127h-113v37h119l31 187h51l-34 -187h141l33 187h49l-31 -187h103v-37zM365 350h-140l-22 -127h141z" />
    <glyph glyph-name="dollar" unicode="$" horiz-adv-x="557" 
d="M504 234q0 -70 -62 -132t-128 -90v-73q0 -15 -25 -15q-6 0 -6 15v61q-40 -14 -95 -14q-61 0 -98 23t-37 77l1 8l3 4l14 -18q11 -10 52 -25q41 -12 121 -12q8 0 10 -2l29 4v240l-79 12l-33 6l-28 9q-15 6 -28 22t-13 43q0 61 52 110q26 24 57 42.5t72 34.5v47q0 14 24 14
h4l3 -6v-47l16 3q7 0 11 2l16 1q50 0 89 -20q40 -18 40 -68q0 -15 -6 -15l-23 19q-61 49 -143 49v-207q94 -17 117 -25q30 -6 51.5 -24.5t21.5 -52.5zM283 340v199q-53 -13 -90 -50t-37 -87q0 -38 43 -47zM441 193q0 70 -127 86v-228q54 12 90.5 49.5t36.5 92.5z" />
    <glyph glyph-name="percent" unicode="%" horiz-adv-x="889" 
d="M820 164q0 -97 -62 -138q-32 -21 -61 -30q-13 -4 -29.5 -7t-32.5 -3q-66 0 -98.5 37.5t-32.5 105.5q0 84 48 134.5t122 50.5q69 0 107.5 -32t38.5 -118zM637 535q0 -6 -8 -17q-87 -132 -129 -201l-104 -173l-111 -185l-4 -2l-4 -2q-6 0 -12.5 6.5t-6.5 13.5q0 9 8 17
l139 226l200 337l2 4l8 2q3 -1 6 -3t6 -6q7 -9 10 -17zM385 375q0 -95 -60.5 -135.5t-125.5 -40.5q-131 0 -131 141q0 57 21.5 98t60.5 67l40 16q21 6 46 6q149 0 149 -152zM766 145q0 74 -23 110q-21 36 -79 36q-47 0 -77 -37q-26 -37 -26 -94q0 -150 107 -150
q31 0 51.5 15.5t33.5 47.5t13 72zM330 355q0 74 -24.5 111.5t-80.5 37.5q-48 0 -75 -39q-25 -39 -25 -94q0 -75 25.5 -111.5t81.5 -36.5q45 0 71.5 36.5t26.5 95.5z" />
    <glyph glyph-name="ampersand" unicode="&#x26;" horiz-adv-x="723" 
d="M693 23q0 -14 -17.5 -28.5t-32.5 -17.5q-36 0 -164 113q-58 -46 -137.5 -72t-148.5 -26q-134 0 -134 94q0 44 22.5 76.5t55.5 56.5l136 92l-10 15l-13 18l-25 37l-17 35l-3 13l-2 16q0 41 38 76.5t94 57t95 21.5q51 0 79 -16t28 -45q0 -31 -17 -58q-13 -25 -42 -53
q-19 -17 -75 -58l-55 -40q80 -103 166 -182q32 35 50 73.5t18 81.5l-6 29q3 5 8 8q17 0 32 -14t15 -39q0 -72 -98 -158q60 -56 93 -76t56 -20q8 0 11 -10zM463 518q0 24 -15.5 41t-45.5 17q-41 0 -82 -39.5t-41 -81.5q0 -16 7 -33l21 -36l25 -36q68 47 99.5 84t31.5 84z
M463 107q-62 58 -176 188q-72 -45 -110 -98t-38 -84q0 -30 24 -59q25 -25 79 -25q119 0 221 78z" />
    <glyph glyph-name="quotesingle" unicode="'" horiz-adv-x="277" 
d="M242 576q0 -15 -27 -69.5t-67 -104.5q-20 -33 -33 -33q-5 0 -8 4l12 27l37 100l28 92q6 30 19 31q12 0 24 -15t15 -32z" />
    <glyph glyph-name="parenleft" unicode="(" horiz-adv-x="277" 
d="M268 619q-163 -181 -163 -373q0 -84 15 -146.5t48.5 -121.5t79.5 -109l-21 -15q-170 175 -170 384q0 60 27.5 136t72.5 142t97 121z" />
    <glyph glyph-name="parenright" unicode=")" horiz-adv-x="277" 
d="M223 252q0 -97 -55 -199.5t-145 -198.5l-13 17q162 174 162 373q0 112 -30.5 199t-112.5 178l22 16q54 -51 91 -116q34 -60 59 -136q10 -34 16 -69t6 -64z" />
    <glyph glyph-name="asterisk" unicode="*" horiz-adv-x="391" 
d="M322 406q0 -5 -8.5 -15.5t-16.5 -13.5q-5 1 -6 2l-10 6l-74 58q14 -81 14 -101q0 -18 -26 -18q-25 0 -25 20q0 10 3 33t11 66l-41 -31l-24 -19l-15 -10l-10 -6q-9 0 -16 7.5t-10 21.5l3 8l14 9l29 16l50 28l-71 42q-24 12 -25 20q0 10 7.5 18.5t18.5 11.5l6 -2l21 -15
l63 -50l-14 100q0 19 25 19q26 0 26 -19l-14 -100l62 49q21 18 28 18q4 -2 7.5 -4.5t7.5 -7.5q8 -10 10 -18l-5 -9l-28 -17l-64 -36q96 -54 97 -61z" />
    <glyph glyph-name="plus" unicode="+" horiz-adv-x="600" 
d="M553 229h-229v-229h-49v229h-228v48h228v229h49v-229h229v-48z" />
    <glyph glyph-name="comma" unicode="," horiz-adv-x="277" 
d="M182 105q0 -36 -49 -107q-26 -36 -55 -70.5t-64 -68.5q-10 -8 -24 -11q-9 0 -10 4l16 21q59 65 94 148.5t35 124.5q0 9 10 10q9 0 19.5 -6.5t16.5 -15.5t11 -29z" />
    <glyph glyph-name="hyphen" unicode="-" horiz-adv-x="389" 
d="M357 152q0 -9 -283 -9q-18 0 -30.5 13.5t-12.5 25.5q4 6 6 7h303l3 -3q5 -5 9.5 -15t4.5 -19z" />
    <glyph glyph-name="period" unicode="." horiz-adv-x="277" 
d="M176 8q0 -15 -10 -16q-11 0 -17 1t-22 7q-22 9 -25 21v86q0 12 11 12l21 -3q19 -3 30.5 -9.5t11.5 -16.5v-82z" />
    <glyph glyph-name="slash" unicode="/" horiz-adv-x="389" 
d="M361 613q0 -12 -11 -29l-159 -335l-113 -239q-12 -24 -17 -24q-10 0 -21 11q-7 9 -11 21l6 13l31 60l37 72l67 142l70 157l63 143q12 36 25 36q12 0 22 -8t11 -20z" />
    <glyph glyph-name="zero" unicode="0" horiz-adv-x="557" 
d="M510 258q0 -57 -18.5 -105t-58.5 -88q-34 -34 -87 -57q-25 -10 -53.5 -16t-58.5 -6q-185 0 -185 254q0 77 31.5 143t92 105t141.5 39q64 0 108 -27.5t66 -90.5q10 -30 16 -68.5t6 -82.5zM447 250q0 61 -11 106.5t-34 83.5q-38 64 -113 64q-65 0 -106 -38.5t-60 -98.5
q-8 -34 -12 -62t-4 -63q0 -105 51 -165.5t117 -60.5q60 0 96 24t56 78t20 132z" />
    <glyph glyph-name="one" unicode="1" horiz-adv-x="557" 
d="M420 531q0 -14 -1.5 -19t-5.5 -33.5t-6 -46.5l-4 -89l-1 -95l-4 -154l3 -69l3 -31q0 -5 -8 -8q-14 0 -38.5 9.5t-27.5 22.5l15 233q0 16 2 62t2 60l5 94l-122 -94l-64 -47q-23 -15 -37 -15q-10 0 -29 12t-20 19l18 8q46 16 102 49l60 34l60 37q62 40 86 59l10 8z" />
    <glyph glyph-name="two" unicode="2" horiz-adv-x="557" 
d="M521 43q0 -11 -57 -26l-84 -15l-66 -3l-111 -3l-113 -4q-26 0 -41 14q-14 16 -14 29q0 6 35 24l85 39q32 15 60.5 30.5t60.5 37.5q60 38 104 91q20 25 30 51.5t10 54.5q0 66 -37 103.5t-88 37.5q-54 0 -106 -43t-52 -115q0 -67 76 -67l3 -2l3 -2q0 -6 -23 -18.5
t-46 -12.5q-33 0 -54.5 23.5t-21.5 56.5q0 91 81 148q38 26 82.5 40.5t90.5 14.5q70 0 118 -35.5t48 -108.5q0 -64 -48 -117t-107.5 -90.5t-129 -76.5t-70.5 -46q0 -6 31 -12l123 -4q72 0 142 7l81 7q4 -2 5 -8z" />
    <glyph glyph-name="three" unicode="3" horiz-adv-x="557" 
d="M479 172q0 -60 -55 -116t-134 -90q-14 -6 -37 -13.5t-39 -12t-37 -7.5t-36 -3q-25 0 -43 3.5t-38 16.5q-39 21 -39 50l-1 6q0 9 7 10l50 -21q25 -10 55 -16t61 -6q53 0 101.5 20.5t78 62.5t29.5 104q0 88 -109 88q-43 0 -137 -19q-15 6 -19 29l4 15q64 0 122 9t99.5 41
t41.5 93q0 88 -99 88q-54 0 -92 -27q-34 -26 -68 -67q-29 -39 -38 -39q-33 0 -33 33q0 12 18 35q39 39 94 63.5t117 24.5q71 0 119.5 -28.5t48.5 -78.5q0 -101 -166 -147q44 0 75.5 -6.5t56.5 -18.5q42 -21 42 -76z" />
    <glyph glyph-name="four" unicode="4" horiz-adv-x="557" 
d="M543 188q0 -15 -30 -26l-42 -7l-49 -3v-148q0 -18 -12 -18t-30 9.5t-21 16.5v25l2 32l4 79l-203 -7q-99 0 -99 48q0 9 21 53l156 289l4 9q6 4 10 5q6 0 20 -15q12 -15 15 -32q0 -21 -10 -31l-154 -217q-16 -25 -20 -37q0 -7 30 -16l32 -5l35 -3l92 -3h41q22 0 30 -2
l6 205q0 15 10 15q12 0 31 -12t22 -25l-6 -71q-6 -65 -6 -112h12h11q13 0 28.5 0.5t32.5 3.5l35 5z" />
    <glyph glyph-name="five" unicode="5" horiz-adv-x="557" 
d="M492 199q0 -57 -56 -117t-141.5 -101.5t-155.5 -41.5q-44 0 -85 24q-38 24 -38 37q0 6 5 6l41 -11q52 -13 114 -13q58 0 115.5 24t95 72.5t37.5 118.5q0 54 -34 82t-85 28q-47 0 -87.5 -16.5t-71 -37.5t-37.5 -21q-6 0 -7 14q0 33 1 51q5 92 5 104l7 113q83 -12 166 -12
q110 0 203 25l4 -9q-3 -25 -23 -39t-47 -14q-99 0 -236 15l-10 -185q45 20 73 25.5t46 7.5t41 2q45 0 86 -15q34 -15 55 -45q19 -33 19 -71z" />
    <glyph glyph-name="six" unicode="6" horiz-adv-x="557" 
d="M504 232q0 -66 -45.5 -123.5t-115.5 -89.5q-37 -15 -70 -24t-66 -9q-40 0 -69.5 6t-56.5 23q-50 32 -50 96q0 69 77 178t171 196t116 87q11 0 26 -21q13 -21 13 -37q0 -5 -6 -8l-9 2l-11 2q-27 0 -113 -69q-72 -62 -143 -130l2 -2q35 18 81 30l45 8l48 3q82 0 129 -27.5
t47 -90.5zM441 197q0 129 -148 129q-83 0 -142 -44.5t-59 -129.5q0 -61 47 -96t111 -35q75 0 133 49.5t58 126.5z" />
    <glyph glyph-name="seven" unicode="7" horiz-adv-x="557" 
d="M512 475l-8 -10q-93 -66 -181 -208q-84 -139 -122 -296q0 -12 -12 -12t-29 26q-15 26 -15 50q0 33 54.5 124.5t131.5 185t140 144.5q-84 -13 -171 -21q-17 0 -111 -5q-38 -2 -74 -2q-33 0 -51 22.5t-21 46.5l2 5l2 2l19 -7q18 -6 83 -12t195 -6l93 3l57 3q6 0 12 -12.5
t6 -20.5z" />
    <glyph glyph-name="eight" unicode="8" horiz-adv-x="557" 
d="M502 176q0 -84 -77 -137t-191 -53q-98 0 -149.5 34.5t-51.5 90.5q0 55 39.5 99.5t128.5 68.5q-27 0 -46.5 7t-37.5 23q-29 27 -29 74q0 12 3 24.5t11 26.5q14 26 42.5 46.5t73 33.5t98.5 13q155 0 155 -107q0 -41 -36 -80.5t-101 -52.5q40 0 73 -9t54 -25q41 -30 41 -77z
M408 404q0 46 -33.5 73t-87.5 27q-51 0 -92 -31t-41 -82q0 -42 34.5 -69t82.5 -27q57 0 97 33t40 76zM434 152q0 49 -29.5 84t-129.5 35q-54 0 -114.5 -30.5t-60.5 -99.5q0 -63 56 -94t112 -31q66 0 116 38t50 98z" />
    <glyph glyph-name="nine" unicode="9" horiz-adv-x="557" 
d="M523 396q0 -72 -75 -185t-169 -201t-138 -88q-14 0 -29.5 17t-15.5 28q4 6 6 8l9 -2q40 0 137.5 74.5t177.5 181.5q-23 -14 -49.5 -26t-59.5 -24q-60 -19 -108 -19q-70 0 -114 34.5t-44 100.5q0 55 40.5 108.5t111.5 89.5q30 14 70 24t79 10q70 0 120.5 -30.5
t50.5 -100.5zM461 361q0 71 -42.5 104t-100.5 33q-52 0 -97 -21.5t-75 -63.5q-12 -19 -21 -43q-4 -12 -6 -23t-2 -25q0 -54 33 -92.5t104 -38.5q83 0 145 50.5t62 119.5z" />
    <glyph glyph-name="colon" unicode=":" horiz-adv-x="277" 
d="M170 211q0 -39 -8 -39q-20 0 -34.5 5.5t-18.5 15.5l-2 75q0 18 10 19q15 0 45 -12q8 0 8 -27v-37zM170 33q0 -39 -8 -39q-13 0 -31.5 6t-21.5 16l-2 74q0 18 10 19l24 -4l21 -5q8 0 8 -30v-37z" />
    <glyph glyph-name="semicolon" unicode=";" horiz-adv-x="277" 
d="M170 193q0 -21 -10 -21q-45 0 -51 21l-2 73l1 16q6 4 9 5q14 0 47 -12q6 0 6 -64v-18zM158 92q0 -9 -24 -51q-13 -23 -27.5 -43t-34.5 -45l-36 -42l-36 -38q-14 -12 -20 -12l-5 6l3 9l2 5q50 56 82 127l26 65q10 32 10 48q0 10 2 12l7 4q16 0 33.5 -14t17.5 -31z" />
    <glyph glyph-name="less" unicode="&#x3c;" horiz-adv-x="600" 
d="M553 -8l-506 235v52l506 235v-55l-444 -205l444 -205v-57z" />
    <glyph glyph-name="equal" unicode="=" horiz-adv-x="600" 
d="M553 324h-506v51h506v-51zM553 131h-506v51h506v-51z" />
    <glyph glyph-name="greater" unicode="&#x3e;" horiz-adv-x="600" 
d="M553 227l-506 -235v57l445 205l-445 205v55l506 -235v-52z" />
    <glyph glyph-name="question" unicode="?" horiz-adv-x="443" 
d="M402 496q0 -44 -32 -69.5t-98 -51.5t-98.5 -48.5t-32.5 -64.5q0 -80 82 -80q30 0 59 18q25 19 25 56q0 9 7 10q15 0 29 -11t14 -28q0 -33 -43 -51t-105 -18q-137 0 -137 94q0 39 30 62q26 18 96.5 48.5t102.5 56.5q33 24 33 71q0 36 -15 57q-12 21 -34.5 30t-50.5 9
q-57 0 -91.5 -28t-57.5 -67.5t-30 -39.5q-8 0 -22 12q-9 10 -10 23q0 30 34 61q32 26 84 45t99 19q162 0 162 -115zM240 10q0 -15 -8 -16q-14 0 -31.5 6t-18.5 16l-2 72q0 21 8 21q52 0 52 -29v-70z" />
    <glyph glyph-name="at" unicode="@" horiz-adv-x="801" 
d="M723 352q0 -87 -48.5 -153t-123.5 -66q-73 0 -80 64q-52 -64 -106 -64q-48 0 -71.5 28.5t-23.5 70.5q0 81 53.5 158t123.5 77q56 0 74 -47l8 35h63l-65 -242l-4 -20q0 -37 45 -37q48 0 88.5 54.5t40.5 141.5q0 64 -39.5 121t-104.5 93t-135 36q-78 0 -142 -39.5
t-99.5 -114.5t-35.5 -169q0 -75 40 -139q36 -57 103 -94q34 -17 70 -26.5t76 -9.5q26 0 44.5 2t44.5 9q42 11 90 36l12 -20q-90 -51 -193 -51q-149 0 -248.5 88.5t-99.5 214.5q0 138 93 237t243 99q79 0 150 -34q67 -30 112 -93t45 -146zM508 371q0 30 -12 47.5t-31 17.5
q-46 0 -89.5 -57t-43.5 -135q0 -74 63 -74q23 0 49.5 29.5t44.5 77.5q5 13 8.5 25.5t6.5 27t4 20.5v21z" />
    <glyph glyph-name="A" unicode="A" horiz-adv-x="889" 
d="M871 37q0 -5 -25 -23q-25 -14 -47 -14q-12 0 -27 21l-48 96q-34 76 -88.5 180.5t-117.5 208.5l-149 -260l252 2q11 0 14 -8q0 -8 -51 -17l-238 -18q-73 -114 -155 -216t-125 -102q-15 0 -47 27q-29 27 -29 43q0 5 6 8l19 -8q10 -4 28 -8q32 0 114.5 79.5t143.5 172.5
l-50 -1l-42 -1q-46 0 -73 15q-25 16 -25 61q0 9 4 10l18 -11q21 -9 66 -18q24 -4 54.5 -6t76.5 -2q113 173 174 277q-9 18 -28 30.5t-46.5 24t-38.5 22.5q3 9 31 9q79 0 125 -23q17 -8 57.5 -81t98 -194t94.5 -192q30 -55 57 -76q14 0 17 -8z" />
    <glyph glyph-name="B" unicode="B" horiz-adv-x="777" 
d="M725 213q0 -68 -73 -119.5t-182.5 -79.5t-205.5 -28q-201 0 -201 71q0 9 5 9l35 -7l57 -10q0 10 4 93t4 117q0 54 2.5 103.5l5.5 108.5v95q-43 -9 -80 -29l-45 -19q-8 0 -20.5 10.5t-12.5 20.5q0 12 21.5 20.5t70.5 19.5l66 11v19q0 21 8 22q18 0 45 -14.5t27 -21.5l99 6
q136 0 218.5 -21.5t82.5 -101.5q0 -46 -66.5 -88.5t-118.5 -51.5q49 0 96 -9q50 -6 84 -20q74 -24 74 -106zM637 205q0 61 -42.5 88t-129.5 27l-102 -3q-20 0 -31 -2l-36 -7l-26 -5q-6 0 -6 8q0 41 35 41q133 0 205 24t72 95q0 41 -30.5 67.5t-85.5 36.5l-52 8l-56 3l-43 -1
q-15 0 -53 -7l-12 -122l-17 -210q0 -61 -7 -120l-9 -83q78 -14 152 -14q133 0 203.5 44.5t70.5 131.5z" />
    <glyph glyph-name="C" unicode="C" horiz-adv-x="777" 
d="M793 129q0 -15 -87 -51q-40 -17 -91 -33.5t-111.5 -30.5t-109.5 -21t-97 -7q-252 0 -252 162q0 32 11 66t36 76q48 81 121.5 151.5t164.5 119t177 48.5q67 0 107.5 -17t40.5 -49q0 -26 -10 -29l-5 3l-13 10q-13 14 -48 24q-15 4 -41.5 7t-58.5 3q-115 0 -203.5 -65
t-136.5 -157t-48 -165q0 -82 64 -110.5t166 -28.5q106 0 194 25l80 24q33 11 37 13q14 5 35 16l64 30q11 0 14 -14z" />
    <glyph glyph-name="D" unicode="D" horiz-adv-x="777" 
d="M742 373q0 -106 -66.5 -180.5t-166.5 -121.5q-43 -19 -92 -35.5t-103 -29.5l-86 -15l-66 -5q-131 0 -131 69q0 8 8 11l34 -12l33 -9l39 -4l3 264l4 259q-23 -3 -26 -4q-12 -5 -20 -7t-15.5 -4.5t-26.5 -10.5l-46 -18q-10 0 -22 11t-12 24q0 12 60 27l52 11l54 9v19
q0 13 2 14.5t3 1.5q8 4 9 4q17 0 41 -9.5t27 -24.5l36 1l45 1q115 0 209 -21.5t157 -74t63 -140.5zM650 346q0 112 -65 174t-230 62l-67 -3l-56 -5l-12 -160l-13 -197l-10 -182q76 0 139.5 9.5t112.5 28.5q102 39 151.5 109.5t49.5 163.5z" />
    <glyph glyph-name="E" unicode="E" horiz-adv-x="777" 
d="M797 111q0 -9 -19 -18t-58 -23l-78 -28q-69 -20 -175 -40l-94 -12l-84 -4q-258 0 -258 176q0 88 84 198.5t209 187.5t233 77q79 0 123.5 -23.5t44.5 -54.5l-3 -12l-4 -6l-3 -2l-26 11l-23 8l-41 11l-51 8l-56 3q-108 0 -198 -60t-143.5 -151t-53.5 -171q0 -155 246 -155
h14h12h49q18 3 26 4q27 0 55 6q25 7 37 10q90 20 157 46l72 26q6 0 6 -12zM650 332q6 -64 -84 -64l-149 4l-76 1h-43q-17 3 -24 4l-90 2l5 26q80 0 176 9l67 3l102 14q75 9 103 9q12 0 13 -8z" />
    <glyph glyph-name="F" unicode="F" horiz-adv-x="668" 
d="M605 313q0 -11 -11 -28t-30 -17l-55 3l-59 5q-13 0 -39 1t-38 1l-143 7l2 18q103 0 202 10l162 15q9 0 9 -15zM672 586q0 -17 -20 -38t-50 -21l-50 4l-82 9l-111 9l-150 4l-8 -223v-35.5t2 -37.5l7 -131l9 -124q0 -15 -16 -16q-25 0 -50 11q-24 9 -24 32l5 118l2 94
l9 180v60l1 72l-51 -6l-42 -4q-9 0 -18.5 10.5t-9.5 16.5q0 16 24 16h43l56 -4v33q0 9 4 10q23 0 41 -14t18 -31l112 1l89 3l60 1l96 9l88 6q15 0 16 -14z" />
    <glyph glyph-name="G" unicode="G" horiz-adv-x="832" 
d="M803 -57q0 -6 -14 -6t-26.5 10.5t-28.5 43.5l-11 29l-12 42l-27 106q-117 -87 -224 -134.5t-214 -47.5q-69 0 -119 18t-77 55.5t-27 86.5q0 108 95.5 215.5t238.5 178.5t250 71q95 0 135 -28q41 -26 41 -62q0 -14 -6 -17l-30 15q-27 12 -77 24t-106 12q-104 0 -187 -37
q-39 -17 -75.5 -41.5t-65.5 -53.5q-55 -55 -88 -126q-14 -32 -25 -67q-4 -16 -6 -30.5t-2 -31.5q0 -66 61.5 -102.5t143.5 -36.5q32 0 57 4.5t58 17t61.5 25.5t57.5 32q58 36 90.5 65t33.5 42l-7 53l-7 45q0 8 14 11q60 0 66 -25l19 -122l18 -127q6 -48 16 -81z" />
    <glyph glyph-name="H" unicode="H" horiz-adv-x="777" 
d="M703 568l-6 -131l-2 -114q0 -30 -2.5 -93.5t-2.5 -85.5l-4 -123q0 -32 -16 -35q-13 0 -28.5 8.5t-18.5 23.5l1 38l1 42l1 42l1 42l1 81l1 135v19v16v13v11v44l-4 23v17v12q-2 7 -3 17t-4 17l-3 16q-1 3 1.5 5t10.5 3q20 0 48 -11.5t28 -31.5zM598 299q0 -9 -26 -15
l-107 -13l-268 -27q-6 -63 -6 -273q0 -24 -13 -24q-9 0 -26 7.5t-19 18.5l1 83l3 103l2 83l-57 -4q-31 0 -57.5 17.5t-26.5 45.5l2 12l2 11q22 -11 51 -19q27 -6 64 -6l22 2l-4 97l-3 108q0 48 -5 63l-6 23l-4 12l4 2l14 5q24 0 51 -12t27 -31l-11 -144l-5 -123l198 1l122 4
l71 3q9 0 10 -10z" />
    <glyph glyph-name="I" unicode="I" horiz-adv-x="668" 
d="M670 572q0 -9 -16 -16q-3 -1 -18 -3.5t-38 -5.5l-3 -91q0 -35 -8 -94q0 -22 -2 -38.5t-8 -40.5q-10 -42 -31 -93q-33 -90 -114.5 -152.5t-218.5 -62.5q-81 0 -140 33.5t-59 100.5q0 32 15 57t32 25l5 -5l-1 -14l-1 -18q0 -71 66.5 -106.5t131.5 -35.5q108 0 162 48
t75 139q4 21 8 54.5t6 48.5q0 23 2.5 70.5t2.5 61.5v109q-173 -18 -327 -18q-36 0 -62 27q-22 28 -22 50q0 6 10 7l57 -10l133 -19l93 -7l118 -3q0 48 11 51q17 0 43 -12.5t26 -34.5q44 6 64 6q5 0 8 -8z" />
    <glyph glyph-name="J" unicode="J" horiz-adv-x="668" 
d="M484 303l-4 -16q-123 -27 -220 -27q-33 0 -50 14t-17 48q0 5 6 8l33 -8l88 -13q59 -6 164 -6zM670 590q0 -14 -18 -14h-64l-7 -151l-3 -138q0 -58 -11 -109t-37 -112q-41 -101 -119 -163.5t-179 -62.5h-40q-15 3 -31.5 5t-49.5 15q-53 18 -90 54t-37 80q0 19 7 41
q6 24 17 24l16 -31q14 -27 42 -62q26 -29 76 -55t120 -26q105 0 159 57.5t74 170.5q9 56 14 133.5t5 177.5v148l-80 -6l-122 -10l-111 -5q-99 0 -99 66q0 11 7 14l40 -10q49 -9 136 -18l129 -5l100 -2v33q0 12 9 12q15 0 22 -1.5t25 -11t18 -32.5l74 4q5 0 8 -10z" />
    <glyph glyph-name="K" unicode="K" horiz-adv-x="723" 
d="M730 -16q0 -9 -28.5 -23.5t-45.5 -17.5q-19 0 -153 121.5l-210 185.5l-52 -35l-67 -45v-174q0 -10 -20 -10q-11 0 -27.5 8t-17.5 20l4 117l4 193q0 4 -5 76.5t-5 103.5l-5 104l3 11q16 0 49.5 -15t36.5 -28l-5 -95l-2 -90l-10 -186q135 86 222.5 165.5t128.5 135t66 99.5
l20 35l4 6q8 0 23 -30q12 -30 12 -55q0 -24 -56 -80q-26 -25 -61 -54.5l-68 -55.5q-70 -54 -113 -80l230 -205t135 -96q10 0 13 -6z" />
    <glyph glyph-name="L" unicode="L" horiz-adv-x="668" 
d="M662 45q0 -6 -14 -6l-96 -16l-153 -19q-180 -18 -247 -18q-52 0 -83.5 24.5t-31.5 50.5q0 8 8 11l38 -10l34 -7l39 -4l3 131l3 109q0 10 -1 33t-1 36q0 10 -1 36.5t-1 43.5l-3 46q0 18 -5 41l-5 29q0 10 -6 25l-6 24q0 6 12 6q25 0 58 -19t33 -45l-12 -187
q0 -25 -3.5 -80t-3.5 -78l-6 -110l2 -43l241 1l142 6l58 3q8 0 8 -14z" />
    <glyph glyph-name="M" unicode="M" horiz-adv-x="943" 
d="M930 20l-8 -6l-26 -13l-28 -10l-18 -5q-13 0 -20 14l-14 66l-31 211l-29 207q-3 27 -10 28l-7 -10l-20 -33l-233 -453q-6 -15 -19 -16q-15 0 -24 18l-207 451q-24 -136 -45 -229q-31 -138 -59 -207q-27 -76 -53 -110q-23 -35 -40 -38q-21 0 -43.5 28t-22.5 38q0 6 7 6
l15 -3l7 -3q16 0 42 39.5t59 116.5q26 59 62 170q24 77 56 223l-30 53q-6 12 -32 27t-28 24q0 15 12 15q28 0 75.5 -15t54.5 -32l190 -433l9 -20q7 -14 16 -17q6 0 28 37l228 453l7 11q4 5 11 8q11 0 33 -6t23 -11l15 -136q3 -24 7 -61t10.5 -89.5l13.5 -104t12 -73.5
q11 -56 28 -93q2 -5 14 -8.5t12 -8.5z" />
    <glyph glyph-name="N" unicode="N" horiz-adv-x="889" 
d="M787 551l-3 -176l-5 -183q0 -60 -8 -95q-6 -38 -19 -67q-18 -44 -51 -44q-6 0 -26 9q-15 9 -26 20l-40 46l-353 425q-13 -81 -36 -174q-12 -52 -24 -97t-32 -109q-66 -223 -111 -223q-12 0 -24 6l-26 16q-29 20 -32 32q0 5 9 8h7l7 -2l8 -2l8 -2h4q22 0 71 104t94 241.5
t55 225.5q-20 32 -43 56q-19 22 -32 30l-18 13l-5 4l-1 4q0 5 13 8q50 0 84 -11q36 -9 53 -30l389 -512q19 -25 37 -25t30 45q11 49 11 90q0 132 -9.5 220.5t-20.5 119.5q-9 36 -22 56l-8 13l-4 9q0 11 17 11q23 0 51 -17q31 -17 31 -43z" />
    <glyph glyph-name="O" unicode="O" horiz-adv-x="889" 
d="M854 391q0 -100 -73.5 -192t-202.5 -151.5t-269 -59.5q-108 0 -190 43.5t-82 142.5q0 136 84 240t196.5 165.5t161.5 61.5q27 0 27 -14q0 -9 -12 -12l-4 2q-33 0 -65.5 -10.5t-82.5 -39.5q-87 -49 -154 -145t-67 -211l2 -14q0 -51 36 -92q32 -33 94 -56q26 -8 61 -12
l71 -4q50 0 94 9q22 5 46 12.5t50 19.5q90 39 147 111t57 176q0 103 -57 157q-28 26 -65.5 40t-86.5 14q-61 0 -106 -21q-42 -18 -63 -39q-19 -17 -39.5 -43.5t-29.5 -27.5q-16 0 -16 18q0 29 44.5 62.5t115.5 58t145 24.5q108 0 170 -59q30 -28 46.5 -67.5t16.5 -86.5z" />
    <glyph glyph-name="P" unicode="P" horiz-adv-x="723" 
d="M744 479q0 -78 -64.5 -144t-154.5 -109q-46 -20 -84 -30t-68 -10q-48 0 -88.5 22t-40.5 40q0 11 16 14l51 -13l50 -9l51 -4q105 0 172.5 56t67.5 155q0 139 -250 139h-32l-27 -4q-19 0 -29 -2l-51 -8l-44 -6l-3 -144l-3 -152v-23v-15l-2 -13l1 -61l3 -76l4 -102l-6 -5
q-13 0 -47 12t-37 23l10 142l16 239l7 160q-40 -11 -76 -28l-39 -17q-6 0 -18.5 16.5t-12.5 24.5q0 6 11 13l33 10l42 8l60 10v27q0 23 10 26q16 0 33.5 -14t17.5 -33l36 4l50 7l65 2l56 2q74 0 129.5 -6t99.5 -20q85 -26 85 -104z" />
    <glyph glyph-name="Q" unicode="Q" horiz-adv-x="889" 
d="M854 391q0 -69 -41.5 -142t-120 -134t-179.5 -95q-49 -16 -101 -25t-105 -9q-105 0 -187.5 46t-82.5 142q0 136 84 240t196.5 165.5t161.5 61.5q27 0 27 -14q0 -9 -12 -12l-4 2q-33 0 -65.5 -10.5t-82.5 -39.5q-87 -49 -154 -145t-67 -211l2 -14q0 -51 36 -92
q32 -33 94 -56q26 -8 61 -12l71 -4q50 0 94 9q22 5 46 12.5t50 19.5q90 39 147 111t57 176q0 103 -57 157q-28 26 -65.5 40t-86.5 14q-61 0 -106 -21q-42 -18 -63 -39q-19 -17 -39.5 -43.5t-29.5 -27.5q-16 0 -16 18q0 29 44.5 62.5t115.5 58t145 24.5q108 0 170 -59
q30 -28 46.5 -67.5t16.5 -86.5zM854 -59q0 -39 -44 -65t-101 -26l-36 3q-9 1 -21.5 4t-27.5 7l-98 27l-97 24l-49 8l-46 3l-65 -3q-26 -3 -34 -8l-14 -5q-5 0 -8 8q0 11 53 29q58 14 111 14q54 0 174.5 -24.5t157.5 -24.5q50 0 72 11l23 12l20 14q14 12 22 14q8 0 8 -22z
" />
    <glyph glyph-name="R" unicode="R" horiz-adv-x="777" 
d="M756 -12q-3 -5 -6 -8q-6 -7 -21 -21q-28 -22 -43 -22q-8 0 -28 12q-12 8 -27.5 19.5l-47.5 36.5l-122 98l-213 168l-5 5l-4 4l-5 5q-2 7 14 18t31 13l41 -7q33 -6 59 -6q71 0 131 21t93.5 61.5t33.5 85.5q0 55 -73 85t-158 30q-21 0 -43.5 -1t-53.5 -4.5t-92 -17.5
l-10 -299l1 -86l3 -71l4 -99q0 -15 -16 -16q-30 0 -51 12t-21 29l2 60l8 143l11 176l8 141l-42 -13q-21 -6 -41 -16l-42 -16q-8 0 -19.5 9t-11.5 26q0 9 15 15t51 12l88 16v35l3 9q6 4 9 5q11 0 28.5 -10.5t22.5 -30.5q117 17 221 17q56 0 107.5 -5.5t95.5 -16.5
q82 -17 82 -91q0 -72 -60 -122.5t-153 -77.5q-36 -9 -81 -15l-83 -4l124 -105l115 -91l56 -43q69 -48 97 -48l11 -1z" />
    <glyph glyph-name="S" unicode="S" horiz-adv-x="723" 
d="M686 232q0 -73 -78 -137t-192 -103t-201 -39q-43 0 -80 7t-68 22q-59 29 -59 88l1 3l3 3l3 -3l8 -9q15 -18 74.5 -36t162.5 -18l77 3q18 0 32.5 2.5t44.5 8.5q74 12 129 53.5t55 108.5q0 57 -63.5 75t-197.5 30q-45 0 -62 1.5t-44 6.5q-47 9 -89 22q-62 20 -62 77
q0 60 62.5 110t162 83.5t187.5 33.5q74 0 121 -27.5t47 -70.5q0 -20 -10 -23l-31 21q-23 19 -74.5 37t-136.5 18q-75 0 -128.5 -24.5t-86.5 -61.5q-27 -33 -27 -66q0 -38 60 -55q57 -14 187.5 -27t201.5 -36.5t71 -77.5z" />
    <glyph glyph-name="T" unicode="T" horiz-adv-x="723" 
d="M717 586q0 -6 -26 -10q-114 -18 -320 -39l-12 -114l-9 -109l-4 -72q0 -91 11 -156t51 -65h16q13 3 25 5t29 12l46 23l32 20q37 23 55 26q18 0 18 -13q0 -6 -12 -12q-46 -30 -130 -63q-40 -15 -79 -24t-68 -9q-67 0 -67 98q0 9 6 94q3 43 3 78q0 60 13 149.5l19 131.5
l-250 -4q-18 0 -48 27q-28 28 -28 44q7 6 12 7l64 -8l126 -14l64 -5l66 -2q0 40 16 43q41 0 41 -43l133 1l118 5l77 6q12 0 12 -8z" />
    <glyph glyph-name="U" unicode="U" horiz-adv-x="777" 
d="M775 6q0 -11 -37 -29q-18 -9 -30 -13.5t-22 -6.5q-18 0 -36 76l-13 71l-16 98l-29 212q-66 -184 -167 -306t-210 -122q-60 0 -89.5 43t-29.5 108q0 75 9 129l25 162q16 122 16 146v11q0 6 -2 12l-6 13l-3 9q0 12 15 12q29 0 55.5 -15.5t26.5 -37.5q0 -20 -37 -172
q-17 -73 -27 -136q-4 -31 -7 -60.5t-3 -41.5q0 -48 28.5 -79.5t84.5 -31.5q46 0 99 49.5t104 128t82.5 168.5t31.5 156q0 29 8 29q7 0 28 -11q21 -9 30 -18l8 -12l11 -160q0 -24 1 -48t4 -49l10 -76l9 -62q5 -33 6 -35q6 -16 8 -24q15 -56 41 -75l13 -5q9 0 10 -7z" />
    <glyph glyph-name="V" unicode="V" horiz-adv-x="668" 
d="M688 564q0 -27 -34.5 -99t-88 -157t-112.5 -164q-33 -46 -56.5 -74.5t-44.5 -49.5q-34 -34 -49 -34q-9 0 -16 14l-209 516q-21 48 -37 58q-12 10 -30 17q-14 4 -17 16q0 12 31 12q93 0 112 -41l185 -461q18 -45 33 -45l4 1q2 1 4.5 2t7.5 5q32 34 91 133q54 92 101 199
q44 103 44 158l-3 46q-3 20 -8 28l-4 14q0 6 10 6q18 0 52 -37t34 -63z" />
    <glyph glyph-name="W" unicode="W" horiz-adv-x="1000" 
d="M965 516q0 -74 -41.5 -177.5t-99 -192t-113.5 -138.5q-25 -19 -39 -22q-21 0 -47 57l-143 389l-171 -330q-59 -116 -84 -116q-13 0 -20 13q-2 5 -7 20t-7 22l-107 445q-12 56 -27 75.5t-32 29t-19 18.5q0 10 19 10l39 -3q7 -1 18.5 -4t20.5 -7q36 -12 43 -41l108 -462
q0 -12 10 -12l9 12l209 398q9 18 34 18q15 0 27 -30l139 -384q11 -38 33 -38q11 0 25 14q42 39 75 105t53.5 142t20.5 142v11l-1 30l-3 41l-9 50l-5 32q0 12 8 13q48 0 66 -42.5t18 -87.5z" />
    <glyph glyph-name="X" unicode="X" horiz-adv-x="723" 
d="M717 582l-10 -4q-39 0 -97 -39.5t-121 -96.5l-100 -92q140 -171 210 -247q63 -66 102 -78q6 0 9 -3l3 -2q-4 -4 -9 -7.5t-22 -12.5q-31 -14 -51 -14q-21 0 -47 25l-32 34l-49 61l-159 195q-136 -152 -211 -250q-57 -77 -98 -141l-29 -47q-10 0 -24.5 26t-14.5 41
q0 8 84 103l275 287q-165 206 -195 231q-12 11 -18 16t-17 12l-34 22q-30 15 -31 20q0 10 41 10q48 0 92 -12q39 -9 53 -27l156 -221l124 131l64 68l44 44q29 27 45 27q22 0 43 -21.5t24 -37.5z" />
    <glyph glyph-name="Y" unicode="Y" horiz-adv-x="668" 
d="M684 549q0 -48 -61 -146q-30 -48 -71.5 -106t-95.5 -125l-163 -206q-57 -72 -57 -79q0 -8 22 -8q49 0 170 20l136 19q9 0 10 -8q0 -10 -28 -16l-75 -17l-97 -26l-159 -43l-67 -17q-9 0 -19 10q-5 6 -8 17q0 14 16 30l146 146l-146 356q-96 234 -149 244q-8 3 -11 11
q0 14 41 14q59 0 97 -27q9 -6 22 -38l44 -115l41 -109l30 -71l88 -200q57 70 128 183l54 100l44 95q17 42 27 78q5 17 8 32t3 27q0 22 -5 35l-6 21l-3 16q0 7 6 10q22 -3 54 -41q34 -37 34 -66z" />
    <glyph glyph-name="Z" unicode="Z" horiz-adv-x="723" 
d="M730 47q0 -9 -19 -12q-65 -9 -308 -31q-37 0 -93.5 -2.5t-62.5 -2.5l-155 -13q-90 0 -90 45q0 9 11.5 20.5t57.5 40.5l113 78l75 53l87 66l-46 17l-38 17q-5 4 -8 15q0 32 16 35l23 -11l48 -28l36 -21q68 54 147.5 138.5t79.5 114.5q0 16 -29 23q-35 5 -93 5
q-92 0 -154 -11q-74 -9 -122 -22l-48 -11q-17 -4 -24.5 -6t-24.5 -8l-48 -13q-5 0 -8 10q0 92 256 92q16 0 66 -2.5t74 -2.5l64 -2q19 0 36 -1t37.5 -4.5t52.5 -14.5q50 -15 50 -47q0 -63 -271 -262q102 -41 102 -47q0 -5 -10 -8l-52 13l-38 11l-31 12l-132 -91l-85 -58
l-51 -37q-15 -12 -16 -16q0 -16 70 -16l108 -1q17 0 50 -1t48 -1l159 1l116 3l65 4q9 0 9 -10z" />
    <glyph glyph-name="bracketleft" unicode="[" horiz-adv-x="277" 
d="M260 -141h-147v772h147v-24h-104v-722h104v-26z" />
    <glyph glyph-name="backslash" unicode="\" horiz-adv-x="389" 
d="M359 18q0 -7 -10 -18q-8 -11 -19 -14q-5 0 -34 51l-64 137l-56 129l-36 78l-32 60l-61 122l-14 31l-4 19q0 6 8.5 15.5t21.5 12.5h4q7 0 26 -35l63 -145l61 -139q29 -68 90 -187q56 -109 56 -117z" />
    <glyph glyph-name="bracketright" unicode="]" horiz-adv-x="277" 
d="M166 -139h-146v24h101v722h-101v24h146v-770z" />
    <glyph glyph-name="asciicircum" unicode="^" horiz-adv-x="600" 
d="M508 150h-55l-152 301l-153 -301h-54l183 364h47z" />
    <glyph glyph-name="underscore" unicode="_" 
d="M500 -125h-500v51h500v-51z" />
    <glyph glyph-name="grave" unicode="`" horiz-adv-x="223" 
d="M176 379q-21 0 -77 51.5t-56 77.5q0 8 8.5 24.5t18.5 18.5q6 -8 10 -14q13 -18 28 -44q28 -52 72 -89q9 0 9 -13q0 -11 -13 -12z" />
    <glyph glyph-name="a" unicode="a" horiz-adv-x="557" 
d="M521 12q0 -9 -30 -22t-38 -13q-6 0 -12 18l-11 45l-12 58q-43 -47 -111 -75.5t-133 -28.5q-66 0 -98 23q-31 25 -31 63q0 47 41.5 103.5t105.5 94.5t119 38q54 0 93 -48q33 3 51 17l9 -94q6 -61 18 -116t32 -55q6 0 7 -8zM410 156q0 19 -2 27l-9 35q-9 38 -18 42
q-51 27 -94 27q-63 0 -115.5 -52.5t-52.5 -129.5q0 -31 27 -58q27 -24 67 -24q49 0 107 27.5t86 66.5q2 6 3 14t1 25z" />
    <glyph glyph-name="b" unicode="b" 
d="M461 207q0 -57 -48.5 -109t-120 -82t-128.5 -30q-33 0 -59 18q-21 18 -33 65l-8 54l-3 74l3 125l6 187l4 137q0 5 12 8q21 0 39 -12t18 -37q0 -45 -20 -178q-9 -70 -14 -127t-5 -103l26 21l33 24q37 24 82 42q13 5 25.5 8.5t20.5 5.5q27 5 49 5q56 0 88 -26
q33 -24 33 -70zM387 178q0 42 -23.5 68.5t-60.5 26.5q-38 0 -93.5 -26t-105.5 -73q0 -145 140 -145q62 0 102.5 45.5t40.5 103.5z" />
    <glyph glyph-name="c" unicode="c" 
d="M39 84q0 62 48 116.5t122 89.5q35 16 70 25t67 9q86 0 92 -51q0 -14 -8 -17l-45 12q-19 5 -47.5 9t-48.5 4q-71 0 -123.5 -46t-52.5 -114q0 -105 162 -105q48 0 84.5 12t76.5 30l41 18q6 0 7 -8q0 -13 -44 -35q-45 -18 -115.5 -32.5t-123.5 -14.5q-162 0 -162 98z" />
    <glyph glyph-name="d" unicode="d" horiz-adv-x="557" 
d="M428 236q-51 51 -158 51q-63 0 -110 -45.5t-47 -124.5q0 -88 106 -88h29q12 3 25.5 5t47.5 15q61 21 101 47zM428 260l-1 112l-1 89l-7 127l-3 58q0 5 10 8q24 0 45 -11q25 -9 25 -26l-12 -148q0 -59 -6.5 -148t-6.5 -112l1 -75l1 -75l2 -100l-4 -4q-12 0 -30.5 9.5
t-18.5 31.5v76q-64 -35 -134 -57q-18 -6 -34 -9.5t-43.5 -8.5t-62.5 -5q-109 0 -109 86q0 48 39 106t101 95t122 37q37 0 66.5 -12.5t60.5 -43.5z" />
    <glyph glyph-name="e" unicode="e" 
d="M109 150l198 32l32 6q9 3 12 9.5t3 21.5q0 68 -71 68q-46 0 -84 -18.5t-65 -52.5q-25 -34 -25 -66zM39 80q0 30 25.5 85.5t89 99.5t162.5 44q66 0 82 -20q7 -9 12.5 -32.5t5.5 -57.5q10 -3 10 -11q0 -5 -33 -14l-286 -49q0 -109 159 -109q75 0 147 21q19 5 30 8.5t15 5.5
l19 8q6 0 7 -10q0 -9 -5 -12q-64 -25 -148 -40q-75 -11 -132 -11q-82 0 -121 19.5t-39 74.5z" />
    <glyph glyph-name="f" unicode="f" horiz-adv-x="277" 
d="M102 287l-2 121q0 85 34.5 141.5t78.5 83.5t76 27q45 0 45 -31q0 -13 -3 -19.5t-11 -9.5l-27 12q-26 13 -45 13q-30 0 -48.5 -28t-29 -104t-10.5 -210l43 1l54 3l42 2q6 0 6 -6q0 -19 -149 -35l-11 -338l-4 -180l-3 -5l-9 -7q-4 -3 -16 -5q-8 0 -11 14l1 38l1 44l1 46
l-1 237q0 30 -0.5 68t-1.5 84h-55q-13 0 -25 11.5t-12 23.5q0 15 10 16l32 -4z" />
    <glyph glyph-name="g" unicode="g" horiz-adv-x="557" 
d="M418 135l4 29l-1 24q0 8 -5 26q-3 18 -10 24q-6 7 -31 16q-10 3 -28 7.5t-29 6.5l-52 5q-52 0 -105.5 -32t-53.5 -98q0 -61 38 -84q20 -10 40.5 -16t41.5 -6q33 0 66 11q40 10 72.5 32t52.5 55zM416 254q50 34 66 37l2 -6l2 -8l-2 -66v-70v-59q0 -75 -17 -138t-52 -114
q-66 -96 -204 -96q-45 0 -81 18.5t-57.5 44.5t-21.5 43q0 14 16.5 39.5t30.5 28.5l4 -4q0 -66 46 -103t118 -37q85 0 120.5 79.5t35.5 183.5l-1 44l-1 29q-47 -44 -121 -76q-37 -16 -71.5 -24t-65.5 -8q-51 0 -85 25q-32 26 -32 75q0 46 36.5 97t91 86.5t98.5 35.5
q77 0 145 -57z" />
    <glyph glyph-name="h" unicode="h" 
d="M61 2l2 137l3 140l-1 104l-1 115v23v19q-2 12 -2 18l-4 46l-3 42q0 5 8 8q14 0 31.5 -6.5t29.5 -15.5q12 -6 13 -17l-9 -173l-3 -137l-12 -229l24 47l29 49q32 54 75 96q19 19 40.5 31t42.5 12q35 0 51 -27.5t39 -142.5q17 -95 31.5 -124t26 -35t14.5 -13q0 -8 -26 -25
q-24 -18 -40 -18q-12 0 -24 40l-32 122q-20 85 -37 131q-15 47 -36 47q-23 0 -64 -49.5t-73 -112.5q-16 -31 -25.5 -59.5t-15.5 -58.5q-30 0 -52 16z" />
    <glyph glyph-name="i" unicode="i" horiz-adv-x="223" 
d="M70 318q0 6 8 6q12 0 19 -2l32 -10q20 -6 23 -23l-6 -117l-5 -109l1 -36l1 -33q0 -5 -10 -8l-15 1q-3 1 -6.5 1.5t-14 6t-11.5 19.5v189v45q-3 15 -5 32.5t-7 25.5zM92 527q14 0 30 -8q20 -6 21 -13q3 -3 3 -67q0 -27 -7 -27q-33 0 -49 22q-6 15 -6 87q0 6 8 6z" />
    <glyph glyph-name="j" unicode="j" horiz-adv-x="223" 
d="M51 316q0 5 13 8q24 0 54 -11q34 -9 34 -26q0 -98 -15.5 -228.5t-52 -227.5t-98.5 -97q-37 0 -37 22q0 10 7 14l12 4l20 1q30 0 47 11q18 9 30 43l10 40q3 13 4 22.5t1 29.5l4 173v160q0 25 -15.5 40t-17.5 22zM145 506v-24l1 -43q0 -27 -9 -27q-11 0 -16 1t-15 7
q-13 9 -16 18q-6 51 -6 83q0 6 8 6q13 0 30 -8q19 -7 23 -13z" />
    <glyph glyph-name="k" unicode="k" 
d="M113 105q88 43 146 96t96.5 97.5t46.5 47.5q7 0 13.5 -18.5t6.5 -32.5q0 -21 -48.5 -59.5t-117.5 -79.5l129 -107q53 -45 99 -45q-2 -12 -19 -34q-15 -23 -35 -23q-15 0 -62 34l-175 138l-80 -35v-88q0 -7 -6 -10q-13 0 -28 8q-15 6 -15 18v435v14v11l-3 66l-6 67l-4 41
q0 5 6 8q20 0 47 -12.5t27 -26.5l-3 -50l-2 -69q0 -8 -2 -38t-2 -53l-4 -86z" />
    <glyph glyph-name="l" unicode="l" horiz-adv-x="223" 
d="M82 445q0 88 -6 145l-6 56q0 5 10 8q19 0 43.5 -12.5t28.5 -26.5l-6 -191l-7 -262l3 -103l3 -65q0 -5 -12 -8q-51 0 -51 26v433z" />
    <glyph glyph-name="m" unicode="m" horiz-adv-x="723" 
d="M66 20q0 31 6 99t6 102l-1 25l-3 34l-2 23q0 5 10 8q16 0 39 -10q25 -9 25 -28q0 -20 -12 -86l-21 -107q27 62 96.5 132.5t112.5 70.5q45 0 45 -60l-6 -71l-2 -72q30 72 93.5 144.5t115.5 72.5q42 0 55 -53l19 -86l19 -82q2 -12 5 -22t7.5 -19.5t12.5 -9.5t11 -9l-6 -6
l-21 -17q-27 -18 -43 -18q-2 1 -5 3t-6 7l-10 38l-6 34q-31 129 -41 152q-9 33 -38 33q-30 0 -91 -84t-73 -135q-5 -23 -17 -23q-7 0 -22 6q-11 6 -13 15l3 34l6 52l2 63q0 40 -6.5 51t-28.5 11q-39 0 -92 -68q-46 -62 -80 -156q0 -5 -13 -8l-19 6q-8 4 -11 14z" />
    <glyph glyph-name="n" unicode="n" 
d="M68 322q0 5 6 8q16 0 39 -11q23 -9 26 -20l-3 -42l-5 -41q-6 -61 -18 -134q37 72 69 117.5t64 68.5q61 43 98 43q24 0 41 -21q5 -7 11 -23.5t12 -39.5l35 -159q6 -39 28 -39l4 -4q0 -9 -28 -25l-22 -10l-15 -4q-10 0 -23 41l-41 170q-15 63 -47 63q-42 0 -95.5 -71.5
t-84.5 -163.5q-6 -12 -10 -13q-12 0 -26 6t-17 19l2 26l5 55l3 101l-1 46q0 22 -4 38z" />
    <glyph glyph-name="o" unicode="o" 
d="M400 150q0 65 -46.5 94t-103.5 29q-56 0 -102 -35.5t-46 -89.5q0 -57 49 -91t105 -34q60 0 102 36t42 91zM295 303q65 0 116.5 -24.5t51.5 -92.5q0 -38 -25.5 -81.5t-87.5 -78t-151 -34.5q-160 0 -160 119q0 78 78 135t178 57z" />
    <glyph glyph-name="p" unicode="p" horiz-adv-x="557" 
d="M84 313q0 8 10 11q22 0 42 -15.5t20 -37.5l-2 -25l-2 -23q43 44 108 76q32 15 65.5 23t70.5 8q47 0 84.5 -23.5t37.5 -79.5q0 -57 -39.5 -111t-99 -92t-104.5 -38q-41 0 -74 12.5t-33 36.5q0 12 8 12l27 -13q33 -13 82 -13q89 0 123.5 52t34.5 115q0 42 -21.5 73.5
t-73.5 31.5q-88 0 -144 -53q-26 -26 -43 -63q-15 -36 -15 -79l-13 -350l-1 -12l-7 -2q-8 0 -24 8.5t-19 19.5l3 44l4 74l1 106v221l-1 58l-3 30z" />
    <glyph glyph-name="q" unicode="q" horiz-adv-x="557" 
d="M400 227q0 10 -18 28q-8 7 -20 13.5t-27 13.5q-8 3 -26 8t-39 5q-59 0 -108 -52t-49 -120q0 -33 18 -59q15 -18 43 -32q24 -9 51 -9q36 0 78 15t68.5 36t28.5 33v120zM445 -240q0 -9 -7 -10q-9 0 -28 9.5t-19 19.5l5 108l6 138v47q-98 -80 -240 -80q-123 0 -123 100
q0 49 40.5 101.5t103 91.5t112.5 39q54 0 109 -64l2 41q3 9 8 10q16 0 38 -12t23 -26l-12 -140l-15 -185l-1 -104q0 -15 -1 -43t-1 -41z" />
    <glyph glyph-name="r" unicode="r" horiz-adv-x="389" 
d="M82 20l6 57q6 53 6 95l-1 31l-3 44l-2 40q0 16 19 16q10 0 28.5 -9t20.5 -24l-3 -39l-9 -59l-11 -82l2 -2q28 66 125 183q0 18 2 25l12 25q17 27 39 27q4 -2 5 -8q0 -27 17.5 -70t38.5 -48q21 -3 21 -9t-17 -12t-30 -6q-25 0 -48.5 14t-33.5 37l-43 -60l-42 -61
q-21 -32 -33 -59q-5 -11 -9.5 -24t-7.5 -26q0 -15 -10 -16q-36 0 -39 20z" />
    <glyph glyph-name="s" unicode="s" horiz-adv-x="443" 
d="M121 234q0 -20 30 -31l99 -14q38 -3 61.5 -8t45.5 -15q38 -15 38 -51q0 -41 -30 -70q-29 -26 -81 -42.5t-106 -16.5q-63 0 -96 11.5t-33 47.5q0 21 6 21l62 -25q72 -25 121 -25q43 0 67.5 14t24.5 62q0 26 -33 38l-45 9l-56 4q-61 0 -105 16q-36 12 -36 46q0 43 42 70.5
t99 37.5l49 8l48 3q98 0 98 -47q0 -22 -12 -25l-22 12q-20 12 -53 21l-36 7l-41 3l-42 -3q-20 -3 -34 -11q-30 -14 -30 -47z" />
    <glyph glyph-name="t" unicode="t" horiz-adv-x="277" 
d="M166 283l79 3l44 3q5 0 8 -10q0 -27 -129 -27l-5 -74l-3 -73l2 -107q0 -12 -16 -12q-15 0 -27 4.5t-15 15.5l6 66l5 61l2 58v59h-76q-11 0 -18 13l-9 24q0 5 7 8l39 -4l57 -6v41l-1 48l-1 48l-2 55q0 15 10 15q16 0 37 -10t24 -27l-8 -51l-8 -59z" />
    <glyph glyph-name="u" unicode="u" 
d="M68 88l3 42l6 56l5 56l2 51q0 12 8 12q9 0 33 -12t27 -20l-18 -62q-17 -68 -17 -100q0 -66 45 -66q34 0 72.5 28.5t65.5 69.5t44 87q9 31 16 36t42 11l-1 -13l-1 -12q0 -49 21 -138t38 -89q13 0 16 -9l-6 -7l-14 -9l-28 -16q-14 -9 -21 -9q-9 0 -22 43l-21 97l-13 74
q-8 -16 -19.5 -34t-25.5 -37q-24 -31 -58 -62q-65 -56 -118 -56q-61 0 -61 88z" />
    <glyph glyph-name="v" unicode="v" horiz-adv-x="443" 
d="M184 -25q-9 0 -26 30l-42 104q-27 73 -51.5 118t-46.5 58q-5 3 -8 10q0 5 15 8q62 0 80 -12l9 -21l26 -65l51 -129q20 -45 30 -45q15 0 52 49t66.5 116.5t29.5 117.5q0 7 -2 10q3 11 8 14q12 0 29.5 -29.5t19.5 -46.5q0 -32 -50 -98t-113.5 -127.5t-76.5 -61.5z" />
    <glyph glyph-name="w" unicode="w" horiz-adv-x="723" 
d="M20 318q0 6 23 6q66 0 78 -27l78 -207l8 -21l6 -10l8 -4q15 0 80.5 122.5t73.5 125.5q7 0 44 -82q32 -75 60 -130q24 -48 46 -48q29 0 63.5 76t34.5 135l-1 22q0 14 -4 27l-5 37l6 4q19 0 42 -20q25 -19 25 -53q0 -53 -38.5 -119.5t-90.5 -116t-73 -49.5
q-17 0 -40.5 42.5t-55 112t-36.5 70.5q-6 0 -50 -74l-72 -118q-29 -44 -44 -44q-6 0 -49 112.5t-69 158.5q-18 39 -34 55z" />
    <glyph glyph-name="x" unicode="x" 
d="M408 330q12 0 21.5 -12t11.5 -23q-5 -4 -9 -6q-13 -8 -31 -17q-37 -14 -72 -33t-73 -55q60 -75 95.5 -107.5t62 -49.5t27.5 -25q0 -6 -25 -16q-11 -5 -21.5 -8t-19.5 -3q-15 0 -43 29l-63 75l-50 66l-57 -82l-43 -76l-34 -60q-12 -21 -22 -21q-4 2 -6.5 3.5t-13.5 11.5
q-12 14 -12 20q0 26 174 217l-55 57q-27 28 -44 39l-36 26l-27 19l-8 8l-4 6q0 11 51 11t70 -19l92 -106q48 56 96.5 93.5t67.5 37.5z" />
    <glyph glyph-name="y" unicode="y" 
d="M209 -12q-30 83 -80.5 175t-89.5 126l-14 12l-8 7l-1 3q0 13 47 13q56 0 78 -43l115 -238q39 39 93.5 128.5t54.5 166.5q0 6 6 6q11 0 32.5 -20.5t24.5 -38.5q0 -29 -59 -103l-68 -80l-42 -48l-49.5 -54t-66.5 -90q-34 -59 -34 -70q0 -5 8 -8l36 6l96 12l103 5h12l3 -3
q0 -9 -25 -12q-132 -19 -204 -44l-57 -18l-20 -8q-10 0 -19.5 9t-12.5 22q0 13 141 187z" />
    <glyph glyph-name="z" unicode="z" 
d="M115 307q18 9 100 9q122 0 176 -9.5t54 -40.5q0 -28 -24 -46q-18 -13 -118 -64l-105 -54l-58 -30q-14 -7 -17 -15q0 -14 59 -21l62 -5l72 -2l34 1q24 0 51 4l72 5q6 0 6 -6l-10 -5q-13 -6 -31 -12q-122 -30 -282 -30q-55 0 -90 5.5t-35 24.5q0 9 41 41l77 46l110 69
l39 25l34 28q33 27 33 48q0 20 -43 20q-50 0 -90 -11q-15 -3 -29 -5q-11 -3 -20 -6l-52 -15l-59 -16q-9 0 -9 12q0 9 21 30t31 25z" />
    <glyph glyph-name="braceleft" unicode="{" horiz-adv-x="277" 
d="M63 246q44 10 60 35t16 69v156q0 62 27.5 93.5t104.5 31.5v-12q-50 -7 -69.5 -36t-19.5 -73v-153q0 -48 -15 -74t-60 -37q46 -12 60.5 -39.5t14.5 -77.5v-150q0 -46 19 -71.5t70 -34.5v-14q-72 0 -104 30q-28 31 -28 93v161q0 46 -15 67t-61 36z" />
    <glyph glyph-name="bar" unicode="|" horiz-adv-x="223" 
d="M86 -14v668h51v-668h-51z" />
    <glyph glyph-name="braceright" unicode="}" horiz-adv-x="277" 
d="M217 246q-30 -6 -48 -21q-14 -10 -23 -32q-5 -22 -5 -50v-161q0 -64 -29 -93q-27 -30 -104 -30v14q50 6 69 32.5t19 73.5v150q0 28 3 46.5t11 32.5q15 26 62 36q-45 12 -60 39l-12 31l-4 43v153q0 44 -18 72t-70 37v12q74 0 103 -32q30 -30 30 -93v-156q0 -45 14.5 -67.5
t61.5 -36.5z" />
    <glyph glyph-name="asciitilde" unicode="~" horiz-adv-x="600" 
d="M496 316l35 -37q-30 -47 -62.5 -66.5t-62.5 -19.5q-25 0 -43 6l-28 12l-26 14l-62 28q-21 9 -50 9q-58 0 -92 -73l-37 38q45 86 125 86q18 0 27 -1t25 -7l34 -12l26 -12l56 -25q29 -12 45 -12q42 0 90 72z" />
    <glyph glyph-name="nonbreakingspace" unicode="&#xa0;" 
 />
    <glyph glyph-name="exclamdown" unicode="&#xa1;" horiz-adv-x="277" 
d="M166 324l2 -68q0 -24 -12 -22q-47 8 -51 16l2 2l-2 61l-1 15q0 24 11 24l18 -3q12 -3 22 -9t11 -16zM158 152l-1 -39l-1 -39l-2 -115l3 -127q0 -23 1 -38.5t2 -29.5q0 -26 -21 -26t-37 17.5t-16 45.5q25 173 25 387q0 6 8 7q12 0 25 -14q14 -12 14 -29z" />
    <glyph glyph-name="cent" unicode="&#xa2;" horiz-adv-x="557" 
d="M229 -14q-165 0 -165 98q0 51 33 98.5t89.5 81.5t129.5 52l5 29q3 11 3.5 14.5t5.5 11t22 10.5l2 -4l-3 -14l-7 -23l-4 -18l31 2q92 0 92 -51q0 -18 -8 -19l-37 12q-47 13 -90 13l-68 -259q14 0 18 -2l23 -2q44 0 83 13l37 12q10 3 18 6.5t21 10.5q36 18 42 18q5 0 8 -8
q0 -11 -45 -34q-44 -18 -103 -33l-59 -11l-51 -4l-14 -54q-3 -12 -19 -12l-4 2l-2 2zM307 279q-41 0 -81.5 -21.5t-63.5 -55.5t-23 -81q0 -79 99 -100z" />
    <glyph glyph-name="sterling" unicode="&#xa3;" horiz-adv-x="557" 
d="M150 313q-3 22 -4 34t-1 40q0 67 38.5 115t97.5 73q28 11 62 19q16 4 30.5 6t30.5 2q56 0 85 -32.5t29 -79.5q0 -20 -9 -39.5t-23 -20.5q-15 0 -25 44q-6 44 -23.5 70t-70.5 26q-45 0 -83 -30q-30 -26 -50 -78l-12 -53q-4 -26 -4.5 -37t-0.5 -18l4 -45h189q12 0 12 -10
q0 -7 -14 -13q-9 -3 -72 -11l-109 -7l13 -86q0 -43 -30.5 -78.5t-68.5 -60.5l79 -5l30 -1l38 -1l71 -1h22l18 1l19 1h19h14l13 2l32 1l43 1l4 -6q0 -6 -6 -11.5t-170 -23.5q-138 -14 -246 -14q-37 0 -60.5 17t-23.5 38q0 8 18 8q37 0 66 13q29 15 48.5 36.5t19.5 40.5
q0 41 -27 127l-76 -4q-10 0 -21 21q-10 23 -10 31q0 5 13 8l28 -4z" />
    <glyph glyph-name="currency" unicode="&#xa4;" horiz-adv-x="557" 
d="M527 260l-3 -42l-10 -44q-12 -42 -41 -74l54 -53l-39 -39l-54 56q-64 -52 -155 -52q-93 0 -154 52l-57 -56l-37 39l53 53q-26 31 -40 70q-13 42 -13 90q0 90 53 152l-53 55l37 39l57 -57q70 59 154 59q83 0 155 -59l54 57l39 -39l-54 -55q54 -60 54 -152zM473 260
q0 53 -26 98t-70 72t-98 27q-79 0 -135 -58.5t-56 -138.5q0 -81 56 -140t135 -59q83 0 138.5 59t55.5 140z" />
    <glyph glyph-name="yen" unicode="&#xa5;" horiz-adv-x="557" 
d="M152 240q-74 142 -107 195q-36 62 -70 100q-11 11 -26.5 15.5t-16.5 10.5q0 9 23 9q59 0 86 -8q30 -6 45 -41l141 -281h152q25 58 51.5 144t26.5 126q0 29 -5 42q-3 15 -9 29l-5 13q0 5 5 8q8 0 29 -14q21 -12 38 -35q10 -12 15.5 -21t5.5 -17q0 -7 -1 -11t-7 -20
l-27 -66q-32 -75 -84 -178h94q11 0 14 -10q0 -19 -26 -19h-98l-58 -109h168q11 0 14 -8q0 -22 -28 -22h-172l-88 -150l-23 -38l-18 -27q-17 -23 -35 -23q-20 0 -32 6.5t-15 14.5q0 5 14 8q15 0 42.5 30.5t98.5 141.5l-22 37h-187q-15 0 -16 10q0 20 27 20h161l-59 109h-113
q-15 0 -16 10q0 19 27 19h86zM365 211h-127l55 -109h12l33 55z" />
    <glyph glyph-name="brokenbar" unicode="&#xa6;" horiz-adv-x="143" 
d="M86 -14v248h51v-248h-51zM86 406v248h51v-248h-51z" />
    <glyph glyph-name="section" unicode="&#xa7;" horiz-adv-x="557" 
d="M414 254q0 51 -43.5 80t-93.5 29q-56 0 -92.5 -33.5t-36.5 -85.5q0 -45 28 -79q29 -32 92 -32q58 0 102 30t44 91zM439 543q0 -19 -6 -42q-4 -21 -17 -22q-3 5 -5 9q-10 17 -14 27q-12 37 -32 61q-18 24 -56 24q-43 0 -80.5 -26.5t-37.5 -61.5q0 -39 34 -60
q26 -16 106 -47q73 -26 113 -54q38 -24 38 -70q0 -58 -40.5 -93t-97.5 -63q55 -9 85 -35t30 -63q0 -57 -70 -102q-31 -20 -67.5 -33t-71.5 -13q-72 0 -122 23t-50 75q0 27 18 47.5t27 20.5q6 0 6 -12q0 -62 42.5 -93.5t90.5 -31.5q53 0 91 26.5t38 73.5q0 57 -38 75.5
t-99 18.5q-76 0 -128 24t-52 95q0 66 59 112q28 21 61 35q7 3 25 8t37 5q-65 21 -96 42t-31 56q0 38 28.5 72t77 54t101.5 20q103 0 103 -82z" />
    <glyph glyph-name="dieresis" unicode="&#xa8;" horiz-adv-x="777" 
d="M797 111q0 -9 -19 -18t-58 -23l-78 -28q-69 -20 -175 -40l-94 -12l-84 -4q-258 0 -258 176q0 88 84 198.5t209 187.5t233 77q79 0 123.5 -23.5t44.5 -54.5l-3 -12l-4 -6l-3 -2l-26 11l-23 8l-41 11l-51 8l-56 3q-108 0 -198 -60t-143.5 -151t-53.5 -171q0 -155 246 -155
h14h12h49q18 3 26 4q27 0 55 6q25 7 37 10q90 20 157 46l72 26q6 0 6 -12zM650 332q6 -64 -84 -64l-149 4l-76 1h-43q-17 3 -24 4l-90 2l5 26q80 0 176 9l67 3l102 14q75 9 103 9q12 0 13 -8zM399 807q0 21 10 21q14 0 31 -6.5t21 -16.5v-55q0 -39 -9 -39q-11 0 -29.5 6
t-21.5 18zM539 807l-2 8q3 12 10 13q13 0 31.5 -6t21.5 -17v-76q0 -18 -10 -18t-28.5 6t-20.5 18z" />
    <glyph glyph-name="copyright" unicode="&#xa9;" horiz-adv-x="725" 
d="M504 225h14l-16 -65q-2 -11 -23 -15l-49 -12l-49 -4q-82 0 -138.5 45t-56.5 139q0 64 53.5 120.5t147.5 56.5q55 0 95 -17q17 -6 20 -18v-64h-12q0 80 -107 80q-68 0 -105 -43q-16 -19 -29 -49q-9 -27 -9 -63q0 -74 38.5 -122t112.5 -48q79 0 113 79zM43 305
q0 84 42 158.5t116.5 118t161.5 43.5t159 -42t117 -119q21 -38 32 -77.5t11 -81.5q0 -85 -42.5 -158t-117.5 -118q-38 -21 -77.5 -32t-81.5 -11q-129 0 -224.5 93t-95.5 226zM88 305q0 -76 37.5 -140.5t101.5 -105.5q29 -18 65 -28q16 -4 34.5 -7t36.5 -3q71 0 134 38
q32 20 55.5 43.5t45.5 59.5q9 17 15 30.5t14 38.5q4 16 7 36t3 38q0 57 -22 110t-58.5 90.5t-88.5 60t-105 22.5q-72 0 -135.5 -38t-101.5 -103.5t-38 -141.5z" />
    <glyph glyph-name="ordfeminine" unicode="&#xaa;" horiz-adv-x="823" 
d="M31 182q0 88 84 198.5t209 187.5t233 77q79 0 123.5 -23.5t44.5 -54.5l-3 -12l-4 -6l-3 -2l-26 11l-23 8l-41 11l-51 8l-56 3q-108 0 -198 -60t-143.5 -151t-53.5 -171q0 -155 246 -155h14h12h49q18 3 26 4q27 0 55 6q25 7 37 10q90 20 157 46l72 26q6 0 6 -12
q0 -9 -19 -18t-58 -23l-78 -28q-69 -20 -175 -40l-94 -12l-84 -4q-258 0 -258 176zM184 299l5 26q80 0 176 9l67 3l102 14q75 9 103 9q12 0 13 -8q6 -64 -84 -64l-149 4l-76 1h-43q-17 3 -24 4z" />
    <glyph glyph-name="guillemotleft" unicode="&#xab;" horiz-adv-x="443" 
d="M230 174l147 -141l-27 -23l-168 166l181 144l24 -23zM94 174l144 -141l-25 -23l-170 166l182 144l23 -23z" />
    <glyph glyph-name="logicalnot" unicode="&#xac;" horiz-adv-x="600" 
d="M504 107v217h-457v51h506v-268h-49z" />
    <glyph glyph-name="registered" unicode="&#xae;" horiz-adv-x="725" 
d="M359 148v-11h-144v11q25 5 36 13.5t11 35.5v221q0 25 -9 34t-38 15v12h156q45 0 77 -21.5t32 -61.5q0 -35 -19.5 -60.5t-56.5 -38.5l55 -74q45 -63 76 -78v-8h-43q-18 0 -36.5 20t-90.5 132h-54v-92q0 -24 9.5 -33.5t38.5 -15.5zM311 461v-154h46q73 0 73 86q0 68 -76 68
h-43zM43 305q0 84 42 158.5t116.5 118t161.5 43.5t159 -42t117 -119q21 -38 32 -77.5t11 -81.5q0 -85 -42.5 -158t-117.5 -118q-38 -21 -77.5 -32t-81.5 -11q-129 0 -224.5 93t-95.5 226zM363 21q71 0 134 38q32 20 55.5 43.5t45.5 59.5q9 17 15 30.5t14 38.5q4 16 7 36
t3 38q0 57 -22 110t-58.5 90.5t-88.5 60t-105 22.5q-72 0 -135.5 -38t-101.5 -103.5t-38 -141.5t37.5 -140.5t101.5 -105.5q29 -18 65 -28q16 -4 34.5 -7t36.5 -3z" />
    <glyph glyph-name="macron" unicode="&#xaf;" horiz-adv-x="668" 
d="M670 572q0 -9 -16 -16q-3 -1 -18 -3.5t-38 -5.5l-3 -91q0 -35 -8 -94q0 -22 -2 -38.5t-8 -40.5q-10 -42 -31 -93q-33 -90 -114.5 -152.5t-218.5 -62.5q-81 0 -140 33.5t-59 100.5q0 32 15 57t32 25l5 -5l-1 -14l-1 -18q0 -71 66.5 -106.5t131.5 -35.5q108 0 162 48
t75 139q4 21 8 54.5t6 48.5q0 23 2.5 70.5t2.5 61.5v109q-173 -18 -327 -18q-36 0 -62 27q-22 28 -22 50q0 6 10 7l57 -10l133 -19l93 -7l118 -3q0 48 11 51q17 0 43 -12.5t26 -34.5q44 6 64 6q5 0 8 -8zM274 807q0 21 10 21q14 0 31 -6.5t21 -16.5v-55q0 -39 -9 -39
q-11 0 -29.5 6t-21.5 18zM414 807l-2 8q3 12 10 13q13 0 31.5 -6t21.5 -17v-76q0 -18 -10 -18t-28.5 6t-20.5 18z" />
    <glyph glyph-name="plusminus" unicode="&#xb1;" horiz-adv-x="600" 
d="M275 322v184h49v-184h229v-49h-229v-183h-49v183h-228v49h228zM47 0v51h506v-51h-506z" />
    <glyph glyph-name="twosuperior" unicode="&#xb2;" horiz-adv-x="361" 
d="M39 404q0 57 54 90t116 33q117 0 117 -86q0 -46 -46 -83t-117 -75q-64 -33 -67 -39l6 -4l12 -2q19 0 23 -2l58 2l51 1l50 1l44 2l4 -4q0 -12 -87.5 -21.5t-203.5 -9.5q-18 0 -26 7q-6 8 -9 18l5 4l18 10q43 19 82.5 39t73.5 41q69 42 69 104q0 22 -11 41q-9 19 -28 29
q-8 4 -18 7t-20 3q-32 0 -62.5 -30.5t-30.5 -65.5q0 -39 49 -39l3 -4q-1 -4 -18 -12q-13 -5 -30 -7q-29 0 -45 16t-16 36z" />
    <glyph glyph-name="threesuperior" unicode="&#xb3;" horiz-adv-x="361" 
d="M199 373h28t26 -2q18 0 34 -9q26 -12 26 -48q0 -54 -77 -100t-146 -46q-28 0 -52.5 12.5t-27.5 30.5l1 11l3 7l35 -13q39 -13 74 -13q50 0 91.5 30t41.5 78q0 50 -67 50l-30 -3l-59 -10q-8 5 -14 23l2 10q170 0 170 80q0 21 -16.5 35t-42.5 14q-36 0 -61.5 -16t-44.5 -41
q-15 -20 -27 -23q-21 0 -21 23q0 5 12 20q18 16 38.5 27.5t45.5 17.5t56 9q44 0 78 -17.5t34 -48.5q0 -57 -110 -88z" />
    <glyph glyph-name="acute" unicode="&#xb4;" horiz-adv-x="223" 
d="M176 551q9 0 18 -14.5t9 -28.5q0 -28 -55 -78.5t-78 -50.5q-2 1 -4.5 2t-5.5 4l-3 3l-2 3q3 12 11 13q34 27 67 86.5t43 60.5z" />
    <glyph glyph-name="mu" unicode="&#xb5;" 
d="M68 88l8 81l6 67l2 57q0 12 8 12q9 0 33 -12t27 -20l-18 -62q-17 -68 -17 -100q0 -66 45 -66q34 0 72.5 28.5t65.5 69.5t44 87q9 30 17 35.5t47 11.5l-1 -13l-1 -12q0 -57 19.5 -142t37.5 -85q12 0 12 -9l-6 -7l-14 -9l-28 -16q-14 -9 -21 -9q-9 0 -22 43l-21 97l-13 74
q-8 -16 -19.5 -34t-25.5 -37q-24 -31 -58 -62q-65 -56 -118 -56q-13 0 -24 4l-11 -141l-3 -95q0 -18 -13 -18q-9 0 -32 15q-18 15 -19 28q1 2 2 4.5t4 6.5q4 1 11 13l5 35l13 128q6 62 6 108z" />
    <glyph glyph-name="paragraph" unicode="&#xb6;" horiz-adv-x="600" 
d="M256 234v346q-69 0 -102 -36q-31 -37 -31 -134q0 -88 38.5 -132t94.5 -44zM365 -107v687h-58v-687h-137v25l41 3q11 2 15.5 3.5t11.5 4.5q18 8 18 34v240q-105 0 -156 57t-51 152q0 70 21 112.5t66 64.5t124 22h240v-23q-51 0 -71 -16q-15 -12 -15 -54v-555q0 -23 18 -34
q12 -5 68 -11v-25h-135z" />
    <glyph glyph-name="periodcentered" unicode="&#xb7;" horiz-adv-x="277" 
d="M84 219q0 21 18 37.5t39 16.5t37.5 -15.5t16.5 -38.5t-15.5 -40t-38.5 -17q-21 0 -40 16q-17 17 -17 41z" />
    <glyph glyph-name="periodcentered" unicode="&#x2219;" horiz-adv-x="277" 
d="M84 219q0 21 18 37.5t39 16.5t37.5 -15.5t16.5 -38.5t-15.5 -40t-38.5 -17q-21 0 -40 16q-17 17 -17 41z" />
    <glyph glyph-name="cedilla" unicode="&#xb8;" 
d="M109 150l198 32l32 6q9 3 12 9.5t3 21.5q0 68 -71 68q-46 0 -84 -18.5t-65 -52.5q-25 -34 -25 -66zM39 80q0 30 25.5 85.5t89 99.5t162.5 44q66 0 82 -20q7 -9 12.5 -32.5t5.5 -57.5q10 -3 10 -11q0 -5 -33 -14l-286 -49q0 -109 159 -109q75 0 147 21q19 5 30 8.5t15 5.5
l19 8q6 0 7 -10q0 -9 -5 -12q-64 -25 -148 -40q-75 -11 -132 -11q-82 0 -121 19.5t-39 74.5zM149 508q0 21 10 21q14 0 31 -6.5t21 -16.5v-55q0 -39 -9 -39q-11 0 -29.5 6t-21.5 18zM289 508l-2 8q3 12 10 13q13 0 31.5 -6t21.5 -17v-76q0 -18 -10 -18t-28.5 6t-20.5 18z
" />
    <glyph glyph-name="onesuperior" unicode="&#xb9;" horiz-adv-x="361" 
d="M219 482l-68 -51l-46 -32q-18 -12 -29 -12q-10 0 -24 13l-11 11l-4 5l12 6l31 11l33 15l34.5 16.5t37.5 20.5l36 21q10 7 15 10q12 8 18 13l8 4q5 0 8 -8v-5q-14 -51 -14 -252v-27l1 -20l1 -10l2 -4l-6 -4l-28 6q-21 6 -21 14q0 22 2 72.5t2 54.5z" />
    <glyph glyph-name="ordmasculine" unicode="&#xba;" horiz-adv-x="487" 
d="M141 164q0 9 8 12t32 3h11h22h18q12 2 18 2.5t23.5 3t48.5 9.5q15 3 27 -6t12 -24q0 -14 -20 -17l-38 -3l-35 -4l-24 -1q-43 0 -72 6.5t-31 18.5zM15 107q0 62 48 116.5t122 89.5q35 16 70 25t67 9q86 0 92 -51q0 -14 -8 -17l-45 12q-19 5 -47.5 9t-48.5 4
q-71 0 -123.5 -46t-52.5 -114q0 -105 162 -105q48 0 84.5 12t76.5 30l41 18q6 0 7 -8q0 -13 -44 -35q-45 -18 -115.5 -32.5t-123.5 -14.5q-162 0 -162 98z" />
    <glyph glyph-name="guillemotright" unicode="&#xbb;" horiz-adv-x="443" 
d="M195 33l157 123l-145 141l25 23l168 -166l-179 -144zM59 33l154 123l-145 141l26 23l170 -166l-182 -144z" />
    <glyph glyph-name="onequarter" unicode="&#xbc;" horiz-adv-x="834" 
d="M184 482l-68 -51l-46 -32q-18 -12 -29 -12q-7 0 -25 12q-11 10 -14 17l12 6q21 6 44 15.5t48 22.5q43 24 113 69l8 4l5 -6q0 -62 -7 -135l-3 -71l-3 -53l3 -43l3 -18l-6 -4l-30 6q-21 6 -21 14l6 87l6 79zM227 -21l67 132l71 157l63 145l58 134q15 33 26 33q13 0 21 -8
q9 -6 10 -17q0 -12 -10 -32l-62 -131l-81 -174l-56 -122l-66 -139q-9 -20 -16 -23q-9 0 -21 12q-7 9 -10 21zM670 90l-74 -4l-53 -2q-64 0 -64 29q0 6 13 32l102 173l5 6l8 4l6 -3l12 -9q9 -6 10 -17q0 -12 -8 -20l-102 -127q-5 -6 -7.5 -12t-3.5 -9q0 -18 127 -18l31 2
l4 119q0 5 10 8q10 0 21 -6t12 -15l-1 -17l-1 -21l-2 -33v-14v-11l-2 -12l43 3l29 3l3 -2l3 -2q0 -8 -20 -17q-20 -6 -60 -6l2 -90q0 -9 -8 -10q-39 8 -39 14l2 36z" />
    <glyph glyph-name="onehalf" unicode="&#xbd;" horiz-adv-x="834" 
d="M184 482l-53 -40l-60 -43q-20 -12 -30 -12q-6 0 -23 12l-16 17l14 6q21 6 44 15.5t48 22.5q43 24 113 69l6 4q6 0 7 -8v-5l-7 -45l-3 -60l-3 -147v-27l1 -20l1 -10l2 -4l-6 -4l-28 6q-21 6 -21 14q0 22 2 72.5t2 54.5zM232 -21l68 137l66 145l52 122l68 162q15 32 26 35
q12 0 20 -7.5t11 -19.5q0 -12 -12 -30l-56 -126l-69 -152l-68 -147l-32 -73l-33 -68q-9 -20 -17 -23q-8 0 -17 9t-12 22zM479 191q0 57 54 90t115 33q29 0 47 -5q17 -3 37 -15q34 -20 34 -65q0 -36 -31.5 -67.5t-64.5 -53.5l-35 -20l-48 -25q-51 -27 -52 -32l8 -4l14 -2
q13 0 17 -2l61 2l83 3l61 3l4 -6q0 -12 -83 -21l-90 -6l-118 -2q-15 0 -26 7q-8 7 -11 17l6 5l19 10q48 17 80 35q18 9 27 14l47 28q69 42 69 105q0 34 -20 57t-54 23q-31 0 -62.5 -29.5t-31.5 -66.5t49 -37l4 -6q0 -6 -16 -12.5t-33 -6.5q-26 0 -44 15q-16 16 -16 37z" />
    <glyph glyph-name="threequarters" unicode="&#xbe;" horiz-adv-x="834" 
d="M270 -21q33 59 66 129l73 160l73 166l49 113q12 33 26 33q13 0 21 -8q10 -7 10 -17q0 -5 -12 -32l-66 -140l-49 -108l-56 -122l-92 -196q-8 -20 -18 -23q-7 0 -19 12q-7 9 -10 21zM713 90l-73 -4l-52 -2q-65 0 -65 29l14 32l102 173l5 6l8 4q6 0 14.5 -8.5t11.5 -20.5
q0 -11 -6 -20l-102 -127l-13 -21q0 -18 129 -18l31 2l4 119q0 5 9 8q11 0 22 -6t12 -15l-4 -47l-4 -61l43 3l31 3l3 -2l3 -2q0 -8 -20 -17q-20 -6 -60 -6v-90q0 -7 -6 -10q-39 6 -39 14l1 38zM209 373h28t26 -2q12 0 18 -1.5t17 -7.5q26 -12 26 -48q0 -34 -36.5 -68.5
t-88.5 -55.5l-52 -16q-24 -6 -47 -6q-26 0 -51 12t-29 31q0 18 5 18l33 -13l29 -8q21 -4 28.5 -4.5t17.5 -0.5q32 0 64.5 12t51.5 37.5t19 58.5q0 50 -69 50q-26 0 -90 -13q-5 4 -11 23l2 10q170 0 170 80q0 21 -16.5 35t-42.5 14q-38 0 -61 -15q-19 -14 -44 -40
q-21 -24 -28 -25q-16 0 -23 19l4 10q0 6 7 14q62 54 141 54q45 0 79 -17.5t34 -48.5q0 -29 -27 -52q-27 -21 -84 -36z" />
    <glyph glyph-name="questiondown" unicode="&#xbf;" horiz-adv-x="223" 
d="M70 318q0 6 8 6q12 0 19 -2l32 -10q20 -6 23 -23l-6 -117l-5 -109l1 -36l1 -33q0 -5 -10 -8l-15 1q-3 1 -6.5 1.5t-14 6t-11.5 19.5v189v45q-3 15 -5 32.5t-7 25.5zM12 508q0 21 10 21q14 0 31 -6.5t21 -16.5v-55q0 -39 -9 -39q-11 0 -29.5 6t-21.5 18zM152 508l-2 8
q3 12 10 13q13 0 31.5 -6t21.5 -17v-76q0 -18 -10 -18t-28.5 6t-20.5 18z" />
    <glyph glyph-name="Agrave" unicode="&#xc0;" horiz-adv-x="889" 
d="M871 37q0 -5 -25 -23q-25 -14 -47 -14q-12 0 -27 21l-48 96q-34 76 -88.5 180.5t-117.5 208.5l-149 -260l252 2q11 0 14 -8q0 -8 -51 -17l-238 -18q-73 -114 -155 -216t-125 -102q-15 0 -47 27q-29 27 -29 43q0 5 6 8l19 -8q10 -4 28 -8q32 0 114.5 79.5t143.5 172.5
l-50 -1l-42 -1q-46 0 -73 15q-25 16 -25 61q0 9 4 10l18 -11q21 -9 66 -18q24 -4 54.5 -6t76.5 -2q113 173 174 277q-9 18 -28 30.5t-46.5 24t-38.5 22.5q3 9 31 9q79 0 125 -23q17 -8 57.5 -81t98 -194t94.5 -192q30 -55 57 -76q14 0 17 -8z" />
    <glyph glyph-name="Agrave" unicode="&#x410;" horiz-adv-x="889" 
d="M871 37q0 -5 -25 -23q-25 -14 -47 -14q-12 0 -27 21l-48 96q-34 76 -88.5 180.5t-117.5 208.5l-149 -260l252 2q11 0 14 -8q0 -8 -51 -17l-238 -18q-73 -114 -155 -216t-125 -102q-15 0 -47 27q-29 27 -29 43q0 5 6 8l19 -8q10 -4 28 -8q32 0 114.5 79.5t143.5 172.5
l-50 -1l-42 -1q-46 0 -73 15q-25 16 -25 61q0 9 4 10l18 -11q21 -9 66 -18q24 -4 54.5 -6t76.5 -2q113 173 174 277q-9 18 -28 30.5t-46.5 24t-38.5 22.5q3 9 31 9q79 0 125 -23q17 -8 57.5 -81t98 -194t94.5 -192q30 -55 57 -76q14 0 17 -8z" />
    <glyph glyph-name="Aacute" unicode="&#xc1;" horiz-adv-x="777" 
d="M456 606l60 1l96 9l88 6q15 0 16 -14q0 -17 -20 -38t-50 -21l-50 4l-82 9l-111 9l-150 4q0 -7 -1 -22t-4 -36l-4 -61l-17 -210q0 -61 -7 -120l-9 -83q78 -14 152 -14q133 0 203.5 44.5t70.5 131.5q0 61 -42.5 88t-129.5 27l-102 -3q-20 0 -31 -2l-36 -7l-26 -5q-6 0 -6 8
q0 41 35 41q48 0 66 -3t47 -3h59q54 0 97 -7q47 -6 83 -20q74 -24 74 -106q0 -68 -73 -119.5t-182.5 -79.5t-205.5 -28q-201 0 -201 71q0 9 5 9l35 -7l57 -10q0 10 4 93t4 117q0 54 2.5 103.5l5.5 108.5v95q-43 -9 -80 -29l-45 -19q-8 0 -20.5 10.5t-12.5 20.5
q0 12 21.5 20.5t70.5 19.5l66 11v19q0 21 8 22q18 0 45 -14.5t27 -21.5h29h24h21h17h15h13h41z" />
    <glyph glyph-name="Aacute" unicode="&#x411;" horiz-adv-x="777" 
d="M456 606l60 1l96 9l88 6q15 0 16 -14q0 -17 -20 -38t-50 -21l-50 4l-82 9l-111 9l-150 4q0 -7 -1 -22t-4 -36l-4 -61l-17 -210q0 -61 -7 -120l-9 -83q78 -14 152 -14q133 0 203.5 44.5t70.5 131.5q0 61 -42.5 88t-129.5 27l-102 -3q-20 0 -31 -2l-36 -7l-26 -5q-6 0 -6 8
q0 41 35 41q48 0 66 -3t47 -3h59q54 0 97 -7q47 -6 83 -20q74 -24 74 -106q0 -68 -73 -119.5t-182.5 -79.5t-205.5 -28q-201 0 -201 71q0 9 5 9l35 -7l57 -10q0 10 4 93t4 117q0 54 2.5 103.5l5.5 108.5v95q-43 -9 -80 -29l-45 -19q-8 0 -20.5 10.5t-12.5 20.5
q0 12 21.5 20.5t70.5 19.5l66 11v19q0 21 8 22q18 0 45 -14.5t27 -21.5h29h24h21h17h15h13h41z" />
    <glyph glyph-name="Acircumflex" unicode="&#xc2;" horiz-adv-x="777" 
d="M725 213q0 -68 -73 -119.5t-182.5 -79.5t-205.5 -28q-201 0 -201 71q0 9 5 9l35 -7l57 -10q0 10 4 93t4 117q0 54 2.5 103.5l5.5 108.5v95q-43 -9 -80 -29l-45 -19q-8 0 -20.5 10.5t-12.5 20.5q0 12 21.5 20.5t70.5 19.5l66 11v19q0 21 8 22q18 0 45 -14.5t27 -21.5l99 6
q136 0 218.5 -21.5t82.5 -101.5q0 -46 -66.5 -88.5t-118.5 -51.5q49 0 96 -9q50 -6 84 -20q74 -24 74 -106zM637 205q0 61 -42.5 88t-129.5 27l-102 -3q-20 0 -31 -2l-36 -7l-26 -5q-6 0 -6 8q0 41 35 41q133 0 205 24t72 95q0 41 -30.5 67.5t-85.5 36.5l-52 8l-56 3l-43 -1
q-15 0 -53 -7l-12 -122l-17 -210q0 -61 -7 -120l-9 -83q78 -14 152 -14q133 0 203.5 44.5t70.5 131.5z" />
    <glyph glyph-name="Acircumflex" unicode="&#x412;" horiz-adv-x="777" 
d="M725 213q0 -68 -73 -119.5t-182.5 -79.5t-205.5 -28q-201 0 -201 71q0 9 5 9l35 -7l57 -10q0 10 4 93t4 117q0 54 2.5 103.5l5.5 108.5v95q-43 -9 -80 -29l-45 -19q-8 0 -20.5 10.5t-12.5 20.5q0 12 21.5 20.5t70.5 19.5l66 11v19q0 21 8 22q18 0 45 -14.5t27 -21.5l99 6
q136 0 218.5 -21.5t82.5 -101.5q0 -46 -66.5 -88.5t-118.5 -51.5q49 0 96 -9q50 -6 84 -20q74 -24 74 -106zM637 205q0 61 -42.5 88t-129.5 27l-102 -3q-20 0 -31 -2l-36 -7l-26 -5q-6 0 -6 8q0 41 35 41q133 0 205 24t72 95q0 41 -30.5 67.5t-85.5 36.5l-52 8l-56 3l-43 -1
q-15 0 -53 -7l-12 -122l-17 -210q0 -61 -7 -120l-9 -83q78 -14 152 -14q133 0 203.5 44.5t70.5 131.5z" />
    <glyph glyph-name="Atilde" unicode="&#xc3;" horiz-adv-x="668" 
d="M672 586q0 -17 -20 -38t-50 -21l-50 4l-82 9l-111 9l-150 4l-8 -223v-35.5t2 -37.5l7 -131l9 -124q0 -15 -16 -16q-25 0 -50 11q-24 9 -24 32l5 118l2 94l9 180v60l1 72l-51 -6l-42 -4q-9 0 -18.5 10.5t-9.5 16.5q0 16 24 16h43l56 -4v33q0 9 4 10q23 0 41 -14t18 -31
l112 1l89 3l60 1l96 9l88 6q15 0 16 -14z" />
    <glyph glyph-name="Atilde" unicode="&#x413;" horiz-adv-x="668" 
d="M672 586q0 -17 -20 -38t-50 -21l-50 4l-82 9l-111 9l-150 4l-8 -223v-35.5t2 -37.5l7 -131l9 -124q0 -15 -16 -16q-25 0 -50 11q-24 9 -24 32l5 118l2 94l9 180v60l1 72l-51 -6l-42 -4q-9 0 -18.5 10.5t-9.5 16.5q0 16 24 16h43l56 -4v33q0 9 4 10q23 0 41 -14t18 -31
l112 1l89 3l60 1l96 9l88 6q15 0 16 -14z" />
    <glyph glyph-name="Adieresis" unicode="&#xc4;" horiz-adv-x="777" 
d="M742 373q0 -106 -66.5 -180.5t-166.5 -121.5q-43 -19 -92 -35.5t-103 -29.5l-86 -15l-66 -5q-131 0 -131 69q0 8 8 11l34 -12l33 -9l39 -4l3 264l4 259q-23 -3 -26 -4q-12 -5 -20 -7t-15.5 -4.5t-26.5 -10.5l-46 -18q-10 0 -22 11t-12 24q0 12 60 27l52 11l54 9v19
q0 13 2 14.5t3 1.5q8 4 9 4q17 0 41 -9.5t27 -24.5l36 1l45 1q115 0 209 -21.5t157 -74t63 -140.5zM650 346q0 112 -65 174t-230 62l-67 -3l-56 -5l-12 -160l-13 -197l-10 -182q76 0 139.5 9.5t112.5 28.5q102 39 151.5 109.5t49.5 163.5z" />
    <glyph glyph-name="Adieresis" unicode="&#x414;" horiz-adv-x="777" 
d="M742 373q0 -106 -66.5 -180.5t-166.5 -121.5q-43 -19 -92 -35.5t-103 -29.5l-86 -15l-66 -5q-131 0 -131 69q0 8 8 11l34 -12l33 -9l39 -4l3 264l4 259q-23 -3 -26 -4q-12 -5 -20 -7t-15.5 -4.5t-26.5 -10.5l-46 -18q-10 0 -22 11t-12 24q0 12 60 27l52 11l54 9v19
q0 13 2 14.5t3 1.5q8 4 9 4q17 0 41 -9.5t27 -24.5l36 1l45 1q115 0 209 -21.5t157 -74t63 -140.5zM650 346q0 112 -65 174t-230 62l-67 -3l-56 -5l-12 -160l-13 -197l-10 -182q76 0 139.5 9.5t112.5 28.5q102 39 151.5 109.5t49.5 163.5z" />
    <glyph glyph-name="Aring" unicode="&#xc5;" horiz-adv-x="668" 
d="M605 313q0 -11 -11 -28t-30 -17l-55 3l-59 5q-13 0 -39 1t-38 1l-143 7l2 18q103 0 202 10l162 15q9 0 9 -15zM152 -14q-52 0 -83.5 24.5t-31.5 50.5q0 8 8 11l38 -10l46 -8l7 187l9 180v60l1 72l-51 -6l-42 -4q-9 0 -18.5 10.5t-9.5 16.5q0 16 24 16h43l56 -4v33
q0 9 4 10q23 0 41 -14t18 -31l112 1l89 3l60 1l96 9l88 6q15 0 16 -14q0 -17 -20 -38t-50 -21l-50 4l-82 9l-111 9l-150 4l-8 -223v-35.5t2 -37.5l7 -131l6 -77l238 1l142 6l58 3q8 0 8 -14q0 -6 -14 -6l-96 -16l-153 -19q-177 -18 -247 -18z" />
    <glyph glyph-name="Aring" unicode="&#x415;" horiz-adv-x="668" 
d="M605 313q0 -11 -11 -28t-30 -17l-55 3l-59 5q-13 0 -39 1t-38 1l-143 7l2 18q103 0 202 10l162 15q9 0 9 -15zM152 -14q-52 0 -83.5 24.5t-31.5 50.5q0 8 8 11l38 -10l46 -8l7 187l9 180v60l1 72l-51 -6l-42 -4q-9 0 -18.5 10.5t-9.5 16.5q0 16 24 16h43l56 -4v33
q0 9 4 10q23 0 41 -14t18 -31l112 1l89 3l60 1l96 9l88 6q15 0 16 -14q0 -17 -20 -38t-50 -21l-50 4l-82 9l-111 9l-150 4l-8 -223v-35.5t2 -37.5l7 -131l6 -77l238 1l142 6l58 3q8 0 8 -14q0 -6 -14 -6l-96 -16l-153 -19q-177 -18 -247 -18z" />
    <glyph glyph-name="AE" unicode="&#xc6;" horiz-adv-x="1235" 
d="M579 206l2 118q0 4 -5 76.5t-5 103.5l-5 104l3 11q16 0 49.5 -15t36.5 -28l-5 -95l-2 -90l-10 -186q135 86 222.5 165.5t128.5 135t66 99.5l20 35l4 6q8 0 23 -30q12 -30 12 -55q0 -24 -56 -80q-26 -25 -61 -54.5l-68 -55.5q-70 -54 -113 -80l230 -205t135 -96
q10 0 13 -6q0 -9 -28.5 -23.5t-45.5 -17.5q-19 0 -153 121.5l-210 185.5l-52 -35l-67 -45v-174q0 -10 -20 -10q-11 0 -27.5 8t-17.5 20l4 117l1 39l-70 45l-52 35l-210 -185t-153 -122q-15 2 -44.5 17t-29.5 24q2 6 13 6q24 0 134 95l114 99.5l117 106.5q-38 23 -115 81
l-68 55l-59 56q-56 53 -56 78q0 23 12 55q14 30 23 30l6 -10l18 -31q20 -39 63 -97t131 -137q39 -36 102 -81l71 -49z" />
    <glyph glyph-name="AE" unicode="&#x416;" horiz-adv-x="1235" 
d="M579 206l2 118q0 4 -5 76.5t-5 103.5l-5 104l3 11q16 0 49.5 -15t36.5 -28l-5 -95l-2 -90l-10 -186q135 86 222.5 165.5t128.5 135t66 99.5l20 35l4 6q8 0 23 -30q12 -30 12 -55q0 -24 -56 -80q-26 -25 -61 -54.5l-68 -55.5q-70 -54 -113 -80l230 -205t135 -96
q10 0 13 -6q0 -9 -28.5 -23.5t-45.5 -17.5q-19 0 -153 121.5l-210 185.5l-52 -35l-67 -45v-174q0 -10 -20 -10q-11 0 -27.5 8t-17.5 20l4 117l1 39l-70 45l-52 35l-210 -185t-153 -122q-15 2 -44.5 17t-29.5 24q2 6 13 6q24 0 134 95l114 99.5l117 106.5q-38 23 -115 81
l-68 55l-59 56q-56 53 -56 78q0 23 12 55q14 30 23 30l6 -10l18 -31q20 -39 63 -97t131 -137q39 -36 102 -81l71 -49z" />
    <glyph glyph-name="Ccedilla" unicode="&#xc7;" horiz-adv-x="723" 
d="M686 232q0 -73 -78 -137t-192 -103t-201 -39q-43 0 -80 7t-68 22q-59 29 -59 88l1 3l3 3l3 -3l8 -9q15 -18 74.5 -36t162.5 -18q92 0 162 14t122 54q25 20 50 60q10 19 16 37.5t6 35.5q0 58 -80 77l-155 26q-8 2 -11 3t-4 3q2 2 3 2q6 3 12 5l28 9q114 45 153 69t39 54
l-3 18q-8 31 -52.5 60t-99.5 40q-14 0 -21 2l-25 2q-38 0 -85 -12.5t-75 -25.5q-27 -10 -52 -27l-38 -29q-16 -13 -27 -28l-16 -19l-8 -8q-9 0 -15 19l-2 19q0 32 29 61q37 38 110 59q37 8 84 13l104 4q50 0 91 -10q25 -5 42.5 -11t43.5 -18q75 -33 91 -91l3 -24
q0 -39 -43 -67q-14 -9 -33.5 -18t-47.5 -20q-19 -7 -42 -14.5l-36 -11.5l69 -5q48 0 69 -8q70 -23 70 -77z" />
    <glyph glyph-name="Ccedilla" unicode="&#x417;" horiz-adv-x="723" 
d="M686 232q0 -73 -78 -137t-192 -103t-201 -39q-43 0 -80 7t-68 22q-59 29 -59 88l1 3l3 3l3 -3l8 -9q15 -18 74.5 -36t162.5 -18q92 0 162 14t122 54q25 20 50 60q10 19 16 37.5t6 35.5q0 58 -80 77l-155 26q-8 2 -11 3t-4 3q2 2 3 2q6 3 12 5l28 9q114 45 153 69t39 54
l-3 18q-8 31 -52.5 60t-99.5 40q-14 0 -21 2l-25 2q-38 0 -85 -12.5t-75 -25.5q-27 -10 -52 -27l-38 -29q-16 -13 -27 -28l-16 -19l-8 -8q-9 0 -15 19l-2 19q0 32 29 61q37 38 110 59q37 8 84 13l104 4q50 0 91 -10q25 -5 42.5 -11t43.5 -18q75 -33 91 -91l3 -24
q0 -39 -43 -67q-14 -9 -33.5 -18t-47.5 -20q-19 -7 -42 -14.5l-36 -11.5l69 -5q48 0 69 -8q70 -23 70 -77z" />
    <glyph glyph-name="Egrave" unicode="&#xc8;" horiz-adv-x="777" 
d="M775 6q0 -11 -37 -29q-18 -9 -30 -13.5t-22 -6.5q-18 0 -36 76l-13 71l-16 98l-29 212q-66 -184 -167 -306t-210 -122q-60 0 -89.5 43t-29.5 108q0 75 9 129l25 162q16 122 16 146v11q0 6 -2 12l-6 13l-3 9q0 12 15 12q29 0 55.5 -15.5t26.5 -37.5q0 -20 -37 -172
q-17 -73 -27 -136q-4 -31 -7 -60.5t-3 -41.5q0 -48 28.5 -79.5t84.5 -31.5q46 0 99 49.5t104 128t82.5 168.5t31.5 156q0 29 8 29q7 0 28 -11q21 -9 30 -18l8 -12l11 -160q0 -24 1 -48t4 -49l10 -76l9 -62q5 -33 6 -35q6 -16 8 -24q15 -56 41 -75l13 -5q9 0 10 -7z" />
    <glyph glyph-name="Egrave" unicode="&#x418;" horiz-adv-x="777" 
d="M775 6q0 -11 -37 -29q-18 -9 -30 -13.5t-22 -6.5q-18 0 -36 76l-13 71l-16 98l-29 212q-66 -184 -167 -306t-210 -122q-60 0 -89.5 43t-29.5 108q0 75 9 129l25 162q16 122 16 146v11q0 6 -2 12l-6 13l-3 9q0 12 15 12q29 0 55.5 -15.5t26.5 -37.5q0 -20 -37 -172
q-17 -73 -27 -136q-4 -31 -7 -60.5t-3 -41.5q0 -48 28.5 -79.5t84.5 -31.5q46 0 99 49.5t104 128t82.5 168.5t31.5 156q0 29 8 29q7 0 28 -11q21 -9 30 -18l8 -12l11 -160q0 -24 1 -48t4 -49l10 -76l9 -62q5 -33 6 -35q6 -16 8 -24q15 -56 41 -75l13 -5q9 0 10 -7z" />
    <glyph glyph-name="Eacute" unicode="&#xc9;" horiz-adv-x="777" 
d="M775 6q0 -11 -37 -29q-18 -9 -30 -13.5t-22 -6.5q-18 0 -36 76l-13 71l-16 98l-29 212q-66 -184 -167 -306t-210 -122q-60 0 -89.5 43t-29.5 108q0 75 9 129l25 162q16 122 16 146v11q0 6 -2 12l-6 13l-3 9q0 12 15 12q29 0 55.5 -15.5t26.5 -37.5q0 -20 -37 -172
q-17 -73 -27 -136q-4 -31 -7 -60.5t-3 -41.5q0 -48 28.5 -79.5t84.5 -31.5q46 0 99 49.5t104 128t82.5 168.5t31.5 156q0 29 8 29q7 0 28 -11q21 -9 30 -18l8 -12l11 -160q0 -24 1 -48t4 -49l10 -76l9 -62q5 -33 6 -35q6 -16 8 -24q15 -56 41 -75l13 -5q9 0 10 -7zM500 852
q9 0 18 -14.5t9 -28.5q0 -28 -55 -78.5t-78 -50.5q-2 1 -4.5 2t-5.5 4l-3 3l-2 3q3 12 11 13q34 27 67 86.5t43 60.5z" />
    <glyph glyph-name="Eacute" unicode="&#x419;" horiz-adv-x="777" 
d="M775 6q0 -11 -37 -29q-18 -9 -30 -13.5t-22 -6.5q-18 0 -36 76l-13 71l-16 98l-29 212q-66 -184 -167 -306t-210 -122q-60 0 -89.5 43t-29.5 108q0 75 9 129l25 162q16 122 16 146v11q0 6 -2 12l-6 13l-3 9q0 12 15 12q29 0 55.5 -15.5t26.5 -37.5q0 -20 -37 -172
q-17 -73 -27 -136q-4 -31 -7 -60.5t-3 -41.5q0 -48 28.5 -79.5t84.5 -31.5q46 0 99 49.5t104 128t82.5 168.5t31.5 156q0 29 8 29q7 0 28 -11q21 -9 30 -18l8 -12l11 -160q0 -24 1 -48t4 -49l10 -76l9 -62q5 -33 6 -35q6 -16 8 -24q15 -56 41 -75l13 -5q9 0 10 -7zM500 852
q9 0 18 -14.5t9 -28.5q0 -28 -55 -78.5t-78 -50.5q-2 1 -4.5 2t-5.5 4l-3 3l-2 3q3 12 11 13q34 27 67 86.5t43 60.5z" />
    <glyph glyph-name="Ecircumflex" unicode="&#xca;" horiz-adv-x="723" 
d="M730 -16q0 -9 -28.5 -23.5t-45.5 -17.5q-19 0 -153 121.5l-210 185.5l-52 -35l-67 -45v-174q0 -10 -20 -10q-11 0 -27.5 8t-17.5 20l4 117l4 193q0 4 -5 76.5t-5 103.5l-5 104l3 11q16 0 49.5 -15t36.5 -28l-5 -95l-2 -90l-10 -186q135 86 222.5 165.5t128.5 135t66 99.5
l20 35l4 6q8 0 23 -30q12 -30 12 -55q0 -24 -56 -80q-26 -25 -61 -54.5l-68 -55.5q-70 -54 -113 -80l230 -205t135 -96q10 0 13 -6z" />
    <glyph glyph-name="Ecircumflex" unicode="&#x41a;" horiz-adv-x="723" 
d="M730 -16q0 -9 -28.5 -23.5t-45.5 -17.5q-19 0 -153 121.5l-210 185.5l-52 -35l-67 -45v-174q0 -10 -20 -10q-11 0 -27.5 8t-17.5 20l4 117l4 193q0 4 -5 76.5t-5 103.5l-5 104l3 11q16 0 49.5 -15t36.5 -28l-5 -95l-2 -90l-10 -186q135 86 222.5 165.5t128.5 135t66 99.5
l20 35l4 6q8 0 23 -30q12 -30 12 -55q0 -24 -56 -80q-26 -25 -61 -54.5l-68 -55.5q-70 -54 -113 -80l230 -205t135 -96q10 0 13 -6z" />
    <glyph glyph-name="Edieresis" unicode="&#xcb;" horiz-adv-x="559" 
d="M521 -16l14 -4q14 -2 15 -7q-5 -4 -8 -7q-16 -14 -25 -21q-34 -25 -45 -25q-6 0 -15 12l-28 61l-183 475q-29 -142 -53 -227q-30 -120 -61.5 -197t-62.5 -117q-26 -35 -40 -36q-21 0 -42.5 29t-21.5 40q5 3 9 3l14 -1l7 -3q15 0 44 39q57 79 130 281l31 98l32 123l-28 54
q-2 4 -29 24.5t-29 28.5q0 14 13 14q33 0 76 -17q45 -15 52 -34l28.5 -77t27.5 -70l109 -277q60 -150 69 -162z" />
    <glyph glyph-name="Edieresis" unicode="&#x41b;" horiz-adv-x="559" 
d="M521 -16l14 -4q14 -2 15 -7q-5 -4 -8 -7q-16 -14 -25 -21q-34 -25 -45 -25q-6 0 -15 12l-28 61l-183 475q-29 -142 -53 -227q-30 -120 -61.5 -197t-62.5 -117q-26 -35 -40 -36q-21 0 -42.5 29t-21.5 40q5 3 9 3l14 -1l7 -3q15 0 44 39q57 79 130 281l31 98l32 123l-28 54
q-2 4 -29 24.5t-29 28.5q0 14 13 14q33 0 76 -17q45 -15 52 -34l28.5 -77t27.5 -70l109 -277q60 -150 69 -162z" />
    <glyph glyph-name="Igrave" unicode="&#xcc;" horiz-adv-x="943" 
d="M930 20l-8 -6l-26 -13l-28 -10l-18 -5q-13 0 -20 14l-14 66l-31 211l-29 207q-3 27 -10 28l-7 -10l-20 -33l-233 -453q-6 -15 -19 -16q-15 0 -24 18l-207 451q-24 -136 -45 -229q-31 -138 -59 -207q-27 -76 -53 -110q-23 -35 -40 -38q-21 0 -43.5 28t-22.5 38q0 6 7 6
l15 -3l7 -3q16 0 42 39.5t59 116.5q26 59 62 170q24 77 56 223l-30 53q-6 12 -32 27t-28 24q0 15 12 15q28 0 75.5 -15t54.5 -32l190 -433l9 -20q7 -14 16 -17q6 0 28 37l228 453l7 11q4 5 11 8q11 0 33 -6t23 -11l15 -136q3 -24 7 -61t10.5 -89.5l13.5 -104t12 -73.5
q11 -56 28 -93q2 -5 14 -8.5t12 -8.5z" />
    <glyph glyph-name="Igrave" unicode="&#x41c;" horiz-adv-x="943" 
d="M930 20l-8 -6l-26 -13l-28 -10l-18 -5q-13 0 -20 14l-14 66l-31 211l-29 207q-3 27 -10 28l-7 -10l-20 -33l-233 -453q-6 -15 -19 -16q-15 0 -24 18l-207 451q-24 -136 -45 -229q-31 -138 -59 -207q-27 -76 -53 -110q-23 -35 -40 -38q-21 0 -43.5 28t-22.5 38q0 6 7 6
l15 -3l7 -3q16 0 42 39.5t59 116.5q26 59 62 170q24 77 56 223l-30 53q-6 12 -32 27t-28 24q0 15 12 15q28 0 75.5 -15t54.5 -32l190 -433l9 -20q7 -14 16 -17q6 0 28 37l228 453l7 11q4 5 11 8q11 0 33 -6t23 -11l15 -136q3 -24 7 -61t10.5 -89.5l13.5 -104t12 -73.5
q11 -56 28 -93q2 -5 14 -8.5t12 -8.5z" />
    <glyph glyph-name="Iacute" unicode="&#xcd;" horiz-adv-x="777" 
d="M703 568l-6 -131l-2 -114q0 -30 -2.5 -93.5t-2.5 -85.5l-4 -123q0 -32 -16 -35q-13 0 -28.5 8.5t-18.5 23.5l1 38l1 42l1 42l1 42l1 81l1 135v19v16v13v11v44l-4 23v17v12q-2 7 -3 17t-4 17l-3 16q-1 3 1.5 5t10.5 3q20 0 48 -11.5t28 -31.5zM598 299q0 -9 -26 -15
l-107 -13l-268 -27q-6 -63 -6 -273q0 -24 -13 -24q-9 0 -26 7.5t-19 18.5l1 83l3 103l2 83l-57 -4q-31 0 -57.5 17.5t-26.5 45.5l2 12l2 11q22 -11 51 -19q27 -6 64 -6l22 2l-4 97l-3 108q0 48 -5 63l-6 23l-4 12l4 2l14 5q24 0 51 -12t27 -31l-11 -144l-5 -123l198 1l122 4
l71 3q9 0 10 -10z" />
    <glyph glyph-name="Iacute" unicode="&#x41d;" horiz-adv-x="777" 
d="M703 568l-6 -131l-2 -114q0 -30 -2.5 -93.5t-2.5 -85.5l-4 -123q0 -32 -16 -35q-13 0 -28.5 8.5t-18.5 23.5l1 38l1 42l1 42l1 42l1 81l1 135v19v16v13v11v44l-4 23v17v12q-2 7 -3 17t-4 17l-3 16q-1 3 1.5 5t10.5 3q20 0 48 -11.5t28 -31.5zM598 299q0 -9 -26 -15
l-107 -13l-268 -27q-6 -63 -6 -273q0 -24 -13 -24q-9 0 -26 7.5t-19 18.5l1 83l3 103l2 83l-57 -4q-31 0 -57.5 17.5t-26.5 45.5l2 12l2 11q22 -11 51 -19q27 -6 64 -6l22 2l-4 97l-3 108q0 48 -5 63l-6 23l-4 12l4 2l14 5q24 0 51 -12t27 -31l-11 -144l-5 -123l198 1l122 4
l71 3q9 0 10 -10z" />
    <glyph glyph-name="Icircumflex" unicode="&#xce;" horiz-adv-x="889" 
d="M854 391q0 -100 -73.5 -192t-202.5 -151.5t-269 -59.5q-108 0 -190 43.5t-82 142.5q0 136 84 240t196.5 165.5t161.5 61.5q27 0 27 -14q0 -9 -12 -12l-4 2q-33 0 -65.5 -10.5t-82.5 -39.5q-87 -49 -154 -145t-67 -211l2 -14q0 -51 36 -92q32 -33 94 -56q26 -8 61 -12
l71 -4q50 0 94 9q22 5 46 12.5t50 19.5q90 39 147 111t57 176q0 103 -57 157q-28 26 -65.5 40t-86.5 14q-61 0 -106 -21q-42 -18 -63 -39q-19 -17 -39.5 -43.5t-29.5 -27.5q-16 0 -16 18q0 29 44.5 62.5t115.5 58t145 24.5q108 0 170 -59q30 -28 46.5 -67.5t16.5 -86.5z" />
    <glyph glyph-name="Icircumflex" unicode="&#x41e;" horiz-adv-x="889" 
d="M854 391q0 -100 -73.5 -192t-202.5 -151.5t-269 -59.5q-108 0 -190 43.5t-82 142.5q0 136 84 240t196.5 165.5t161.5 61.5q27 0 27 -14q0 -9 -12 -12l-4 2q-33 0 -65.5 -10.5t-82.5 -39.5q-87 -49 -154 -145t-67 -211l2 -14q0 -51 36 -92q32 -33 94 -56q26 -8 61 -12
l71 -4q50 0 94 9q22 5 46 12.5t50 19.5q90 39 147 111t57 176q0 103 -57 157q-28 26 -65.5 40t-86.5 14q-61 0 -106 -21q-42 -18 -63 -39q-19 -17 -39.5 -43.5t-29.5 -27.5q-16 0 -16 18q0 29 44.5 62.5t115.5 58t145 24.5q108 0 170 -59q30 -28 46.5 -67.5t16.5 -86.5z" />
    <glyph glyph-name="Idieresis" unicode="&#xcf;" horiz-adv-x="777" 
d="M703 568l-6 -131l-2 -114q0 -30 -2.5 -93.5t-2.5 -85.5l-4 -123q0 -32 -16 -35q-13 0 -28.5 8.5t-18.5 23.5l3 171l3 209q0 152 -12 193q0 8 -2 12q-1 3 1.5 5t10.5 3q20 0 48 -11.5t28 -31.5zM614 503q0 -9 -26 -15l-375 -40l-8 -125l-10 -203l-4 -149q0 -24 -13 -24
q-9 0 -26 7.5t-19 18.5l1 198l5 275l-57 -4q-31 0 -58.5 17.5t-27.5 43.5q0 10 6 25q22 -11 51 -19q27 -6 64 -6h16v23q0 20 -6 43l-6 23l-4 12l4 2l14 5q24 0 51 -12t27 -30v-51v-15q35 0 94.5 1t83.5 1l142 5l71 3q9 0 10 -10z" />
    <glyph glyph-name="Idieresis" unicode="&#x41f;" horiz-adv-x="777" 
d="M703 568l-6 -131l-2 -114q0 -30 -2.5 -93.5t-2.5 -85.5l-4 -123q0 -32 -16 -35q-13 0 -28.5 8.5t-18.5 23.5l3 171l3 209q0 152 -12 193q0 8 -2 12q-1 3 1.5 5t10.5 3q20 0 48 -11.5t28 -31.5zM614 503q0 -9 -26 -15l-375 -40l-8 -125l-10 -203l-4 -149q0 -24 -13 -24
q-9 0 -26 7.5t-19 18.5l1 198l5 275l-57 -4q-31 0 -58.5 17.5t-27.5 43.5q0 10 6 25q22 -11 51 -19q27 -6 64 -6h16v23q0 20 -6 43l-6 23l-4 12l4 2l14 5q24 0 51 -12t27 -30v-51v-15q35 0 94.5 1t83.5 1l142 5l71 3q9 0 10 -10z" />
    <glyph glyph-name="Eth" unicode="&#xd0;" horiz-adv-x="723" 
d="M744 479q0 -78 -64.5 -144t-154.5 -109q-46 -20 -84 -30t-68 -10q-48 0 -88.5 22t-40.5 40q0 11 16 14l51 -13l50 -9l51 -4q105 0 172.5 56t67.5 155q0 139 -250 139h-32l-27 -4q-19 0 -29 -2l-51 -8l-44 -6l-3 -144l-3 -152v-23v-15l-2 -13l1 -61l3 -76l4 -102l-6 -5
q-13 0 -47 12t-37 23l10 142l16 239l7 160q-40 -11 -76 -28l-39 -17q-6 0 -18.5 16.5t-12.5 24.5q0 6 11 13l33 10l42 8l60 10v27q0 23 10 26q16 0 33.5 -14t17.5 -33l36 4l50 7l65 2l56 2q74 0 129.5 -6t99.5 -20q85 -26 85 -104z" />
    <glyph glyph-name="Eth" unicode="&#x420;" horiz-adv-x="723" 
d="M744 479q0 -78 -64.5 -144t-154.5 -109q-46 -20 -84 -30t-68 -10q-48 0 -88.5 22t-40.5 40q0 11 16 14l51 -13l50 -9l51 -4q105 0 172.5 56t67.5 155q0 139 -250 139h-32l-27 -4q-19 0 -29 -2l-51 -8l-44 -6l-3 -144l-3 -152v-23v-15l-2 -13l1 -61l3 -76l4 -102l-6 -5
q-13 0 -47 12t-37 23l10 142l16 239l7 160q-40 -11 -76 -28l-39 -17q-6 0 -18.5 16.5t-12.5 24.5q0 6 11 13l33 10l42 8l60 10v27q0 23 10 26q16 0 33.5 -14t17.5 -33l36 4l50 7l65 2l56 2q74 0 129.5 -6t99.5 -20q85 -26 85 -104z" />
    <glyph glyph-name="Ntilde" unicode="&#xd1;" horiz-adv-x="777" 
d="M793 129q0 -15 -87 -51q-40 -17 -91 -33.5t-111.5 -30.5t-109.5 -21t-97 -7q-252 0 -252 162q0 32 11 66t36 76q48 81 121.5 151.5t164.5 119t177 48.5q67 0 107.5 -17t40.5 -49q0 -26 -10 -29l-5 3l-13 10q-13 14 -48 24q-15 4 -41.5 7t-58.5 3q-115 0 -203.5 -65
t-136.5 -157t-48 -165q0 -82 64 -110.5t166 -28.5q106 0 194 25l80 24q33 11 37 13q14 5 35 16l64 30q11 0 14 -14z" />
    <glyph glyph-name="Ntilde" unicode="&#x421;" horiz-adv-x="777" 
d="M793 129q0 -15 -87 -51q-40 -17 -91 -33.5t-111.5 -30.5t-109.5 -21t-97 -7q-252 0 -252 162q0 32 11 66t36 76q48 81 121.5 151.5t164.5 119t177 48.5q67 0 107.5 -17t40.5 -49q0 -26 -10 -29l-5 3l-13 10q-13 14 -48 24q-15 4 -41.5 7t-58.5 3q-115 0 -203.5 -65
t-136.5 -157t-48 -165q0 -82 64 -110.5t166 -28.5q106 0 194 25l80 24q33 11 37 13q14 5 35 16l64 30q11 0 14 -14z" />
    <glyph glyph-name="Ograve" unicode="&#xd2;" horiz-adv-x="723" 
d="M717 586q0 -6 -26 -10q-114 -18 -320 -39l-12 -114l-9 -109l-4 -72q0 -91 11 -156t51 -65h16q13 3 25 5t29 12l46 23l32 20q37 23 55 26q18 0 18 -13q0 -6 -12 -12q-46 -30 -130 -63q-40 -15 -79 -24t-68 -9q-67 0 -67 98q0 9 6 94q3 43 3 78q0 60 13 149.5l19 131.5
l-250 -4q-18 0 -48 27q-28 28 -28 44q7 6 12 7l64 -8l126 -14l64 -5l66 -2q0 40 16 43q41 0 41 -43l133 1l118 5l77 6q12 0 12 -8z" />
    <glyph glyph-name="Ograve" unicode="&#x422;" horiz-adv-x="723" 
d="M717 586q0 -6 -26 -10q-114 -18 -320 -39l-12 -114l-9 -109l-4 -72q0 -91 11 -156t51 -65h16q13 3 25 5t29 12l46 23l32 20q37 23 55 26q18 0 18 -13q0 -6 -12 -12q-46 -30 -130 -63q-40 -15 -79 -24t-68 -9q-67 0 -67 98q0 9 6 94q3 43 3 78q0 60 13 149.5l19 131.5
l-250 -4q-18 0 -48 27q-28 28 -28 44q7 6 12 7l64 -8l126 -14l64 -5l66 -2q0 40 16 43q41 0 41 -43l133 1l118 5l77 6q12 0 12 -8z" />
    <glyph glyph-name="Oacute" unicode="&#xd3;" horiz-adv-x="668" 
d="M684 549q0 -48 -61 -146q-30 -48 -71.5 -106t-95.5 -125l-163 -206q-57 -72 -57 -79q0 -8 22 -8q68 0 110.5 -1t80.5 -2q54 0 54 -9q0 -6 -164 -34q-89 -14 -124 -25l-67 -17q-9 0 -19 10q-5 6 -8 17q0 14 16 30l146 146l-146 356q-96 234 -149 244q-8 3 -11 11
q0 14 41 14q59 0 97 -27q9 -6 22 -38l44 -115l41 -109l30 -71l88 -200q57 70 128 183l54 100l44 95q17 42 27 78q5 17 8 32t3 27q0 22 -5 35l-6 21l-3 16q0 7 6 10q22 -3 54 -41q34 -37 34 -66z" />
    <glyph glyph-name="Oacute" unicode="&#x423;" horiz-adv-x="668" 
d="M684 549q0 -48 -61 -146q-30 -48 -71.5 -106t-95.5 -125l-163 -206q-57 -72 -57 -79q0 -8 22 -8q68 0 110.5 -1t80.5 -2q54 0 54 -9q0 -6 -164 -34q-89 -14 -124 -25l-67 -17q-9 0 -19 10q-5 6 -8 17q0 14 16 30l146 146l-146 356q-96 234 -149 244q-8 3 -11 11
q0 14 41 14q59 0 97 -27q9 -6 22 -38l44 -115l41 -109l30 -71l88 -200q57 70 128 183l54 100l44 95q17 42 27 78q5 17 8 32t3 27q0 22 -5 35l-6 21l-3 16q0 7 6 10q22 -3 54 -41q34 -37 34 -66z" />
    <glyph glyph-name="Ocircumflex" unicode="&#xd4;" horiz-adv-x="1121" 
d="M547 513v38v26v18v12v18l-1 10q0 6 11 6q7 0 16.5 -4.5t17.5 -9.5q20 -11 23 -29l-8 -86q120 15 209 15q183 0 250 -37t67 -94q0 -71 -62.5 -138t-152 -110.5t-158.5 -43.5q-50 0 -88.5 21t-38.5 39q0 11 13 14l52 -12q54 -12 103 -12q140 0 190 72.5t50 138.5
q0 139 -250 139q-75 0 -184 -22l1 -96l1 -100l2 -132l1 -72l1 -94q0 -12 -10 -13q-13 0 -45 12.5t-33 20.5l6 135l3 103q0 31 1 48q5 86 5 95l7 95q-25 5 -41 7t-68.5 7.5t-89.5 5.5q-250 0 -250 -139q0 -66 49.5 -138.5t190.5 -72.5q47 0 103 12l52 12q12 0 13 -14
q0 -17 -38 -38.5t-89 -21.5q-68 0 -157 42t-152.5 110t-63.5 140q0 56 67 93.5t250 37.5q56 0 108 -3t117 -11z" />
    <glyph glyph-name="Ocircumflex" unicode="&#x424;" horiz-adv-x="1121" 
d="M547 513v38v26v18v12v18l-1 10q0 6 11 6q7 0 16.5 -4.5t17.5 -9.5q20 -11 23 -29l-8 -86q120 15 209 15q183 0 250 -37t67 -94q0 -71 -62.5 -138t-152 -110.5t-158.5 -43.5q-50 0 -88.5 21t-38.5 39q0 11 13 14l52 -12q54 -12 103 -12q140 0 190 72.5t50 138.5
q0 139 -250 139q-75 0 -184 -22l1 -96l1 -100l2 -132l1 -72l1 -94q0 -12 -10 -13q-13 0 -45 12.5t-33 20.5l6 135l3 103q0 31 1 48q5 86 5 95l7 95q-25 5 -41 7t-68.5 7.5t-89.5 5.5q-250 0 -250 -139q0 -66 49.5 -138.5t190.5 -72.5q47 0 103 12l52 12q12 0 13 -14
q0 -17 -38 -38.5t-89 -21.5q-68 0 -157 42t-152.5 110t-63.5 140q0 56 67 93.5t250 37.5q56 0 108 -3t117 -11z" />
    <glyph glyph-name="Otilde" unicode="&#xd5;" horiz-adv-x="723" 
d="M717 582l-10 -4q-39 0 -97 -39.5t-121 -96.5l-100 -92q140 -171 210 -247q63 -66 102 -78q6 0 9 -3l3 -2q-4 -4 -9 -7.5t-22 -12.5q-31 -14 -51 -14q-21 0 -47 25l-32 34l-49 61l-159 195q-136 -152 -211 -250q-57 -77 -98 -141l-29 -47q-10 0 -24.5 26t-14.5 41
q0 8 84 103l275 287q-165 206 -195 231q-12 11 -18 16t-17 12l-34 22q-30 15 -31 20q0 10 41 10q48 0 92 -12q39 -9 53 -27l156 -221l124 131l64 68l44 44q29 27 45 27q22 0 43 -21.5t24 -37.5z" />
    <glyph glyph-name="Otilde" unicode="&#x425;" horiz-adv-x="723" 
d="M717 582l-10 -4q-39 0 -97 -39.5t-121 -96.5l-100 -92q140 -171 210 -247q63 -66 102 -78q6 0 9 -3l3 -2q-4 -4 -9 -7.5t-22 -12.5q-31 -14 -51 -14q-21 0 -47 25l-32 34l-49 61l-159 195q-136 -152 -211 -250q-57 -77 -98 -141l-29 -47q-10 0 -24.5 26t-14.5 41
q0 8 84 103l275 287q-165 206 -195 231q-12 11 -18 16t-17 12l-34 22q-30 15 -31 20q0 10 41 10q48 0 92 -12q39 -9 53 -27l156 -221l124 131l64 68l44 44q29 27 45 27q22 0 43 -21.5t24 -37.5z" />
    <glyph glyph-name="Odieresis" unicode="&#xd6;" horiz-adv-x="634" 
d="M520 568l-12 -128l-5 -117v-302q0 -32 -16 -35q-13 0 -28.5 8.5t-18.5 23.5l3 171l3 209q0 152 -12 193q0 8 -2 12q-1 3 1.5 5t10.5 3q20 0 48 -11.5t28 -31.5zM583 92q21 0 31 -16.5t10 -44.5q0 -61 -34 -138t-60 -77q-2 1 -4.5 2t-5.5 4l16 76q11 50 11 76q0 27 -6 45
q-4 17 -21 32q-6 5 -6 10q0 11 24 22q10 4 20 6.5t25 2.5zM404 27q-58 -20 -142 -31q-35 -4 -80 -7t-83 -3q-52 0 -83.5 24.5t-31.5 50.5q0 8 8 11l38 -10l34 -7l39 -4l3 131l3 109q0 10 -1 33t-1 36q0 10 -1 36.5t-1 43.5l-3 46q0 18 -5 41l-5 29q0 10 -6 25l-6 24
q0 6 12 6q25 0 58 -19t33 -45l-12 -187q0 -25 -3.5 -80t-3.5 -78l-6 -110l2 -43q49 0 99 -0.5t100 -1.5l37 -6l9 -6q4 -5 -1 -8z" />
    <glyph glyph-name="Odieresis" unicode="&#x426;" horiz-adv-x="634" 
d="M520 568l-12 -128l-5 -117v-302q0 -32 -16 -35q-13 0 -28.5 8.5t-18.5 23.5l3 171l3 209q0 152 -12 193q0 8 -2 12q-1 3 1.5 5t10.5 3q20 0 48 -11.5t28 -31.5zM583 92q21 0 31 -16.5t10 -44.5q0 -61 -34 -138t-60 -77q-2 1 -4.5 2t-5.5 4l16 76q11 50 11 76q0 27 -6 45
q-4 17 -21 32q-6 5 -6 10q0 11 24 22q10 4 20 6.5t25 2.5zM404 27q-58 -20 -142 -31q-35 -4 -80 -7t-83 -3q-52 0 -83.5 24.5t-31.5 50.5q0 8 8 11l38 -10l34 -7l39 -4l3 131l3 109q0 10 -1 33t-1 36q0 10 -1 36.5t-1 43.5l-3 46q0 18 -5 41l-5 29q0 10 -6 25l-6 24
q0 6 12 6q25 0 58 -19t33 -45l-12 -187q0 -25 -3.5 -80t-3.5 -78l-6 -110l2 -43q49 0 99 -0.5t100 -1.5l37 -6l9 -6q4 -5 -1 -8z" />
    <glyph glyph-name="multiply" unicode="&#xd7;" horiz-adv-x="645" 
d="M629 6q0 -11 -37 -29q-18 -9 -30 -13.5t-22 -6.5q-18 0 -36 76l-31 213l-9 68q-8 54 -17 100l-37 -62q-22 -35 -34 -52q-15 -21 -27 -32q-64 -61 -106 -89q-51 -33 -104 -33q-54 0 -89 53q-30 45 -30 98q0 18 15 125.5t15 151.5q0 23 -8 36l-4 14q0 6 16 7
q29 0 55.5 -15.5t26.5 -37.5q-22 -77 -36 -140q-18 -75 -18 -110q0 -50 28.5 -80.5t84.5 -30.5q88 0 165 98q82 106 82 244q0 26 8 29q8 0 28 -9.5t30 -19.5l8 -12l11 -160q0 -100 9 -163q5 -36 11 -63t19.5 -75.5t39.5 -67.5l13 -5q9 0 10 -7z" />
    <glyph glyph-name="multiply" unicode="&#x427;" horiz-adv-x="645" 
d="M629 6q0 -11 -37 -29q-18 -9 -30 -13.5t-22 -6.5q-18 0 -36 76l-31 213l-9 68q-8 54 -17 100l-37 -62q-22 -35 -34 -52q-15 -21 -27 -32q-64 -61 -106 -89q-51 -33 -104 -33q-54 0 -89 53q-30 45 -30 98q0 18 15 125.5t15 151.5q0 23 -8 36l-4 14q0 6 16 7
q29 0 55.5 -15.5t26.5 -37.5q-22 -77 -36 -140q-18 -75 -18 -110q0 -50 28.5 -80.5t84.5 -30.5q88 0 165 98q82 106 82 244q0 26 8 29q8 0 28 -9.5t30 -19.5l8 -12l11 -160q0 -100 9 -163q5 -36 11 -63t19.5 -75.5t39.5 -67.5l13 -5q9 0 10 -7z" />
    <glyph glyph-name="Oslash" unicode="&#xd8;" horiz-adv-x="748" 
d="M720 568l-12 -128l-5 -117v-302q0 -32 -16 -35q-13 0 -28.5 8.5t-18.5 23.5l3 171l3 209q0 152 -12 193q0 8 -2 12q-1 3 1.5 5t10.5 3q20 0 48 -11.5t28 -31.5zM428 51l115 5l58 3q8 0 8 -14q0 -6 -14 -6q-42 -10 -167 -25q0 -25 -16 -28q-13 0 -31 9q-9 3 -12 12l-23 -3
q-180 -18 -247 -18q-52 0 -83.5 24.5t-31.5 50.5q0 8 8 11l38 -10l34 -7l39 -4l3 131l3 109q0 10 -1 33t-1 36q0 10 -1 36.5t-1 43.5l-3 46q0 18 -5 41l-5 29q0 10 -6 25l-6 24q0 6 12 6q25 0 58 -19t33 -45l-12 -187q0 -25 -3.5 -80t-3.5 -78l-6 -110l2 -43h205l3 157
l3 192q0 152 -12 193q0 8 -2 12q-1 3 1.5 5t10.5 3q20 0 48 -11.5t28 -31.5l-12 -128l-5 -117v-272z" />
    <glyph glyph-name="Oslash" unicode="&#x428;" horiz-adv-x="748" 
d="M720 568l-12 -128l-5 -117v-302q0 -32 -16 -35q-13 0 -28.5 8.5t-18.5 23.5l3 171l3 209q0 152 -12 193q0 8 -2 12q-1 3 1.5 5t10.5 3q20 0 48 -11.5t28 -31.5zM428 51l115 5l58 3q8 0 8 -14q0 -6 -14 -6q-42 -10 -167 -25q0 -25 -16 -28q-13 0 -31 9q-9 3 -12 12l-23 -3
q-180 -18 -247 -18q-52 0 -83.5 24.5t-31.5 50.5q0 8 8 11l38 -10l34 -7l39 -4l3 131l3 109q0 10 -1 33t-1 36q0 10 -1 36.5t-1 43.5l-3 46q0 18 -5 41l-5 29q0 10 -6 25l-6 24q0 6 12 6q25 0 58 -19t33 -45l-12 -187q0 -25 -3.5 -80t-3.5 -78l-6 -110l2 -43h205l3 157
l3 192q0 152 -12 193q0 8 -2 12q-1 3 1.5 5t10.5 3q20 0 48 -11.5t28 -31.5l-12 -128l-5 -117v-272z" />
    <glyph glyph-name="Ugrave" unicode="&#xd9;" horiz-adv-x="834" 
d="M727 568l-12 -128l-5 -117v-302q0 -32 -16 -35q-13 0 -28.5 8.5t-18.5 23.5l3 171l3 209q0 152 -12 193q0 8 -2 12q-1 3 1.5 5t10.5 3q20 0 48 -11.5t28 -31.5zM435 51l115 5l58 3q8 0 8 -14q0 -6 -14 -6q-42 -10 -167 -25q0 -25 -16 -28q-13 0 -31 9q-9 3 -12 12l-23 -3
q-180 -18 -247 -18q-52 0 -83.5 24.5t-31.5 50.5q0 8 8 11l38 -10l34 -7l39 -4l3 131l3 109q0 10 -1 33t-1 36q0 10 -1 36.5t-1 43.5l-3 46q0 18 -5 41l-5 29q0 10 -6 25l-6 24q0 6 12 6q25 0 58 -19t33 -45l-12 -187q0 -25 -3.5 -80t-3.5 -78l-6 -110l2 -43h205l3 157
l3 192q0 152 -12 193q0 8 -2 12q-1 3 1.5 5t10.5 3q20 0 48 -11.5t28 -31.5l-12 -128l-5 -117v-272zM790 92l15 3q24 0 24 -44q0 -58 -35 -146t-58 -88q-7 3 -9 5l16 76q11 50 11 76q0 27 -6 45q-4 17 -21 32q-3 2 -4.5 4.5t-1.5 4.5q0 10 36 22z" />
    <glyph glyph-name="Ugrave" unicode="&#x429;" horiz-adv-x="834" 
d="M727 568l-12 -128l-5 -117v-302q0 -32 -16 -35q-13 0 -28.5 8.5t-18.5 23.5l3 171l3 209q0 152 -12 193q0 8 -2 12q-1 3 1.5 5t10.5 3q20 0 48 -11.5t28 -31.5zM435 51l115 5l58 3q8 0 8 -14q0 -6 -14 -6q-42 -10 -167 -25q0 -25 -16 -28q-13 0 -31 9q-9 3 -12 12l-23 -3
q-180 -18 -247 -18q-52 0 -83.5 24.5t-31.5 50.5q0 8 8 11l38 -10l34 -7l39 -4l3 131l3 109q0 10 -1 33t-1 36q0 10 -1 36.5t-1 43.5l-3 46q0 18 -5 41l-5 29q0 10 -6 25l-6 24q0 6 12 6q25 0 58 -19t33 -45l-12 -187q0 -25 -3.5 -80t-3.5 -78l-6 -110l2 -43h205l3 157
l3 192q0 152 -12 193q0 8 -2 12q-1 3 1.5 5t10.5 3q20 0 48 -11.5t28 -31.5l-12 -128l-5 -117v-272zM790 92l15 3q24 0 24 -44q0 -58 -35 -146t-58 -88q-7 3 -9 5l16 76q11 50 11 76q0 27 -6 45q-4 17 -21 32q-3 2 -4.5 4.5t-1.5 4.5q0 10 36 22z" />
    <glyph glyph-name="Uacute" unicode="&#xda;" horiz-adv-x="744" 
d="M244 456l-17 -210q0 -61 -7 -120l-9 -83q78 -14 152 -14q133 0 203.5 44.5t70.5 131.5q0 61 -42.5 88t-129.5 27l-102 -3q-20 0 -31 -2l-36 -7l-26 -5q-6 0 -6 8q0 41 35 41q48 0 66 -3t47 -3h59q54 0 97 -7q47 -6 83 -20q74 -24 74 -106q0 -68 -73 -119.5t-182.5 -79.5
t-205.5 -28q-201 0 -201 71q0 9 5 9l35 -7l57 -10q0 10 4 93t4 117q0 54 2.5 103.5l5.5 108.5v95q-43 -9 -80 -29l-45 -19q-8 0 -20.5 10.5t-12.5 20.5q0 12 21.5 20.5t70.5 19.5l66 11v19q0 21 8 22q18 0 45 -14.5t27 -26.5l-6 -65q-6 -51 -6 -79z" />
    <glyph glyph-name="Uacute" unicode="&#x42a;" horiz-adv-x="744" 
d="M244 456l-17 -210q0 -61 -7 -120l-9 -83q78 -14 152 -14q133 0 203.5 44.5t70.5 131.5q0 61 -42.5 88t-129.5 27l-102 -3q-20 0 -31 -2l-36 -7l-26 -5q-6 0 -6 8q0 41 35 41q48 0 66 -3t47 -3h59q54 0 97 -7q47 -6 83 -20q74 -24 74 -106q0 -68 -73 -119.5t-182.5 -79.5
t-205.5 -28q-201 0 -201 71q0 9 5 9l35 -7l57 -10q0 10 4 93t4 117q0 54 2.5 103.5l5.5 108.5v95q-43 -9 -80 -29l-45 -19q-8 0 -20.5 10.5t-12.5 20.5q0 12 21.5 20.5t70.5 19.5l66 11v19q0 21 8 22q18 0 45 -14.5t27 -26.5l-6 -65q-6 -51 -6 -79z" />
    <glyph glyph-name="Ucircumflex" unicode="&#xdb;" horiz-adv-x="803" 
d="M178 456l-17 -210q0 -61 -7 -120l-9 -83q78 -14 152 -14q133 0 203.5 44.5t70.5 131.5q0 61 -42.5 88t-129.5 27l-102 -3q-20 0 -31 -2l-36 -7l-26 -5q-6 0 -6 8q0 41 35 41q48 0 66 -3t47 -3h59q54 0 97 -7q47 -6 83 -20q74 -24 74 -106q0 -68 -73 -119.5t-182.5 -79.5
t-205.5 -28q-201 0 -201 71q0 9 5 9l35 -7l57 -10q0 10 4 93t4 117q0 54 2.5 103.5l5.5 108.5v148q0 21 8 22q18 0 45 -14.5t27 -21.5l-6 -68q-6 -54 -6 -81zM787 568l-12 -128l-5 -117v-302q0 -32 -16 -35q-13 0 -28.5 8.5t-18.5 23.5l3 171l3 209q0 152 -12 193q0 8 -2 12
q-1 3 1.5 5t10.5 3q20 0 48 -11.5t28 -31.5z" />
    <glyph glyph-name="Ucircumflex" unicode="&#x42b;" horiz-adv-x="803" 
d="M178 456l-17 -210q0 -61 -7 -120l-9 -83q78 -14 152 -14q133 0 203.5 44.5t70.5 131.5q0 61 -42.5 88t-129.5 27l-102 -3q-20 0 -31 -2l-36 -7l-26 -5q-6 0 -6 8q0 41 35 41q48 0 66 -3t47 -3h59q54 0 97 -7q47 -6 83 -20q74 -24 74 -106q0 -68 -73 -119.5t-182.5 -79.5
t-205.5 -28q-201 0 -201 71q0 9 5 9l35 -7l57 -10q0 10 4 93t4 117q0 54 2.5 103.5l5.5 108.5v148q0 21 8 22q18 0 45 -14.5t27 -21.5l-6 -68q-6 -54 -6 -81zM787 568l-12 -128l-5 -117v-302q0 -32 -16 -35q-13 0 -28.5 8.5t-18.5 23.5l3 171l3 209q0 152 -12 193q0 8 -2 12
q-1 3 1.5 5t10.5 3q20 0 48 -11.5t28 -31.5z" />
    <glyph glyph-name="Udieresis" unicode="&#xdc;" horiz-adv-x="698" 
d="M185 456l-17 -210q0 -61 -7 -120l-9 -83q78 -14 152 -14q133 0 203.5 44.5t70.5 131.5q0 61 -42.5 88t-129.5 27l-102 -3q-20 0 -31 -2l-36 -7l-26 -5q-6 0 -6 8q0 41 35 41q48 0 66 -3t47 -3h59q54 0 97 -7q47 -6 83 -20q74 -24 74 -106q0 -68 -73 -119.5t-182.5 -79.5
t-205.5 -28q-201 0 -201 71q0 9 5 9l35 -7l57 -10q0 10 4 93t4 117q0 54 2.5 103.5l5.5 108.5v148q0 21 8 22q18 0 45 -14.5t27 -21.5l-6 -68q-6 -54 -6 -81z" />
    <glyph glyph-name="Udieresis" unicode="&#x42c;" horiz-adv-x="698" 
d="M185 456l-17 -210q0 -61 -7 -120l-9 -83q78 -14 152 -14q133 0 203.5 44.5t70.5 131.5q0 61 -42.5 88t-129.5 27l-102 -3q-20 0 -31 -2l-36 -7l-26 -5q-6 0 -6 8q0 41 35 41q48 0 66 -3t47 -3h59q54 0 97 -7q47 -6 83 -20q74 -24 74 -106q0 -68 -73 -119.5t-182.5 -79.5
t-205.5 -28q-201 0 -201 71q0 9 5 9l35 -7l57 -10q0 10 4 93t4 117q0 54 2.5 103.5l5.5 108.5v148q0 21 8 22q18 0 45 -14.5t27 -21.5l-6 -68q-6 -54 -6 -81z" />
    <glyph glyph-name="Yacute" unicode="&#xdd;" horiz-adv-x="823" 
d="M797 454q0 -89 -84.5 -199t-209 -187t-232.5 -77q-81 0 -124.5 23.5t-43.5 54.5q0 6 4 14l3 4l3 2l26 -11l22 -8l41 -11l51 -8l57 -3q108 0 197 59.5t143.5 150t54.5 172.5q0 155 -246 155q-63 0 -102 -4q-26 0 -54 -6q-2 0 -37 -10q-90 -20 -157 -46l-72 -26q-6 0 -6 12
q0 9 19 18t58 23l78 28q69 20 175 40l93 12l85 4q258 0 258 -176zM644 337l-5 -26q-80 0 -176 -9l-67 -3l-102 -14q-75 -9 -103 -9q-12 0 -13 8q-6 64 84 64l149 -4l76 -1h43q17 -3 24 -4z" />
    <glyph glyph-name="Yacute" unicode="&#x42d;" horiz-adv-x="823" 
d="M797 454q0 -89 -84.5 -199t-209 -187t-232.5 -77q-81 0 -124.5 23.5t-43.5 54.5q0 6 4 14l3 4l3 2l26 -11l22 -8l41 -11l51 -8l57 -3q108 0 197 59.5t143.5 150t54.5 172.5q0 155 -246 155q-63 0 -102 -4q-26 0 -54 -6q-2 0 -37 -10q-90 -20 -157 -46l-72 -26q-6 0 -6 12
q0 9 19 18t58 23l78 28q69 20 175 40l93 12l85 4q258 0 258 -176zM644 337l-5 -26q-80 0 -176 -9l-67 -3l-102 -14q-75 -9 -103 -9q-12 0 -13 8q-6 64 84 64l149 -4l76 -1h43q17 -3 24 -4z" />
    <glyph glyph-name="Thorn" unicode="&#xde;" horiz-adv-x="1168" 
d="M1174 391q0 -100 -73.5 -192t-202.5 -151.5t-269 -59.5q-108 0 -190 43.5t-82 142.5q0 136 84 240t196.5 165.5t161.5 61.5q27 0 27 -14q0 -9 -12 -12l-4 2q-33 0 -65.5 -10.5t-82.5 -39.5q-87 -49 -154 -145t-67 -211l2 -14q0 -51 36 -92q32 -33 94 -56q26 -8 61 -12
l71 -4q50 0 94 9q22 5 46 12.5t50 19.5q90 39 147 111t57 176q0 103 -57 157q-28 26 -65.5 40t-86.5 14q-61 0 -106 -21q-42 -18 -63 -39q-19 -17 -39.5 -43.5t-29.5 -27.5q-16 0 -16 18q0 29 44.5 62.5t115.5 58t145 24.5q108 0 170 -59q30 -28 46.5 -67.5t16.5 -86.5z
M213 568l-11 -144l-5 -123q104 0 142 -9l18 -17q-6 -12 -71 -21l-89 -10q-6 -63 -6 -273q0 -24 -13 -24q-9 0 -26 7.5t-19 18.5l1 83l3 103l2 83l-57 -4q-31 0 -57.5 17.5t-26.5 45.5l2 12l2 11q22 -11 51 -19q27 -6 64 -6l22 2l-4 97l-3 108q0 48 -5 63l-6 23l-4 12l4 2
l14 5q24 0 51 -12t27 -31z" />
    <glyph glyph-name="Thorn" unicode="&#x42e;" horiz-adv-x="1168" 
d="M1174 391q0 -100 -73.5 -192t-202.5 -151.5t-269 -59.5q-108 0 -190 43.5t-82 142.5q0 136 84 240t196.5 165.5t161.5 61.5q27 0 27 -14q0 -9 -12 -12l-4 2q-33 0 -65.5 -10.5t-82.5 -39.5q-87 -49 -154 -145t-67 -211l2 -14q0 -51 36 -92q32 -33 94 -56q26 -8 61 -12
l71 -4q50 0 94 9q22 5 46 12.5t50 19.5q90 39 147 111t57 176q0 103 -57 157q-28 26 -65.5 40t-86.5 14q-61 0 -106 -21q-42 -18 -63 -39q-19 -17 -39.5 -43.5t-29.5 -27.5q-16 0 -16 18q0 29 44.5 62.5t115.5 58t145 24.5q108 0 170 -59q30 -28 46.5 -67.5t16.5 -86.5z
M213 568l-11 -144l-5 -123q104 0 142 -9l18 -17q-6 -12 -71 -21l-89 -10q-6 -63 -6 -273q0 -24 -13 -24q-9 0 -26 7.5t-19 18.5l1 83l3 103l2 83l-57 -4q-31 0 -57.5 17.5t-26.5 45.5l2 12l2 11q22 -11 51 -19q27 -6 64 -6l22 2l-4 97l-3 108q0 48 -5 63l-6 23l-4 12l4 2
l14 5q24 0 51 -12t27 -31z" />
    <glyph glyph-name="germandbls" unicode="&#xdf;" horiz-adv-x="764" 
d="M756 543q-1 -15 -11 -25t-20 -10l-42 16l-38 15l-45 14l8 -141l11 -176l8 -143l2 -60q0 -15 -21 -29q-21 -12 -51 -12q-15 0 -16 16l4 99l2 84l2 73l-10 299q-106 23 -189 23t-157 -29.5t-74 -85.5q0 -45 33 -84t93 -63q59 -21 132 -21q24 0 59 6l41 7q14 0 30.5 -12.5
t14.5 -18.5l-5 -5l-4 -4l-5 -5l-213 -168l-122 -98l-75 -56q-18 -12 -28 -12q-17 2 -43 22q-27 24 -27 29l6 3l12 1q26 0 97 48l56 42l68 53l47 39l124 103q-22 0 -46 2t-50 4.5t-68 14.5q-93 26 -153 77t-60 123q0 73 82 91l94 16q48 6 109 6q53 0 108 -4t113 -13
q3 18 21 30q16 9 30 11q7 -2 9 -5l3 -9v-35l88 -16q36 -6 51 -12t15 -15z" />
    <glyph glyph-name="germandbls" unicode="&#x42f;" horiz-adv-x="764" 
d="M756 543q-1 -15 -11 -25t-20 -10l-42 16l-38 15l-45 14l8 -141l11 -176l8 -143l2 -60q0 -15 -21 -29q-21 -12 -51 -12q-15 0 -16 16l4 99l2 84l2 73l-10 299q-106 23 -189 23t-157 -29.5t-74 -85.5q0 -45 33 -84t93 -63q59 -21 132 -21q24 0 59 6l41 7q14 0 30.5 -12.5
t14.5 -18.5l-5 -5l-4 -4l-5 -5l-213 -168l-122 -98l-75 -56q-18 -12 -28 -12q-17 2 -43 22q-27 24 -27 29l6 3l12 1q26 0 97 48l56 42l68 53l47 39l124 103q-22 0 -46 2t-50 4.5t-68 14.5q-93 26 -153 77t-60 123q0 73 82 91l94 16q48 6 109 6q53 0 108 -4t113 -13
q3 18 21 30q16 9 30 11q7 -2 9 -5l3 -9v-35l88 -16q36 -6 51 -12t15 -15z" />
    <glyph glyph-name="agrave" unicode="&#xe0;" horiz-adv-x="557" 
d="M521 12q0 -9 -30 -22t-38 -13q-6 0 -12 18l-11 45l-12 58q-43 -47 -111 -75.5t-133 -28.5q-66 0 -98 23q-31 25 -31 63q0 47 41.5 103.5t105.5 94.5t119 38q54 0 93 -48q33 3 51 17l9 -94q6 -61 18 -116t32 -55q6 0 7 -8zM410 156q0 19 -2 27l-9 35q-9 38 -18 42
q-51 27 -94 27q-63 0 -115.5 -52.5t-52.5 -129.5q0 -31 27 -58q27 -24 67 -24q49 0 107 27.5t86 66.5q2 6 3 14t1 25z" />
    <glyph glyph-name="agrave" unicode="&#x430;" horiz-adv-x="557" 
d="M521 12q0 -9 -30 -22t-38 -13q-6 0 -12 18l-11 45l-12 58q-43 -47 -111 -75.5t-133 -28.5q-66 0 -98 23q-31 25 -31 63q0 47 41.5 103.5t105.5 94.5t119 38q54 0 93 -48q33 3 51 17l9 -94q6 -61 18 -116t32 -55q6 0 7 -8zM410 156q0 19 -2 27l-9 35q-9 38 -18 42
q-51 27 -94 27q-63 0 -115.5 -52.5t-52.5 -129.5q0 -31 27 -58q27 -24 67 -24q49 0 107 27.5t86 66.5q2 6 3 14t1 25z" />
    <glyph glyph-name="aacute" unicode="&#xe1;" horiz-adv-x="474" 
d="M461 207q0 -57 -48.5 -109t-120 -82t-128.5 -30q-33 0 -59 18q-21 18 -33 65l-8 54l-3 74l3 125q0 31 1 45.5t8.5 66t7.5 74.5q0 21 39.5 30.5t90.5 9.5h45q21 -3 30 -4l62 -7l34 -3q7 0 13.5 -1.5t19.5 -10t13 -34.5l-45 6q-131 37 -177 37q-40 0 -62.5 -12.5
t-29.5 -50.5l-10 -80l-3 -79l1 -61v-24.5t2 -26.5l26 21l33 24q37 24 82 42q13 5 25.5 8.5t20.5 5.5q27 5 49 5q56 0 88 -26q33 -24 33 -70zM387 178q0 42 -23.5 68.5t-60.5 26.5q-38 0 -93.5 -26t-105.5 -73q0 -145 140 -145q62 0 102.5 45.5t40.5 103.5z" />
    <glyph glyph-name="aacute" unicode="&#x431;" horiz-adv-x="474" 
d="M461 207q0 -57 -48.5 -109t-120 -82t-128.5 -30q-33 0 -59 18q-21 18 -33 65l-8 54l-3 74l3 125q0 31 1 45.5t8.5 66t7.5 74.5q0 21 39.5 30.5t90.5 9.5h45q21 -3 30 -4l62 -7l34 -3q7 0 13.5 -1.5t19.5 -10t13 -34.5l-45 6q-131 37 -177 37q-40 0 -62.5 -12.5
t-29.5 -50.5l-10 -80l-3 -79l1 -61v-24.5t2 -26.5l26 21l33 24q37 24 82 42q13 5 25.5 8.5t20.5 5.5q27 5 49 5q56 0 88 -26q33 -24 33 -70zM387 178q0 42 -23.5 68.5t-60.5 26.5q-38 0 -93.5 -26t-105.5 -73q0 -145 140 -145q62 0 102.5 45.5t40.5 103.5z" />
    <glyph glyph-name="acircumflex" unicode="&#xe2;" 
d="M449 146q-17 -57 -74 -92.5t-139 -47.5q-35 -3 -39 -5h-22q-29 0 -39.5 1.5t-30.5 6.5q-35 11 -51.5 32.5t-16.5 72.5q0 42 4 70t21 66l32 91q22 61 73 131q17 22 60 22l15 -1q38 -6 60.5 -33t22.5 -58l-3 -24q-8 -34 -29 -54q-28 -28 -92 -51l-20 -4q-18 0 -18 10
q0 9 16 12q29 6 64.5 40t48.5 68l3 11l1 12q0 21 -15 33.5t-45 16.5q-37 0 -54 -29q-24 -37 -45 -90l-36 -124l30 12l39 16q36 12 90 20l16 1h14l33 -1l34 -6l22 -6.5t26 -13.5q19 -11 30 -29q17 -22 17 -50zM369 137l4 18l1 16q0 21 -9 39q-16 29 -52 41q-18 4 -27.5 4.5
t-15.5 0.5q-11 0 -26 -1t-32 -4q-66 -14 -117 -44q-4 -17 -6 -29.5t-2 -26.5q0 -90 106 -121q17 -4 24 -4.5t16 -0.5q39 0 73 22q48 33 63 90z" />
    <glyph glyph-name="acircumflex" unicode="&#x432;" 
d="M449 146q-17 -57 -74 -92.5t-139 -47.5q-35 -3 -39 -5h-22q-29 0 -39.5 1.5t-30.5 6.5q-35 11 -51.5 32.5t-16.5 72.5q0 42 4 70t21 66l32 91q22 61 73 131q17 22 60 22l15 -1q38 -6 60.5 -33t22.5 -58l-3 -24q-8 -34 -29 -54q-28 -28 -92 -51l-20 -4q-18 0 -18 10
q0 9 16 12q29 6 64.5 40t48.5 68l3 11l1 12q0 21 -15 33.5t-45 16.5q-37 0 -54 -29q-24 -37 -45 -90l-36 -124l30 12l39 16q36 12 90 20l16 1h14l33 -1l34 -6l22 -6.5t26 -13.5q19 -11 30 -29q17 -22 17 -50zM369 137l4 18l1 16q0 21 -9 39q-16 29 -52 41q-18 4 -27.5 4.5
t-15.5 0.5q-11 0 -26 -1t-32 -4q-66 -14 -117 -44q-4 -17 -6 -29.5t-2 -26.5q0 -90 106 -121q17 -4 24 -4.5t16 -0.5q39 0 73 22q48 33 63 90z" />
    <glyph glyph-name="atilde" unicode="&#xe3;" 
d="M69 255q17 14 91 43l98 32l66 17l31 4q30 0 39 -22l3 -10l1 -10q0 -16 -12 -33q-4 -6 -26 -31l-62 -68l-81 -86l-44 -48q-9 -11 -10 -20q3 -5 18 -7q14 0 21 1.5t25 6.5l58 16l29 8.5t39 14.5l33 12l44 20l45 21l22 9q6 3 9 -3l-8 -8q-12 -12 -26 -22q-103 -68 -254 -125
q-50 -17 -88 -25l-17 -2q-16 0 -23 13q-3 9 24 52l57 70l80 102l28 37l23 38q16 27 16 46l-3 12q-2 9 -17 9l-12 -2l-17 -5q-44 -14 -81 -41l-43 -27q-17 -10 -43 -32l-50 -34q-7 -3 -13 8q-2 9 10 35l10 20z" />
    <glyph glyph-name="atilde" unicode="&#x433;" 
d="M69 255q17 14 91 43l98 32l66 17l31 4q30 0 39 -22l3 -10l1 -10q0 -16 -12 -33q-4 -6 -26 -31l-62 -68l-81 -86l-44 -48q-9 -11 -10 -20q3 -5 18 -7q14 0 21 1.5t25 6.5l58 16l29 8.5t39 14.5l33 12l44 20l45 21l22 9q6 3 9 -3l-8 -8q-12 -12 -26 -22q-103 -68 -254 -125
q-50 -17 -88 -25l-17 -2q-16 0 -23 13q-3 9 24 52l57 70l80 102l28 37l23 38q16 27 16 46l-3 12q-2 9 -17 9l-12 -2l-17 -5q-44 -14 -81 -41l-43 -27q-17 -10 -43 -32l-50 -34q-7 -3 -13 8q-2 9 10 35l10 20z" />
    <glyph glyph-name="adieresis" unicode="&#xe4;" horiz-adv-x="557" 
d="M418 135l4 29l-1 24q0 8 -5 26q-3 18 -10 24q-6 7 -31 16q-10 3 -28 7.5t-29 6.5l-52 5q-52 0 -105.5 -32t-53.5 -98q0 -61 38 -84q20 -10 40.5 -16t41.5 -6q33 0 66 11q40 10 72.5 32t52.5 55zM416 254q50 34 66 37l2 -6l2 -8l-2 -66v-70v-59q0 -75 -17 -138t-52 -114
q-66 -96 -204 -96q-45 0 -81 18.5t-57.5 44.5t-21.5 43q0 14 16.5 39.5t30.5 28.5l4 -4q0 -66 46 -103t118 -37q85 0 120.5 79.5t35.5 183.5l-1 44l-1 29q-47 -44 -121 -76q-37 -16 -71.5 -24t-65.5 -8q-51 0 -85 25q-32 26 -32 75q0 46 36.5 97t91 86.5t98.5 35.5
q77 0 145 -57z" />
    <glyph glyph-name="adieresis" unicode="&#x434;" horiz-adv-x="557" 
d="M418 135l4 29l-1 24q0 8 -5 26q-3 18 -10 24q-6 7 -31 16q-10 3 -28 7.5t-29 6.5l-52 5q-52 0 -105.5 -32t-53.5 -98q0 -61 38 -84q20 -10 40.5 -16t41.5 -6q33 0 66 11q40 10 72.5 32t52.5 55zM416 254q50 34 66 37l2 -6l2 -8l-2 -66v-70v-59q0 -75 -17 -138t-52 -114
q-66 -96 -204 -96q-45 0 -81 18.5t-57.5 44.5t-21.5 43q0 14 16.5 39.5t30.5 28.5l4 -4q0 -66 46 -103t118 -37q85 0 120.5 79.5t35.5 183.5l-1 44l-1 29q-47 -44 -121 -76q-37 -16 -71.5 -24t-65.5 -8q-51 0 -85 25q-32 26 -32 75q0 46 36.5 97t91 86.5t98.5 35.5
q77 0 145 -57z" />
    <glyph glyph-name="aring" unicode="&#xe5;" 
d="M109 150l198 32l32 6q9 3 12 9.5t3 21.5q0 68 -71 68q-46 0 -84 -18.5t-65 -52.5q-25 -34 -25 -66zM39 80q0 30 25.5 85.5t89 99.5t162.5 44q66 0 82 -20q7 -9 12.5 -32.5t5.5 -57.5q10 -3 10 -11q0 -5 -33 -14l-286 -49q0 -109 159 -109q75 0 147 21q19 5 30 8.5t15 5.5
l19 8q6 0 7 -10q0 -9 -5 -12q-64 -25 -148 -40q-75 -11 -132 -11q-82 0 -121 19.5t-39 74.5z" />
    <glyph glyph-name="aring" unicode="&#x435;" 
d="M109 150l198 32l32 6q9 3 12 9.5t3 21.5q0 68 -71 68q-46 0 -84 -18.5t-65 -52.5q-25 -34 -25 -66zM39 80q0 30 25.5 85.5t89 99.5t162.5 44q66 0 82 -20q7 -9 12.5 -32.5t5.5 -57.5q10 -3 10 -11q0 -5 -33 -14l-286 -49q0 -109 159 -109q75 0 147 21q19 5 30 8.5t15 5.5
l19 8q6 0 7 -10q0 -9 -5 -12q-64 -25 -148 -40q-75 -11 -132 -11q-82 0 -121 19.5t-39 74.5z" />
    <glyph glyph-name="ae" unicode="&#xe6;" horiz-adv-x="792" 
d="M782 4q-2 -12 -19 -34q-15 -23 -35 -23q-15 0 -62 34l-175 138l-80 -35v-88q0 -7 -6 -10q-13 0 -28 8q-15 6 -15 18l-2 72l-80 35l-175 -138q-46 -34 -62 -34q-19 0 -35 23q-16 20 -19 34q45 0 99 45l129 107q-67 39 -116.5 78.5t-49.5 60.5q0 12 6 31t14 20q6 -1 47 -48
q37 -42 97 -98q55 -50 144 -95q0 22 -2 81.5t-2 71.5q0 38 -1.5 61.5t-4.5 38.5q0 5 6 8q20 0 47 -12.5t27 -26.5q-6 -3 -13 -49q-5 -50 -5 -173q88 43 146 96t96.5 97.5t46.5 47.5q7 0 13.5 -18.5t6.5 -32.5q0 -21 -48.5 -59.5t-117.5 -79.5l129 -107q53 -45 99 -45z" />
    <glyph glyph-name="ae" unicode="&#x436;" horiz-adv-x="792" 
d="M782 4q-2 -12 -19 -34q-15 -23 -35 -23q-15 0 -62 34l-175 138l-80 -35v-88q0 -7 -6 -10q-13 0 -28 8q-15 6 -15 18l-2 72l-80 35l-175 -138q-46 -34 -62 -34q-19 0 -35 23q-16 20 -19 34q45 0 99 45l129 107q-67 39 -116.5 78.5t-49.5 60.5q0 12 6 31t14 20q6 -1 47 -48
q37 -42 97 -98q55 -50 144 -95q0 22 -2 81.5t-2 71.5q0 38 -1.5 61.5t-4.5 38.5q0 5 6 8q20 0 47 -12.5t27 -26.5q-6 -3 -13 -49q-5 -50 -5 -173q88 43 146 96t96.5 97.5t46.5 47.5q7 0 13.5 -18.5t6.5 -32.5q0 -21 -48.5 -59.5t-117.5 -79.5l129 -107q53 -45 99 -45z" />
    <glyph glyph-name="ccedilla" unicode="&#xe7;" horiz-adv-x="443" 
d="M417 286q0 -28 -24 -46q-18 -13 -118 -64l-11 -8l10 -2l32 1q17 0 26 2q16 0 25 -3q38 -15 38 -51q0 -41 -30 -70q-29 -26 -81 -42.5t-106 -16.5q-63 0 -96 11.5t-33 47.5q0 21 6 21l62 -25q72 -25 121 -25q43 0 67.5 14t24.5 62q0 26 -33 38l-53 9q-38 6 -66 6
q15 5 63 39q41 29 64 49q13 11 22.5 29.5t9.5 30.5q0 13 -6 18l-15 4q-19 0 -68 -16l-70 -23l-59 -16q-9 0 -9 12q0 9 21 30t31 25q20 10 77 10l63 -3q25 -2 35 -3.5t25 -4.5q55 -9 55 -40z" />
    <glyph glyph-name="ccedilla" unicode="&#x437;" horiz-adv-x="443" 
d="M417 286q0 -28 -24 -46q-18 -13 -118 -64l-11 -8l10 -2l32 1q17 0 26 2q16 0 25 -3q38 -15 38 -51q0 -41 -30 -70q-29 -26 -81 -42.5t-106 -16.5q-63 0 -96 11.5t-33 47.5q0 21 6 21l62 -25q72 -25 121 -25q43 0 67.5 14t24.5 62q0 26 -33 38l-53 9q-38 6 -66 6
q15 5 63 39q41 29 64 49q13 11 22.5 29.5t9.5 30.5q0 13 -6 18l-15 4q-19 0 -68 -16l-70 -23l-59 -16q-9 0 -9 12q0 9 21 30t31 25q20 10 77 10l63 -3q25 -2 35 -3.5t25 -4.5q55 -9 55 -40z" />
    <glyph glyph-name="egrave" unicode="&#xe8;" 
d="M68 88l3 42l6 56l5 56l2 51q0 12 8 12q9 0 33 -12t27 -20l-18 -62q-17 -68 -17 -100q0 -66 45 -66q34 0 72.5 28.5t65.5 69.5t44 87q9 31 16 36t42 11l-1 -13l-1 -12q0 -49 21 -138t38 -89q13 0 16 -9l-6 -7l-14 -9l-28 -16q-14 -9 -21 -9q-9 0 -22 43l-21 97l-13 74
q-8 -16 -19.5 -34t-25.5 -37q-24 -31 -58 -62q-65 -56 -118 -56q-61 0 -61 88z" />
    <glyph glyph-name="egrave" unicode="&#x438;" 
d="M68 88l3 42l6 56l5 56l2 51q0 12 8 12q9 0 33 -12t27 -20l-18 -62q-17 -68 -17 -100q0 -66 45 -66q34 0 72.5 28.5t65.5 69.5t44 87q9 31 16 36t42 11l-1 -13l-1 -12q0 -49 21 -138t38 -89q13 0 16 -9l-6 -7l-14 -9l-28 -16q-14 -9 -21 -9q-9 0 -22 43l-21 97l-13 74
q-8 -16 -19.5 -34t-25.5 -37q-24 -31 -58 -62q-65 -56 -118 -56q-61 0 -61 88z" />
    <glyph glyph-name="eacute" unicode="&#xe9;" 
d="M68 88l3 42l6 56l5 56l2 51q0 12 8 12q9 0 33 -12t27 -20l-18 -62q-17 -68 -17 -100q0 -66 45 -66q34 0 72.5 28.5t65.5 69.5t44 87q9 31 16 36t42 11l-1 -13l-1 -12q0 -49 21 -138t38 -89q13 0 16 -9l-6 -7l-14 -9l-28 -16q-14 -9 -21 -9q-9 0 -22 43l-21 97l-13 74
q-8 -16 -19.5 -34t-25.5 -37q-24 -31 -58 -62q-65 -56 -118 -56q-61 0 -61 88zM315 551q9 0 18 -14.5t9 -28.5q0 -28 -55 -78.5t-78 -50.5q-2 1 -4.5 2t-5.5 4l-3 3l-2 3q3 12 11 13q34 27 67 86.5t43 60.5z" />
    <glyph glyph-name="eacute" unicode="&#x439;" 
d="M68 88l3 42l6 56l5 56l2 51q0 12 8 12q9 0 33 -12t27 -20l-18 -62q-17 -68 -17 -100q0 -66 45 -66q34 0 72.5 28.5t65.5 69.5t44 87q9 31 16 36t42 11l-1 -13l-1 -12q0 -49 21 -138t38 -89q13 0 16 -9l-6 -7l-14 -9l-28 -16q-14 -9 -21 -9q-9 0 -22 43l-21 97l-13 74
q-8 -16 -19.5 -34t-25.5 -37q-24 -31 -58 -62q-65 -56 -118 -56q-61 0 -61 88zM315 551q9 0 18 -14.5t9 -28.5q0 -28 -55 -78.5t-78 -50.5q-2 1 -4.5 2t-5.5 4l-3 3l-2 3q3 12 11 13q34 27 67 86.5t43 60.5z" />
    <glyph glyph-name="ecircumflex" unicode="&#xea;" 
d="M113 105q88 43 146 96t96.5 97.5t46.5 47.5q7 0 13.5 -18.5t6.5 -32.5q0 -21 -48.5 -59.5t-117.5 -79.5l129 -107q53 -45 99 -45q-2 -12 -19 -34q-15 -23 -35 -23q-15 0 -62 34l-175 138l-80 -35v-88q0 -7 -6 -10q-13 0 -28 8q-15 6 -15 18l-3 209q0 48 -2 85t-4 54
l-4 41q0 5 6 8q20 0 47 -12.5t27 -26.5q-5 -19 -13 -80q0 -21 -2.5 -87t-2.5 -98z" />
    <glyph glyph-name="ecircumflex" unicode="&#x43a;" 
d="M113 105q88 43 146 96t96.5 97.5t46.5 47.5q7 0 13.5 -18.5t6.5 -32.5q0 -21 -48.5 -59.5t-117.5 -79.5l129 -107q53 -45 99 -45q-2 -12 -19 -34q-15 -23 -35 -23q-15 0 -62 34l-175 138l-80 -35v-88q0 -7 -6 -10q-13 0 -28 8q-15 6 -15 18l-3 209q0 48 -2 85t-4 54
l-4 41q0 5 6 8q20 0 47 -12.5t27 -26.5q-5 -19 -13 -80q0 -21 -2.5 -87t-2.5 -98z" />
    <glyph glyph-name="edieresis" unicode="&#xeb;" horiz-adv-x="443" 
d="M430 2q0 -5 -15 -8q-62 0 -80 12l-9 21l-26 65l-51 129q-20 45 -30 45q-15 0 -51 -47.5t-66.5 -116.5t-30.5 -119q0 -7 2 -10q-3 -11 -8 -14q-11 0 -31 30q-18 30 -18 46q0 32 51 100q24 32 52.5 64t60.5 63q63 60 76 60q9 0 26 -30l42 -104q26 -70 50.5 -116.5
t47.5 -59.5q5 -2 8 -10z" />
    <glyph glyph-name="edieresis" unicode="&#x43b;" horiz-adv-x="443" 
d="M430 2q0 -5 -15 -8q-62 0 -80 12l-9 21l-26 65l-51 129q-20 45 -30 45q-15 0 -51 -47.5t-66.5 -116.5t-30.5 -119q0 -7 2 -10q-3 -11 -8 -14q-11 0 -31 30q-18 30 -18 46q0 32 51 100q24 32 52.5 64t60.5 63q63 60 76 60q9 0 26 -30l42 -104q26 -70 50.5 -116.5
t47.5 -59.5q5 -2 8 -10z" />
    <glyph glyph-name="igrave" unicode="&#xec;" horiz-adv-x="723" 
d="M712 -6q0 -6 -23 -6q-66 0 -78 27l-78 207l-8 21l-6 10l-8 4q-14 0 -80.5 -122.5t-73.5 -125.5q-7 0 -41 78.5t-60 130t-49 51.5q-28 0 -63 -76.5t-35 -134.5l1 -22q0 -14 4 -27l5 -37l-6 -4q-19 0 -42 20q-25 19 -25 53q0 54 38.5 119t90.5 115.5t73 50.5q16 0 41 -44
q22 -41 55 -112q30 -67 36 -69q6 0 50 74l72 118q29 44 44 44q7 0 49 -111.5t69 -159.5q18 -39 34 -55z" />
    <glyph glyph-name="igrave" unicode="&#x43c;" horiz-adv-x="723" 
d="M712 -6q0 -6 -23 -6q-66 0 -78 27l-78 207l-8 21l-6 10l-8 4q-14 0 -80.5 -122.5t-73.5 -125.5q-7 0 -41 78.5t-60 130t-49 51.5q-28 0 -63 -76.5t-35 -134.5l1 -22q0 -14 4 -27l5 -37l-6 -4q-19 0 -42 20q-25 19 -25 53q0 54 38.5 119t90.5 115.5t73 50.5q16 0 41 -44
q22 -41 55 -112q30 -67 36 -69q6 0 50 74l72 118q29 44 44 44q7 0 49 -111.5t69 -159.5q18 -39 34 -55z" />
    <glyph glyph-name="iacute" unicode="&#xed;" horiz-adv-x="374" 
d="M334 303l-14 -132q0 -24 -3 -72t-3 -74q-6 -12 -10 -13q-12 0 -26 6t-17 19l2 26l5 55l3 101l-1 46q0 22 -4 38l-3 19q0 5 6 8q16 0 39 -11q23 -9 26 -16zM261 133q-2 -1 -5.5 -3.5t-10.5 -3.5l-41 -2l-57 -1q-31 0 -47 -5q0 -22 4 -37l5 -17q0 -13 -2 -19l-7 -20
q-6 -12 -10 -13q-12 0 -26 6t-17 19l2 26l7 70v40l1 46l-1 46q0 22 -4 38l-3 19q0 5 6 8q16 0 39 -11q23 -9 26 -20l-3 -42l-6 -47l-3 -28l-8 -35h21l30 1h34t42 -4q33 -3 34 -11z" />
    <glyph glyph-name="iacute" unicode="&#x43d;" horiz-adv-x="374" 
d="M334 303l-14 -132q0 -24 -3 -72t-3 -74q-6 -12 -10 -13q-12 0 -26 6t-17 19l2 26l5 55l3 101l-1 46q0 22 -4 38l-3 19q0 5 6 8q16 0 39 -11q23 -9 26 -16zM261 133q-2 -1 -5.5 -3.5t-10.5 -3.5l-41 -2l-57 -1q-31 0 -47 -5q0 -22 4 -37l5 -17q0 -13 -2 -19l-7 -20
q-6 -12 -10 -13q-12 0 -26 6t-17 19l2 26l7 70v40l1 46l-1 46q0 22 -4 38l-3 19q0 5 6 8q16 0 39 -11q23 -9 26 -20l-3 -42l-6 -47l-3 -28l-8 -35h21l30 1h34t42 -4q33 -3 34 -11z" />
    <glyph glyph-name="icircumflex" unicode="&#xee;" 
d="M400 150q0 65 -46.5 94t-103.5 29q-56 0 -102 -35.5t-46 -89.5q0 -57 49 -91t105 -34q60 0 102 36t42 91zM295 303q65 0 116.5 -24.5t51.5 -92.5q0 -38 -25.5 -81.5t-87.5 -78t-151 -34.5q-160 0 -160 119q0 78 78 135t178 57z" />
    <glyph glyph-name="icircumflex" unicode="&#x43e;" 
d="M400 150q0 65 -46.5 94t-103.5 29q-56 0 -102 -35.5t-46 -89.5q0 -57 49 -91t105 -34q60 0 102 36t42 91zM295 303q65 0 116.5 -24.5t51.5 -92.5q0 -38 -25.5 -81.5t-87.5 -78t-151 -34.5q-160 0 -160 119q0 78 78 135t178 57z" />
    <glyph glyph-name="idieresis" unicode="&#xef;" 
d="M68 322q0 5 6 8q16 0 39 -11q23 -9 26 -20l-3 -42l-5 -41q-6 -61 -18 -134q37 72 69 117.5t64 68.5q61 43 98 43q24 0 41 -21q5 -7 11 -23.5t12 -39.5l35 -159q6 -39 28 -39l4 -4q0 -9 -28 -25l-22 -10l-15 -4q-10 0 -23 41l-41 170q-15 63 -47 63q-42 0 -95.5 -71.5
t-84.5 -163.5q-6 -12 -10 -13q-12 0 -26 6t-17 19l2 26l5 55l3 101l-1 46q0 22 -4 38z" />
    <glyph glyph-name="idieresis" unicode="&#x43f;" 
d="M68 322q0 5 6 8q16 0 39 -11q23 -9 26 -20l-3 -42l-5 -41q-6 -61 -18 -134q37 72 69 117.5t64 68.5q61 43 98 43q24 0 41 -21q5 -7 11 -23.5t12 -39.5l35 -159q6 -39 28 -39l4 -4q0 -9 -28 -25l-22 -10l-15 -4q-10 0 -23 41l-41 170q-15 63 -47 63q-42 0 -95.5 -71.5
t-84.5 -163.5q-6 -12 -10 -13q-12 0 -26 6t-17 19l2 26l5 55l3 101l-1 46q0 22 -4 38z" />
    <glyph glyph-name="eth" unicode="&#xf0;" horiz-adv-x="557" 
d="M84 313q0 8 10 11q22 0 42 -15.5t20 -37.5l-2 -25l-2 -23q43 44 108 76q32 15 65.5 23t70.5 8q47 0 84.5 -23.5t37.5 -79.5q0 -57 -39.5 -111t-99 -92t-104.5 -38q-41 0 -74 12.5t-33 36.5q0 12 8 12l27 -13q33 -13 82 -13q89 0 123.5 52t34.5 115q0 42 -21.5 73.5
t-73.5 31.5q-88 0 -144 -53q-26 -26 -43 -63q-15 -36 -15 -79l-13 -350l-1 -12l-7 -2q-8 0 -24 8.5t-19 19.5l3 44l4 74l1 106v221l-1 58l-3 30z" />
    <glyph glyph-name="eth" unicode="&#x440;" horiz-adv-x="557" 
d="M84 313q0 8 10 11q22 0 42 -15.5t20 -37.5l-2 -25l-2 -23q43 44 108 76q32 15 65.5 23t70.5 8q47 0 84.5 -23.5t37.5 -79.5q0 -57 -39.5 -111t-99 -92t-104.5 -38q-41 0 -74 12.5t-33 36.5q0 12 8 12l27 -13q33 -13 82 -13q89 0 123.5 52t34.5 115q0 42 -21.5 73.5
t-73.5 31.5q-88 0 -144 -53q-26 -26 -43 -63q-15 -36 -15 -79l-13 -350l-1 -12l-7 -2q-8 0 -24 8.5t-19 19.5l3 44l4 74l1 106v221l-1 58l-3 30z" />
    <glyph glyph-name="ntilde" unicode="&#xf1;" 
d="M39 84q0 62 48 116.5t122 89.5q35 16 70 25t67 9q86 0 92 -51q0 -14 -8 -17l-45 12q-19 5 -47.5 9t-48.5 4q-71 0 -123.5 -46t-52.5 -114q0 -105 162 -105q48 0 84.5 12t76.5 30l41 18q6 0 7 -8q0 -13 -44 -35q-45 -18 -115.5 -32.5t-123.5 -14.5q-162 0 -162 98z" />
    <glyph glyph-name="ntilde" unicode="&#x441;" 
d="M39 84q0 62 48 116.5t122 89.5q35 16 70 25t67 9q86 0 92 -51q0 -14 -8 -17l-45 12q-19 5 -47.5 9t-48.5 4q-71 0 -123.5 -46t-52.5 -114q0 -105 162 -105q48 0 84.5 12t76.5 30l41 18q6 0 7 -8q0 -13 -44 -35q-45 -18 -115.5 -32.5t-123.5 -14.5q-162 0 -162 98z" />
    <glyph glyph-name="ograve" unicode="&#xf2;" horiz-adv-x="277" 
d="M163 415l82 3l44 3q5 0 8 -10q0 -27 -129 -27q-1 -7 -3 -64.5t-2 -76.5l-1 -153v-92q0 -12 -16 -12q-15 0 -27 4.5t-15 15.5l6 66l5 170l2 140h-106q-11 0 -18 13l-9 24q0 5 7 8l39 -4l87 -6v12q-2 14 -2 22v11v8q-2 5 -2 7q0 15 10 15q16 0 37 -10t24 -27l-5 -4
q-11 -11 -16 -36z" />
    <glyph glyph-name="ograve" unicode="&#x442;" horiz-adv-x="277" 
d="M163 415l82 3l44 3q5 0 8 -10q0 -27 -129 -27q-1 -7 -3 -64.5t-2 -76.5l-1 -153v-92q0 -12 -16 -12q-15 0 -27 4.5t-15 15.5l6 66l5 170l2 140h-106q-11 0 -18 13l-9 24q0 5 7 8l39 -4l87 -6v12q-2 14 -2 22v11v8q-2 5 -2 7q0 15 10 15q16 0 37 -10t24 -27l-5 -4
q-11 -11 -16 -36z" />
    <glyph glyph-name="oacute" unicode="&#xf3;" 
d="M467 285q0 -29 -59 -103l-68 -80l-42 -48l-49.5 -54t-66.5 -90q-34 -59 -34 -70q0 -5 8 -8l36 6l93 10q9 0 11 -0.5t3 -2.5q0 -6 -40 -21l-80 -27l-59 -19l-20 -8q-10 0 -19.5 9t-12.5 22q0 13 141 187q-30 83 -80.5 175t-89.5 126l-14 12l-8 7l-1 3q0 13 47 13
q56 0 78 -43l115 -238q39 39 93.5 128.5t54.5 166.5q0 6 6 6q11 0 32.5 -20.5t24.5 -38.5z" />
    <glyph glyph-name="oacute" unicode="&#x443;" 
d="M467 285q0 -29 -59 -103l-68 -80l-42 -48l-49.5 -54t-66.5 -90q-34 -59 -34 -70q0 -5 8 -8l36 6l93 10q9 0 11 -0.5t3 -2.5q0 -6 -40 -21l-80 -27l-59 -19l-20 -8q-10 0 -19.5 9t-12.5 22q0 13 141 187q-30 83 -80.5 175t-89.5 126l-14 12l-8 7l-1 3q0 13 47 13
q56 0 78 -43l115 -238q39 39 93.5 128.5t54.5 166.5q0 6 6 6q11 0 32.5 -20.5t24.5 -38.5z" />
    <glyph glyph-name="ocircumflex" unicode="&#xf4;" horiz-adv-x="889" 
d="M860 223q0 -54 -47.5 -103.5t-114 -82.5t-118.5 -33q-35 0 -67 16q-28 17 -28 29q0 9 10 10l39 -9q41 -9 77 -9q104 0 143 54q37 56 37 104q0 105 -188 105q-24 0 -59 -4t-79 -13l1 -71l1 -76l1 -99l1 -54l1 -70q0 -9 -8 -10q-10 0 -33 9.5t-25 15.5l5 101l2 77l9 179
q-81 15 -141 15q-187 0 -187 -105q0 -48 36.5 -103t143.5 -55q35 0 77 9l39 9q9 0 10 -10q0 -11 -30 -29q-30 -16 -65 -16q-30 0 -57 7t-63 25q-63 32 -111.5 82t-48.5 105q0 41 49.5 70t188.5 29q13 0 38.5 -1t37.5 -1q16 0 27.5 -1t56.5 -8v28v19v13v21l-1 11l9 3
q6 0 26 -9q15 -12 16 -23l-6 -64l64 7l93 5q140 0 188 -29q50 -27 50 -70z" />
    <glyph glyph-name="ocircumflex" unicode="&#x444;" horiz-adv-x="889" 
d="M860 223q0 -54 -47.5 -103.5t-114 -82.5t-118.5 -33q-35 0 -67 16q-28 17 -28 29q0 9 10 10l39 -9q41 -9 77 -9q104 0 143 54q37 56 37 104q0 105 -188 105q-24 0 -59 -4t-79 -13l1 -71l1 -76l1 -99l1 -54l1 -70q0 -9 -8 -10q-10 0 -33 9.5t-25 15.5l5 101l2 77l9 179
q-81 15 -141 15q-187 0 -187 -105q0 -48 36.5 -103t143.5 -55q35 0 77 9l39 9q9 0 10 -10q0 -11 -30 -29q-30 -16 -65 -16q-30 0 -57 7t-63 25q-63 32 -111.5 82t-48.5 105q0 41 49.5 70t188.5 29q13 0 38.5 -1t37.5 -1q16 0 27.5 -1t56.5 -8v28v19v13v21l-1 11l9 3
q6 0 26 -9q15 -12 16 -23l-6 -64l64 7l93 5q140 0 188 -29q50 -27 50 -70z" />
    <glyph glyph-name="otilde" unicode="&#xf5;" 
d="M408 330q12 0 21.5 -12t11.5 -23q-5 -4 -9 -6q-13 -8 -31 -17q-37 -14 -72 -33t-73 -55q60 -75 95.5 -107.5t62 -49.5t27.5 -25q0 -6 -25 -16q-11 -5 -21.5 -8t-19.5 -3q-15 0 -43 29l-63 75l-50 66l-57 -82l-43 -76l-34 -60q-12 -21 -22 -21q-4 2 -6.5 3.5t-13.5 11.5
q-12 14 -12 20q0 26 174 217l-55 57q-27 28 -44 39l-36 26l-27 19l-8 8l-4 6q0 11 51 11t70 -19l92 -106q48 56 96.5 93.5t67.5 37.5z" />
    <glyph glyph-name="otilde" unicode="&#x445;" 
d="M408 330q12 0 21.5 -12t11.5 -23q-5 -4 -9 -6q-13 -8 -31 -17q-37 -14 -72 -33t-73 -55q60 -75 95.5 -107.5t62 -49.5t27.5 -25q0 -6 -25 -16q-11 -5 -21.5 -8t-19.5 -3q-15 0 -43 29l-63 75l-50 66l-57 -82l-43 -76l-34 -60q-12 -21 -22 -21q-4 2 -6.5 3.5t-13.5 11.5
q-12 14 -12 20q0 26 174 217l-55 57q-27 28 -44 39l-36 26l-27 19l-8 8l-4 6q0 11 51 11t70 -19l92 -106q48 56 96.5 93.5t67.5 37.5z" />
    <glyph glyph-name="odieresis" unicode="&#xf6;" 
d="M68 88l3 42l6 56l5 56l2 51q0 12 8 12q9 0 33 -12t27 -20l-18 -62q-17 -68 -17 -100q0 -66 45 -66q34 0 72.5 28.5t65.5 69.5t44 87q9 31 16 36t42 11l-1 -13l-1 -12q0 -49 21 -138t38 -89q13 0 16 -9l-6 -7l-14 -9l-28 -16q-14 -9 -21 -9q-9 0 -22 43l-21 97l-13 74
q-8 -16 -19.5 -34t-25.5 -37q-24 -31 -58 -62q-65 -56 -118 -56q-61 0 -61 88zM522 129l14 3q24 0 24 -43q0 -56 -36 -145.5t-60 -89.5q-6 0 -9 5l19 79q12 48 12 77q0 24 -6.5 42.5t-20.5 30.5q-3 2 -4.5 4.5t-1.5 4.5q0 10 36 22z" />
    <glyph glyph-name="odieresis" unicode="&#x446;" 
d="M68 88l3 42l6 56l5 56l2 51q0 12 8 12q9 0 33 -12t27 -20l-18 -62q-17 -68 -17 -100q0 -66 45 -66q34 0 72.5 28.5t65.5 69.5t44 87q9 31 16 36t42 11l-1 -13l-1 -12q0 -49 21 -138t38 -89q13 0 16 -9l-6 -7l-14 -9l-28 -16q-14 -9 -21 -9q-9 0 -22 43l-21 97l-13 74
q-8 -16 -19.5 -34t-25.5 -37q-24 -31 -58 -62q-65 -56 -118 -56q-61 0 -61 88zM522 129l14 3q24 0 24 -43q0 -56 -36 -145.5t-60 -89.5q-6 0 -9 5l19 79q12 48 12 77q0 24 -6.5 42.5t-20.5 30.5q-3 2 -4.5 4.5t-1.5 4.5q0 10 36 22z" />
    <glyph glyph-name="divide" unicode="&#xf7;" horiz-adv-x="441" 
d="M31 292q3 12 8 13q9 0 33 -12t27 -20l-2 -30q0 -18 1.5 -33.5t9.5 -31.5q12 -23 31 -30q21 0 37 1t27 4q67 16 88 77q9 31 16 36t42 11l-1 -13l-1 -12q0 -49 21 -138t38 -89q13 0 16 -9l-6 -7l-14 -9l-28 -16q-14 -9 -21 -9q-9 0 -22 43l-21 97l-13 74q-22 -47 -74 -71
q-35 -15 -79 -15l-16 1q-7 0 -10 2q-33 12 -60 48q-31 43 -31 100v15z" />
    <glyph glyph-name="divide" unicode="&#x447;" horiz-adv-x="441" 
d="M31 292q3 12 8 13q9 0 33 -12t27 -20l-2 -30q0 -18 1.5 -33.5t9.5 -31.5q12 -23 31 -30q21 0 37 1t27 4q67 16 88 77q9 31 16 36t42 11l-1 -13l-1 -12q0 -49 21 -138t38 -89q13 0 16 -9l-6 -7l-14 -9l-28 -16q-14 -9 -21 -9q-9 0 -22 43l-21 97l-13 74q-22 -47 -74 -71
q-35 -15 -79 -15l-16 1q-7 0 -10 2q-33 12 -60 48q-31 43 -31 100v15z" />
    <glyph glyph-name="oslash" unicode="&#xf8;" horiz-adv-x="732" 
d="M721 16l-6 -7l-14 -9l-28 -16q-14 -9 -21 -9q-9 0 -22 43l-21 97l-13 74q-8 -16 -19.5 -34t-25.5 -37q-24 -31 -58 -62q-65 -56 -118 -56q-61 0 -61 88l3 41l5 44q-19 -33 -67 -76l-47 -41q-65 -56 -118 -56q-61 0 -61 88l3 42l6 56l5 56l2 51q0 12 8 12q9 0 33 -12
t27 -20l-18 -62q-17 -68 -17 -100q0 -66 45 -66q34 0 72 28q51 39 93 105t42 115q0 12 8 12q9 0 33 -12t27 -20l-18 -62q-17 -68 -17 -100q0 -66 45 -66q34 0 72.5 28.5t65.5 69.5t44 87q9 31 16 36t42 11l-1 -13l-1 -12q0 -49 21 -138t38 -89q13 0 16 -9z" />
    <glyph glyph-name="oslash" unicode="&#x448;" horiz-adv-x="732" 
d="M721 16l-6 -7l-14 -9l-28 -16q-14 -9 -21 -9q-9 0 -22 43l-21 97l-13 74q-8 -16 -19.5 -34t-25.5 -37q-24 -31 -58 -62q-65 -56 -118 -56q-61 0 -61 88l3 41l5 44q-19 -33 -67 -76l-47 -41q-65 -56 -118 -56q-61 0 -61 88l3 42l6 56l5 56l2 51q0 12 8 12q9 0 33 -12
t27 -20l-18 -62q-17 -68 -17 -100q0 -66 45 -66q34 0 72 28q51 39 93 105t42 115q0 12 8 12q9 0 33 -12t27 -20l-18 -62q-17 -68 -17 -100q0 -66 45 -66q34 0 72.5 28.5t65.5 69.5t44 87q9 31 16 36t42 11l-1 -13l-1 -12q0 -49 21 -138t38 -89q13 0 16 -9z" />
    <glyph glyph-name="ugrave" unicode="&#xf9;" horiz-adv-x="858" 
d="M760 16l-6 -7l-14 -9l-28 -16q-14 -9 -21 -9q-9 0 -22 43l-21 97l-13 74q-8 -16 -19.5 -34t-25.5 -37q-24 -31 -58 -62q-65 -56 -118 -56q-61 0 -61 88l3 41l5 44q-19 -33 -67 -76l-47 -41q-65 -56 -118 -56q-61 0 -61 88l3 42l6 56l5 56l2 51q0 12 8 12q9 0 33 -12
t27 -20l-18 -62q-17 -68 -17 -100q0 -66 45 -66q34 0 72 28q51 39 93 105t42 115q0 12 8 12q9 0 33 -12t27 -20l-18 -62q-17 -68 -17 -100q0 -66 45 -66q34 0 72.5 28.5t65.5 69.5t44 87q9 31 16 36t42 11l-1 -13l-1 -12q0 -49 21 -138t38 -89q13 0 16 -9zM811 109l14 3
q24 0 24 -43q0 -56 -36 -145.5t-60 -89.5q-6 0 -9 5l19 79q12 48 12 77q0 24 -6.5 42.5t-20.5 30.5q-3 2 -4.5 4.5t-1.5 4.5q0 10 36 22z" />
    <glyph glyph-name="ugrave" unicode="&#x449;" horiz-adv-x="858" 
d="M760 16l-6 -7l-14 -9l-28 -16q-14 -9 -21 -9q-9 0 -22 43l-21 97l-13 74q-8 -16 -19.5 -34t-25.5 -37q-24 -31 -58 -62q-65 -56 -118 -56q-61 0 -61 88l3 41l5 44q-19 -33 -67 -76l-47 -41q-65 -56 -118 -56q-61 0 -61 88l3 42l6 56l5 56l2 51q0 12 8 12q9 0 33 -12
t27 -20l-18 -62q-17 -68 -17 -100q0 -66 45 -66q34 0 72 28q51 39 93 105t42 115q0 12 8 12q9 0 33 -12t27 -20l-18 -62q-17 -68 -17 -100q0 -66 45 -66q34 0 72.5 28.5t65.5 69.5t44 87q9 31 16 36t42 11l-1 -13l-1 -12q0 -49 21 -138t38 -89q13 0 16 -9zM811 109l14 3
q24 0 24 -43q0 -56 -36 -145.5t-60 -89.5q-6 0 -9 5l19 79q12 48 12 77q0 24 -6.5 42.5t-20.5 30.5q-3 2 -4.5 4.5t-1.5 4.5q0 10 36 22z" />
    <glyph glyph-name="uacute" unicode="&#xfa;" 
d="M341 150q0 -43 -36 -81t-89 -62q-26 -10 -51 -16t-47 -6q-27 0 -43 12.5t-26 49.5q-8 38 -8 96l3 39l8 96q0 17 -3 26l-12 -8q-24 -33 -31 -34q-6 5 -8.5 11.5t-2.5 30.5q0 14 27 26q27 10 37 9q14 0 28.5 -8.5t14.5 -26.5l-20 -83q-9 -38 -9 -78l14 12l30 23
q9 6 24 13.5t35 15.5q36 15 74 15q41 0 66 -19t25 -53zM285 130q0 32 -18 50q-17 20 -45 20q-16 0 -32 -5q-19 -3 -41 -14q-39 -20 -76 -54q0 -110 105 -110q49 0 78 35q29 32 29 78z" />
    <glyph glyph-name="uacute" unicode="&#x44a;" 
d="M341 150q0 -43 -36 -81t-89 -62q-26 -10 -51 -16t-47 -6q-27 0 -43 12.5t-26 49.5q-8 38 -8 96l3 39l8 96q0 17 -3 26l-12 -8q-24 -33 -31 -34q-6 5 -8.5 11.5t-2.5 30.5q0 14 27 26q27 10 37 9q14 0 28.5 -8.5t14.5 -26.5l-20 -83q-9 -38 -9 -78l14 12l30 23
q9 6 24 13.5t35 15.5q36 15 74 15q41 0 66 -19t25 -53zM285 130q0 32 -18 50q-17 20 -45 20q-16 0 -32 -5q-19 -3 -41 -14q-39 -20 -76 -54q0 -110 105 -110q49 0 78 35q29 32 29 78z" />
    <glyph glyph-name="ucircumflex" unicode="&#xfb;" 
d="M341 150q0 -43 -36 -81t-89 -62q-26 -10 -51 -16t-47 -6q-27 0 -43 12.5t-26 49.5q-8 38 -8 96l6 105l3 85q0 8 9 6q14 0 28.5 -8.5t14.5 -26.5l-20 -83q-9 -38 -9 -78l14 12l30 23q9 6 24 13.5t35 15.5q36 15 74 15q41 0 66 -19t25 -53zM285 130q0 32 -18 50
q-17 20 -45 20q-16 0 -32 -5q-19 -3 -41 -14q-39 -20 -76 -54q0 -110 105 -110q49 0 78 35q29 32 29 78zM488 306l-14 -129q0 -36 -1 -54q-5 -92 -5 -95q-6 -12 -10 -13q-12 0 -26 6t-17 19l2 26l5 55l3 101l-1 46q0 22 -4 38l-3 19q0 5 6 8q16 0 39 -11q23 -9 26 -16z" />
    <glyph glyph-name="ucircumflex" unicode="&#x44b;" 
d="M341 150q0 -43 -36 -81t-89 -62q-26 -10 -51 -16t-47 -6q-27 0 -43 12.5t-26 49.5q-8 38 -8 96l6 105l3 85q0 8 9 6q14 0 28.5 -8.5t14.5 -26.5l-20 -83q-9 -38 -9 -78l14 12l30 23q9 6 24 13.5t35 15.5q36 15 74 15q41 0 66 -19t25 -53zM285 130q0 32 -18 50
q-17 20 -45 20q-16 0 -32 -5q-19 -3 -41 -14q-39 -20 -76 -54q0 -110 105 -110q49 0 78 35q29 32 29 78zM488 306l-14 -129q0 -36 -1 -54q-5 -92 -5 -95q-6 -12 -10 -13q-12 0 -26 6t-17 19l2 26l5 55l3 101l-1 46q0 22 -4 38l-3 19q0 5 6 8q16 0 39 -11q23 -9 26 -16z" />
    <glyph glyph-name="udieresis" unicode="&#xfc;" 
d="M341 150q0 -43 -36 -81t-89 -62q-26 -10 -51 -16t-47 -6q-27 0 -43 12.5t-26 49.5q-8 38 -8 96l6 105l3 85q0 8 9 6q14 0 28.5 -8.5t14.5 -26.5l-20 -83q-9 -38 -9 -78l14 12l30 23q9 6 24 13.5t35 15.5q36 15 74 15q41 0 66 -19t25 -53zM285 130q0 32 -18 50
q-17 20 -45 20q-16 0 -32 -5q-19 -3 -41 -14q-39 -20 -76 -54q0 -110 105 -110q49 0 78 35q29 32 29 78z" />
    <glyph glyph-name="udieresis" unicode="&#x44c;" 
d="M341 150q0 -43 -36 -81t-89 -62q-26 -10 -51 -16t-47 -6q-27 0 -43 12.5t-26 49.5q-8 38 -8 96l6 105l3 85q0 8 9 6q14 0 28.5 -8.5t14.5 -26.5l-20 -83q-9 -38 -9 -78l14 12l30 23q9 6 24 13.5t35 15.5q36 15 74 15q41 0 66 -19t25 -53zM285 130q0 32 -18 50
q-17 20 -45 20q-16 0 -32 -5q-19 -3 -41 -14q-39 -20 -76 -54q0 -110 105 -110q49 0 78 35q29 32 29 78z" />
    <glyph glyph-name="yacute" unicode="&#xfd;" horiz-adv-x="487" 
d="M327 142q0 -15 -57 -15q-55 0 -124 -15q-15 -3 -27 6t-12 24q0 16 19 16l39 4l34 4l25 1q43 0 72 -6.5t31 -18.5zM453 199q0 -62 -48.5 -117t-122.5 -89q-35 -16 -70 -25t-66 -9q-86 0 -92 51q0 14 8 17l45 -12q19 -5 47.5 -9t48.5 -4q71 0 123.5 45.5t52.5 114.5
q0 105 -162 105q-44 0 -81.5 -11t-79.5 -31l-41 -18q-6 0 -7 8q0 13 44 35q40 16 111.5 31.5t127.5 15.5q162 0 162 -98z" />
    <glyph glyph-name="yacute" unicode="&#x44d;" horiz-adv-x="487" 
d="M327 142q0 -15 -57 -15q-55 0 -124 -15q-15 -3 -27 6t-12 24q0 16 19 16l39 4l34 4l25 1q43 0 72 -6.5t31 -18.5zM453 199q0 -62 -48.5 -117t-122.5 -89q-35 -16 -70 -25t-66 -9q-86 0 -92 51q0 14 8 17l45 -12q19 -5 47.5 -9t48.5 -4q71 0 123.5 45.5t52.5 114.5
q0 105 -162 105q-44 0 -81.5 -11t-79.5 -31l-41 -18q-6 0 -7 8q0 13 44 35q40 16 111.5 31.5t127.5 15.5q162 0 162 -98z" />
    <glyph glyph-name="thorn" unicode="&#xfe;" horiz-adv-x="586" 
d="M154 133q0 -9 -20 -9l-28 -1q-17 0 -33 -5q0 -22 4 -37l5 -17q0 -13 -2 -19l-7 -20q-6 -12 -10 -13q-12 0 -26 6t-17 19l2 26l7 70v40l1 46l-1 46q0 22 -4 38l-3 19q0 5 6 8q16 0 39 -11q23 -9 26 -20l-3 -42l-6 -47l-3 -28l-8 -35h10l16 1q22 0 38 -3.5t17 -11.5z
M524 155q0 65 -46.5 94t-103.5 29q-56 0 -102 -35.5t-46 -89.5q0 -57 49 -91t105 -34q60 0 102 36t42 91zM419 308q65 0 116.5 -24.5t51.5 -92.5q0 -38 -25.5 -81.5t-87.5 -78t-151 -34.5q-160 0 -160 119q0 78 78 135t178 57z" />
    <glyph glyph-name="thorn" unicode="&#x44e;" horiz-adv-x="586" 
d="M154 133q0 -9 -20 -9l-28 -1q-17 0 -33 -5q0 -22 4 -37l5 -17q0 -13 -2 -19l-7 -20q-6 -12 -10 -13q-12 0 -26 6t-17 19l2 26l7 70v40l1 46l-1 46q0 22 -4 38l-3 19q0 5 6 8q16 0 39 -11q23 -9 26 -20l-3 -42l-6 -47l-3 -28l-8 -35h10l16 1q22 0 38 -3.5t17 -11.5z
M524 155q0 65 -46.5 94t-103.5 29q-56 0 -102 -35.5t-46 -89.5q0 -57 49 -91t105 -34q60 0 102 36t42 91zM419 308q65 0 116.5 -24.5t51.5 -92.5q0 -38 -25.5 -81.5t-87.5 -78t-151 -34.5q-160 0 -160 119q0 78 78 135t178 57z" />
    <glyph glyph-name="ydieresis" unicode="&#xff;" horiz-adv-x="418" 
d="M396 325l-9 -105l-10 -97l-4 -122q0 -5 -5 -8q-10 0 -22 8q-12 6 -13 14l5 74l3 50v36q-8 -7 -19.5 -14t-14.5 -9q6 -9 -20 -37q-22 -23 -45 -38.5t-76 -60.5q-13 -10 -41 -10h-48q-22 0 -23 5q0 5 66 35l65 30l43 27q15 12 25 25q-42 -13 -92 -13q-92 0 -92 75
q0 36 30 77q17 21 35 36q19 18 43 33q48 28 84 28q39 0 81 -48l2 30l3 5l3 3q12 0 28 -9t18 -20zM339 201v90q0 8 -12 19l-16 13l-21 10q-21 9 -48 9q-45 0 -81.5 -39.5t-36.5 -89.5q0 -24 14 -44q14 -16 32 -24q25 -7 38 -7q29 0 60.5 11.5t49.5 27.5q21 15 21 24z" />
    <glyph glyph-name="ydieresis" unicode="&#x44f;" horiz-adv-x="418" 
d="M396 325l-9 -105l-10 -97l-4 -122q0 -5 -5 -8q-10 0 -22 8q-12 6 -13 14l5 74l3 50v36q-8 -7 -19.5 -14t-14.5 -9q6 -9 -20 -37q-22 -23 -45 -38.5t-76 -60.5q-13 -10 -41 -10h-48q-22 0 -23 5q0 5 66 35l65 30l43 27q15 12 25 25q-42 -13 -92 -13q-92 0 -92 75
q0 36 30 77q17 21 35 36q19 18 43 33q48 28 84 28q39 0 81 -48l2 30l3 5l3 3q12 0 28 -9t18 -20zM339 201v90q0 8 -12 19l-16 13l-21 10q-21 9 -48 9q-45 0 -81.5 -39.5t-36.5 -89.5q0 -24 14 -44q14 -16 32 -24q25 -7 38 -7q29 0 60.5 11.5t49.5 27.5q21 15 21 24z" />
    <glyph glyph-name="dotlessi" unicode="&#x131;" horiz-adv-x="223" 
d="M70 318q0 6 8 6q12 0 19 -2l32 -10q20 -6 23 -23l-6 -117l-5 -109l1 -36l1 -33q0 -5 -10 -8l-15 1q-3 1 -6.5 1.5t-14 6t-11.5 19.5v189v45q-3 15 -5 32.5t-7 25.5z" />
    <glyph glyph-name="OE" unicode="&#x152;" horiz-adv-x="1000" 
d="M102 205q0 -174 171 -174q48 0 89.5 18t86.5 61q84 83 84 286q0 90 -28 127.5t-99 37.5q-46 0 -86 -32t-56 -62q-9 -13 -18 -16q-11 0 -14 16q0 14 33 48.5t84.5 61.5t97.5 27q67 0 112 -45q20 -19 32 -57q5 -16 8 -36t3 -46q14 21 33 43.5t41 43.5q43 44 97 75
q25 14 51 22q12 3 25 5t28 2q43 0 66 -23q24 -21 24 -43q0 -13 -6 -16l-12 9q-10 7 -37 16q-15 3 -28 5t-29 2q-82 0 -140.5 -55.5t-90.5 -139.5q-14 -43 -21 -79q-3 -18 -5 -35.5t-2 -36.5q0 -65 33 -124.5t133 -59.5l37 3q7 1 19 4t23 7q40 13 91 36l47 21q6 0 7 -10
q-3 -4 -5 -6q-6 -7 -10 -10q-156 -90 -260 -90q-87 0 -129.5 47.5t-60.5 118.5q-64 -93 -150 -129.5t-152 -36.5q-74 0 -132 45t-58 137q0 51 12 103t38 108q52 112 138.5 187t175.5 75q9 0 9 -14q0 -10 -29 -10q-32 0 -64 -15.5t-65 -44.5q-62 -54 -102 -148
q-20 -48 -30 -97t-10 -107zM926 334q5 0 8 -8q0 -10 -5 -23q-3 -13 -12 -21t-26 -11l-111 3q-30 0 -77 4t-78 7l4 18h35q26 3 40 4l69 8l52 5l55 8z" />
    <glyph glyph-name="oe" unicode="&#x153;" horiz-adv-x="889" 
d="M793 195l-305 -60q0 -64 40.5 -91.5t114.5 -27.5q56 0 103.5 16t80.5 38l44 22q5 0 8 -8q0 -15 -50 -39q-44 -20 -117 -39.5t-124 -19.5q-141 0 -156 75q-39 -36 -103 -56.5t-116 -20.5q-71 0 -119.5 28.5t-48.5 94.5q0 93 89.5 151t187.5 58q57 0 100.5 -21.5
t56.5 -73.5q28 46 81 80q26 15 53 22q13 3 27.5 5t31.5 2q57 0 85 -28q14 -14 22 -36t8 -53h4q10 0 10 -8q0 -6 -8 -10zM428 158q0 60 -41 94.5t-102 34.5q-68 0 -120 -35.5t-52 -103.5q0 -62 45 -98q46 -32 112 -32q69 0 113.5 35.5t44.5 104.5zM488 158l153 28
q58 11 68 17.5t10 26.5q0 65 -84 65q-63 0 -105 -42.5t-42 -94.5z" />
    <glyph glyph-name="florin" unicode="&#x192;" horiz-adv-x="557" 
d="M14 -211q0 29 17 29q10 0 24 -14l23 -19q9 -6 26 -6q40 0 67 57q24 53 35 120l10 72l5 68l6 95l-18 -1q-19 0 -25 -2l-21 3l-23 11q-21 14 -21 38q0 9 8 10l33 -4l67 -6l17 166q6 66 73.5 131t125.5 65q22 0 40 -18q12 -14 17 -37q0 -15 -6 -21.5t-15 -9.5q-9 0 -22 17
t-23 23q-10 8 -30 8t-47 -27q-20 -22 -35 -64q-12 -46 -24 -121q-3 -28 -4 -36.5t-4 -26.5l-3 -49l38 1h23q18 3 27 4l59 5q9 0 9 -10q0 -9 -48 -21q-12 -3 -38 -8t-70 -12l-25 -267q-6 -57 -41.5 -97.5t-84.5 -65.5t-77 -25q-17 0 -31 12.5t-14 32.5z" />
    <glyph glyph-name="circumflex" unicode="&#x2c6;" horiz-adv-x="223" 
d="M217 385l-110 115l-41 -37l-86 -74l-19 25l80 66l68 63q5 5 14 8l8 -6l47 -49l74 -76z" />
    <glyph glyph-name="breve" unicode="&#x2d8;" horiz-adv-x="223" 
d="M236 531q5 0 8 -15q0 -30 -33.5 -75.5t-99.5 -45.5q-59 0 -97 42q-35 43 -35 81q0 12 7 13l5 -6l14 -20q15 -24 40 -46q25 -20 66 -20t65 18q20 17 38 46q15 27 22 28z" />
    <glyph glyph-name="ring" unicode="&#x2da;" horiz-adv-x="223" 
d="M111 521q-22 0 -42 -17.5t-20 -44.5q0 -24 19 -43.5t43 -19.5t43.5 18.5t19.5 44.5q0 25 -18.5 43.5t-44.5 18.5zM111 551q40 0 66 -26t26 -66q0 -38 -26 -65t-66 -27q-36 0 -65 27q-26 28 -26 65q0 40 26 66t65 26z" />
    <glyph glyph-name="tilde" unicode="&#x2dc;" horiz-adv-x="223" 
d="M260 506l8 -5l5 -7q0 -13 -33 -44.5t-51 -31.5q-23 0 -44 11l-43 23q-22 11 -45 11q-18 0 -41 -16q-13 -8 -27 -26l-18 -17q-9 0 -10 10q-2 9 13.5 34t41 42.5t56.5 17.5q15 0 30 -8l16 -7q10 -3 18 -10l31 -16l26 -8q18 0 30 9t22.5 23t14.5 15z" />
    <glyph glyph-name="endash" unicode="&#x2013;" 
d="M500 143h-500v45h500v-45z" />
    <glyph glyph-name="emdash" unicode="&#x2014;" horiz-adv-x="1000" 
d="M1000 143h-998l-2 45h998z" />
    <glyph glyph-name="quoteleft" unicode="&#x2018;" horiz-adv-x="277" 
d="M232 590q-33 -79 -64 -190q-8 -31 -22 -31q-9 0 -24 15q-12 15 -15 32q0 16 28.5 69.5t65.5 104.5q26 33 33 33q5 0 8 -4l-4 -13z" />
    <glyph glyph-name="quoteright" unicode="&#x2019;" horiz-adv-x="277" 
d="M119 400l37 100l28 92q6 30 19 31q12 0 24 -15t15 -32q0 -15 -27 -69.5t-67 -104.5q-20 -33 -33 -33q-5 0 -8 4z" />
    <glyph glyph-name="quotedblleft" unicode="&#x201c;" horiz-adv-x="332" 
d="M188 590q-20 -47 -36 -94l-29 -96q-6 -28 -21 -31q-9 0 -25 16q-10 14 -13 31q0 16 29 70q14 27 30 53l33 51q26 33 33 33q5 0 8 -4zM326 590q-42 -107 -64 -190q-6 -31 -20 -31q-10 0 -26 16q-10 14 -13 31q0 16 29 70q14 27 30 53l33 51q26 33 33 33q5 0 8 -4
q0 -6 -10 -29z" />
    <glyph glyph-name="quotedblright" unicode="&#x201d;" horiz-adv-x="332" 
d="M215 402l39 108l25 80q9 34 20 35q12 0 26 -17l9 -15l4 -17q0 -12 -27 -66l-30 -53l-35 -53q-25 -32 -35 -35q-5 0 -8 6zM76 402q20 49 36 96t29 94q6 33 19 33q16 0 27 -17q12 -15 12 -32q0 -15 -29 -69l-30 -52q-1 -2 -12 -19t-23 -32q-21 -35 -33 -35q-5 0 -8 6z" />
    <glyph glyph-name="quotedblbase" unicode="&#x201e;" horiz-adv-x="332" 
d="M146 -102q20 49 36 96t29 94q9 31 19 31t23.5 -15t16.5 -32q0 -17 -29 -69l-30 -52q-1 -2 -12 -19t-23 -32q-20 -32 -33 -35q-5 0 -8 6zM8 -102q25 64 39 107l25 83q3 19 7 24.5t13 6.5q12 0 24 -15t15 -32q0 -17 -29 -69l-30 -52q-1 -2 -12 -19t-23 -32q-20 -32 -33 -35
q-5 0 -8 6z" />
    <glyph glyph-name="dagger" unicode="&#x2020;" horiz-adv-x="557" 
d="M252 609q15 0 40.5 -13t25.5 -32l-8 -93l-7 -119l41 2l60 3l82 6q6 0 15.5 -15t10.5 -24q0 -8 -6 -11l-90 2l-113 3l-1 -72l-1 -78l2 -268q0 -7 -8 -7q-5 0 -22 9q-10 8 -13 18v398l-190 -4l-4 3l-11 12q-10 18 -10 26q0 5 10 8q17 0 22 -2l25 -2l56 -4l102 -3l-1 52
l-6 67l-7 72l-2 43q0 6 -2 8q3 15 10 15z" />
    <glyph glyph-name="daggerdbl" unicode="&#x2021;" horiz-adv-x="557" 
d="M244 586q0 24 10 25q19 0 41 -14q23 -12 23 -33l-17 -146q60 0 114 6l71 6q7 0 16.5 -15.5t9.5 -23.5q0 -12 -6 -12l-43 1l-52 3l-46 1l-64 1v-260q60 0 117 6l68 6q6 0 15 -15t11 -26q0 -9 -8 -10l-205 6l3 -105l1 -33l6 -29l4 -17q0 -15 -16 -15q-13 0 -29.5 8
t-17.5 23l2 54l4 114l-186 -6q-6 0 -15.5 17t-9.5 24t12 10l64 -6q68 -6 135 -6v260q-16 0 -46 -1t-44 -1l-66 -4q-31 3 -43 11q-12 6 -12 32q0 5 12 8l57 -6l63 -4l79 -2l-3 60l-5 49z" />
    <glyph glyph-name="bullet" unicode="&#x2022;" 
d="M250 457q24 0 40.5 -4t36.5 -16q33 -19 55 -53t22 -79q0 -61 -44.5 -108t-109.5 -47q-63 0 -107.5 45.5t-44.5 109.5q0 25 3.5 41t16.5 36q21 33 54 54t78 21z" />
    <glyph glyph-name="ellipsis" unicode="&#x2026;" horiz-adv-x="1000" 
d="M131 21v86q0 12 10 12q22 0 42.5 -6.5t21.5 -22.5v-82q0 -13 -12 -16l-16 1q-7 1 -11 2l-15 6q-19 6 -20 20zM463 21v86q0 12 12 12l21 -3q16 -3 28 -9.5t13 -16.5v-82q0 -15 -10 -16q-12 0 -17 2l-26 7q-18 6 -21 20zM797 21v86q0 12 12 12l21 -3q16 -3 28 -9.5
t13 -16.5v-82q0 -13 -12 -16l-16 1q-7 1 -11 2l-15 6q-19 6 -20 20z" />
    <glyph glyph-name="perthousand" unicode="&#x2030;" horiz-adv-x="1000" 
d="M145 -25q0 10 31 54l70 112l106 177l140 235q3 5 10 8l6 -3l8 -6q9 -9 9 -17q0 -7 -25 -45l-86 -135l-76 -121l-166 -275l-6 -4l-4 -2l-10 9zM248 371q0 62 -17.5 97.5t-70.5 35.5q-25 0 -49 -15q-17 -13 -32 -43q-11 -28 -11 -63q0 -56 21.5 -96.5t66.5 -40.5
q92 0 92 125zM14 350q0 81 45 129t121 48q69 0 97 -34t28 -106q0 -68 -47 -116t-119 -48q-49 0 -87 33.5t-38 93.5zM932 135q0 64 -17 98.5t-71 34.5q-25 0 -49 -15q-17 -13 -32 -43q-11 -28 -11 -62q0 -58 21 -98t67 -40q92 0 92 125zM697 113q0 82 45 130t121 48
q69 0 97 -34t28 -107q0 -43 -20 -80t-59 -62q-39 -22 -87 -22q-49 0 -87 33.5t-38 93.5zM588 135q0 64 -17 98.5t-71 34.5q-25 0 -49 -15q-17 -13 -32 -43q-11 -28 -11 -62q0 -58 21 -98t65 -40q94 0 94 125zM354 113q0 80 45 129t121 49q68 0 96.5 -36t28.5 -105
q0 -68 -47 -116t-119 -48q-50 0 -87.5 33.5t-37.5 93.5z" />
    <glyph glyph-name="guilsinglleft" unicode="&#x2039;" horiz-adv-x="332" 
d="M109 174l147 -141l-27 -23l-168 166l179 144l26 -23z" />
    <glyph glyph-name="guilsinglright" unicode="&#x203a;" horiz-adv-x="332" 
d="M68 33l155 123l-145 141l26 23l169 -166l-181 -144z" />
    <glyph glyph-name="trademark" unicode="&#x2122;" horiz-adv-x="990" 
d="M182 268v324h-45q-57 0 -74 -69h-18v88h330v-88h-20q-12 69 -74 69h-45v-324q0 -22 10 -32q9 -6 41 -9v-18h-156v18q29 0 40 8q11 6 11 33zM672 203l-154 315l-2 -250q0 -24 12.5 -32.5t39.5 -8.5v-18h-130v18q28 0 41 7t13 34v275q0 19 -21.5 34t-46.5 15v19h109
l160 -322l168 322h86v-19q-56 0 -56 -59v-265q0 -17 2.5 -23.5t12.5 -13.5l33 -4v-18h-148v18q29 0 39 7t10 34v253l-158 -318h-10z" />
    <glyph glyph-name="fi" unicode="&#xf001;" 
d="M119 287l-2 121q0 85 34.5 141.5t79 83.5t76.5 27q45 0 45 -31q0 -13 -3 -19.5t-11 -9.5l-27 12q-26 13 -45 13q-33 0 -51.5 -29t-27.5 -104t-9 -209l43 1l53 3l42 2q6 0 6 -6q0 -19 -148 -35q0 -38 -2 -120.5t-2 -83.5l-12 -314l-3 -5l-9 -7q-4 -3 -15 -5q-12 0 -12 14
l2 73l2 55q0 36 -1 108t-1 108q0 38 -1 96t-1 77h-55q-13 0 -25 11.5t-12 23.5q0 15 10 16l33 -4zM348 318q0 6 7 6q10 0 19.5 -2t31 -9.5t24.5 -23.5l-6 -106l-6 -120l1 -36l1 -33q0 -5 -10 -8l-15 1q-3 1 -6.5 1.5t-11.5 5.5q-11 4 -14 20v189l-3 65q-3 27 -8 37zM371 527
q15 0 30 -8q18 -6 21 -13l2 -67q0 -27 -6 -27q-36 0 -49 22q-8 10 -8 87q0 6 10 6z" />
    <glyph glyph-name="fl" unicode="&#xf002;" 
d="M119 287l-2 121q0 85 34.5 141.5t79 83.5t76.5 27q45 0 45 -31q0 -13 -3 -19.5t-11 -9.5l-27 12q-26 13 -45 13q-33 0 -51.5 -29t-27.5 -104t-9 -209l43 1l53 3l42 2q6 0 6 -6q0 -19 -148 -35q0 -38 -2 -120.5t-2 -83.5l-12 -314l-3 -5l-9 -7q-4 -3 -15 -5q-12 0 -12 14
l2 73l2 55q0 36 -1 108t-1 108q0 38 -1 96t-1 77h-55q-13 0 -25 11.5t-12 23.5q0 15 10 16l33 -4zM361 445v17v14v12q0 39 -3 63q0 14 -1 29t-4 29l-3 37q0 5 9 8q20 0 46 -12.5t27 -26.5l-7 -177l-7 -276l1 -66l1 -55l2 -47q0 -5 -12 -8q-14 0 -18 2l-17 7q-11 4 -14 17
v433z" />
    </font>
</defs>
</svg>
